  0
SECTION
  2
HEADER
  9
$ACADVER
  1
AC1006
  9
$INSBASE
 10
0.0
 20
0.0
  9
$EXTMIN
 10
-150
 20
-150
  9
$EXTMAX
 10
150
 20
150
  9
$LIMMIN
 10
0.0
 20
0.0
  9
$LIMMAX
 10
300.0
 20
225.0
  9
$VIEWCTR
 10
7.378144
 20
4.5
  9
$VIEWSIZE
 40
9.0
  9
$SNAPMODE
 70
0
  9
$SNAPUNIT
 10
1.0
 20
1.0
  9
$SNAPBASE
 10
0.0
 20
0.0
  9
$SNAPANG
 50
0.0
  9
$SNAPSTYLE
 70
     0
  9
$SNAPISOPAIR
 70
     0
  9
$GRIDMODE
 70
     0
  9
$GRIDUNIT
 10
0.0
 20
0.0
  9
$ORTHOMODE
 70
     0
  9
$REGENMODE
 70
     1
  9
$FILLMODE
 70
     1
  9
$QTEXTMODE
 70
     0
  9
$DRAGMODE
 70
     2
  9
$LTSCALE
 40
1.0
  9
$OSMODE
 70
     0
  9
$ATTMODE
 70
     1
  9
$TEXTSIZE
 40
0.2
  9
$TRACEWID
 40
0.05
  9
$TEXTSTYLE
  7
STANDARD
  9
$CLAYER
  8
0
  9
$CELTYPE
  6
BYLAYER
  9
$CECOLOR
 62
   256
  9
$DIMSCALE
 40
1.0
  9
$DIMASZ
 40
0.18
  9
$DIMEXO
 40
0.0625
  9
$DIMDLI
 40
0.38
  9
$DIMRND
 40
0.0
  9
$DIMDLE
 40
0.0
  9
$DIMEXE
 40
0.18
  9
$DIMTP
 40
0.0
  9
$DIMTM
 40
0.0
  9
$DIMTXT
 40
0.18
  9
$DIMCEN
 40
0.09
  9
$DIMTSZ
 40
0.0
  9
$DIMTOL
 70
     0
  9
$DIMLIM
 70
     0
  9
$DIMTIH
 70
     1
  9
$DIMTOH
 70
     1
  9
$DIMSE1
 70
     0
  9
$DIMSE2
 70
     0
  9
$DIMTAD
 70
     0
  9
$DIMZIN
 70
     0
  9
$DIMBLK
  1

  9
$DIMASO
 70
     1
  9
$DIMSHO
 70
     0
  9
$DIMPOST
  1

  9
$DIMAPOST
  1

  9
$DIMALT
 70
     0
  9
$DIMALTD
 70
     2
  9
$DIMALTF
 40
25.4
  9
$DIMLFAC
 40
1.0
  9
$LUNITS
 70
     2
  9
$LUPREC
 70
     4
  9
$AXISMODE
 70
     0
  9
$AXISUNIT
 10
0.0
 20
0.0
  9
$SKETCHINC
 40
0.1
  9
$FILLETRAD
 40
0.0
  9
$AUNITS
 70
     0
  9
$AUPREC
 70
     0
  9
$MENU
  1
ACAD
  9
$ELEVATION
 40
0.0
  9
$THICKNESS
 40
0.0
  9
$VIEWDIR
 10
0.0
 20
0.0
 30
0.0
  9
$LIMCHECK
 70
     0
  9
$BLIPMODE
 70
     1
  9
$CHAMFERA
 40
0.0
  9
$CHAMFERB
 40
0.0
  9
$FASTZOOM
 70
     1
  9
$SKPOLY
 70
     0
  9
$TDCREATE
 40
2447732.6512363921
  9
$TDUPDATE
 40
2447732.6512363921
  9
$TDINDWG
 40
0.0000000000
  9
$TDUSRTIMER
 40
0.0000000000
  9
$USRTIMER
 70
     1
  9
$ANGBASE
 50
0.0
  9
$ANGDIR
 70
     0
  9
$PDMODE
 70
     0
  9
$PDSIZE
 40
0.0
  9
$PLINEWID
 40
0.0
  9
$COORDS
 70
     0
  9
$USERI1
 70
     0
  9
$USERI2
 70
     0
  9
$USERI3
 70
     0
  9
$USERI4
 70
     0
  9
$USERI5
 70
     0
  9
$USERR1
 40
0.0
  9
$USERR2
 40
0.0
  9
$USERR3
 40
0.0
  9
$USERR4
 40
0.0
  9
$USERR5
 40
0.0
  0
ENDSEC
  0
SECTION
  2
TABLES
  0
TABLE
  2
LAYER
 70
1
  0
LAYER
  2
MSgnd
 70
0
 62
3
  6
CONTINUOUS
  0
ENDTAB
  0
ENDSEC
  0
SECTION
  2
ENTITIES
  0
POLYLINE
  8
MSgnd
  6
CONTINUOUS
 66
1
 10
0.0
 20
0.0
 70
1
  0
VERTEX
  8
MSgnd
 10
0.000000
 20
0.000000
  0
VERTEX
  8
MSgnd
 10
2.000000
 20
0.000000
  0
VERTEX
  8
MSgnd
 10
2.000000
 20
0.050000
  0
VERTEX
  8
MSgnd
 10
0.000000
 20
0.050000
  0
VERTEX
  8
MSgnd
 10
0.000000
 20
0.000000
  0
SEQEND
  0
POLYLINE
  8
MSgnd
  6
CONTINUOUS
 66
1
 10
0.0
 20
0.0
 70
1
  0
VERTEX
  8
MSgnd
 10
0.050000
 20
0.000000
  0
VERTEX
  8
MSgnd
 10
0.050000
 20
2.000000
  0
VERTEX
  8
MSgnd
 10
0.000000
 20
2.000000
  0
VERTEX
  8
MSgnd
 10
0.000000
 20
0.000000
  0
VERTEX
  8
MSgnd
 10
0.050000
 20
0.000000
  0
SEQEND
  0
POLYLINE
  8
MSgnd
  6
CONTINUOUS
 66
1
 10
0.0
 20
0.0
 70
1
  0
VERTEX
  8
MSgnd
 10
42.000000
 20
0.000000
  0
VERTEX
  8
MSgnd
 10
42.000000
 20
2.000000
  0
VERTEX
  8
MSgnd
 10
41.950000
 20
2.000000
  0
VERTEX
  8
MSgnd
 10
41.950000
 20
0.000000
  0
VERTEX
  8
MSgnd
 10
42.000000
 20
0.000000
  0
SEQEND
  0
POLYLINE
  8
MSgnd
  6
CONTINUOUS
 66
1
 10
0.0
 20
0.0
 70
1
  0
VERTEX
  8
MSgnd
 10
42.000000
 20
0.050000
  0
VERTEX
  8
MSgnd
 10
40.000000
 20
0.050000
  0
VERTEX
  8
MSgnd
 10
40.000000
 20
0.000000
  0
VERTEX
  8
MSgnd
 10
42.000000
 20
0.000000
  0
VERTEX
  8
MSgnd
 10
42.000000
 20
0.050000
  0
SEQEND
  0
POLYLINE
  8
MSgnd
  6
CONTINUOUS
 66
1
 10
0.0
 20
0.0
 70
1
  0
VERTEX
  8
MSgnd
 10
42.000000
 20
14.000000
  0
VERTEX
  8
MSgnd
 10
40.000000
 20
14.000000
  0
VERTEX
  8
MSgnd
 10
40.000000
 20
13.950000
  0
VERTEX
  8
MSgnd
 10
42.000000
 20
13.950000
  0
VERTEX
  8
MSgnd
 10
42.000000
 20
14.000000
  0
SEQEND
  0
POLYLINE
  8
MSgnd
  6
CONTINUOUS
 66
1
 10
0.0
 20
0.0
 70
1
  0
VERTEX
  8
MSgnd
 10
41.950000
 20
14.000000
  0
VERTEX
  8
MSgnd
 10
41.950000
 20
12.000000
  0
VERTEX
  8
MSgnd
 10
42.000000
 20
12.000000
  0
VERTEX
  8
MSgnd
 10
42.000000
 20
14.000000
  0
VERTEX
  8
MSgnd
 10
41.950000
 20
14.000000
  0
SEQEND
  0
POLYLINE
  8
MSgnd
  6
CONTINUOUS
 66
1
 10
0.0
 20
0.0
 70
1
  0
VERTEX
  8
MSgnd
 10
0.000000
 20
14.000000
  0
VERTEX
  8
MSgnd
 10
0.000000
 20
12.000000
  0
VERTEX
  8
MSgnd
 10
0.050000
 20
12.000000
  0
VERTEX
  8
MSgnd
 10
0.050000
 20
14.000000
  0
VERTEX
  8
MSgnd
 10
0.000000
 20
14.000000
  0
SEQEND
  0
POLYLINE
  8
MSgnd
  6
CONTINUOUS
 66
1
 10
0.0
 20
0.0
 70
1
  0
VERTEX
  8
MSgnd
 10
0.000000
 20
13.950000
  0
VERTEX
  8
MSgnd
 10
2.000000
 20
13.950000
  0
VERTEX
  8
MSgnd
 10
2.000000
 20
14.000000
  0
VERTEX
  8
MSgnd
 10
0.000000
 20
14.000000
  0
VERTEX
  8
MSgnd
 10
0.000000
 20
13.950000
  0
SEQEND
  0
POLYLINE
  8
MSgnd
  6
CONTINUOUS
 66
1
 10
0.0
 20
0.0
 70
1
  0
VERTEX
  8
MSgnd
 10
7.201500
 20
6.999000
  0
VERTEX
  8
MSgnd
 10
7.201500
 20
7.001000
  0
VERTEX
  8
MSgnd
 10
7.198500
 20
7.001000
  0
VERTEX
  8
MSgnd
 10
7.198500
 20
6.999000
  0
VERTEX
  8
MSgnd
 10
7.201500
 20
6.999000
  0
SEQEND
  0
POLYLINE
  8
MSgnd
  6
CONTINUOUS
 66
1
 10
0.0
 20
0.0
 70
1
  0
VERTEX
  8
MSgnd
 10
7.198500
 20
7.001000
  0
VERTEX
  8
MSgnd
 10
5.811000
 20
7.395500
  0
VERTEX
  8
MSgnd
 10
5.811000
 20
6.604500
  0
VERTEX
  8
MSgnd
 10
7.198500
 20
6.999000
  0
VERTEX
  8
MSgnd
 10
7.198500
 20
7.001000
  0
SEQEND
  0
POLYLINE
  8
MSgnd
  6
CONTINUOUS
 66
1
 10
0.0
 20
0.0
 70
1
  0
VERTEX
  8
MSgnd
 10
7.201500
 20
6.999000
  0
VERTEX
  8
MSgnd
 10
8.589000
 20
6.604500
  0
VERTEX
  8
MSgnd
 10
8.589000
 20
7.395500
  0
VERTEX
  8
MSgnd
 10
7.201500
 20
7.001000
  0
VERTEX
  8
MSgnd
 10
7.201500
 20
6.999000
  0
SEQEND
  0
POLYLINE
  8
MSgnd
  6
CONTINUOUS
 66
1
 10
0.0
 20
0.0
 70
1
  0
VERTEX
  8
MSgnd
 10
7.199075
 20
7.001000
  0
VERTEX
  8
MSgnd
 10
7.199075
 20
6.999000
  0
VERTEX
  8
MSgnd
 10
7.200925
 20
6.999000
  0
VERTEX
  8
MSgnd
 10
7.200925
 20
7.001000
  0
VERTEX
  8
MSgnd
 10
7.199075
 20
7.001000
  0
SEQEND
  0
POLYLINE
  8
MSgnd
  6
CONTINUOUS
 66
1
 10
0.0
 20
0.0
 70
1
  0
VERTEX
  8
MSgnd
 10
7.199075
 20
6.999000
  0
VERTEX
  8
MSgnd
 10
7.199075
 20
6.997000
  0
VERTEX
  8
MSgnd
 10
7.200925
 20
6.997000
  0
VERTEX
  8
MSgnd
 10
7.200925
 20
6.999000
  0
VERTEX
  8
MSgnd
 10
7.199075
 20
6.999000
  0
SEQEND
  0
POLYLINE
  8
MSgnd
  6
CONTINUOUS
 66
1
 10
0.0
 20
0.0
 70
1
  0
VERTEX
  8
MSgnd
 10
7.199075
 20
6.997000
  0
VERTEX
  8
MSgnd
 10
7.199075
 20
6.987000
  0
VERTEX
  8
MSgnd
 10
7.200925
 20
6.987000
  0
VERTEX
  8
MSgnd
 10
7.200925
 20
6.997000
  0
VERTEX
  8
MSgnd
 10
7.199075
 20
6.997000
  0
SEQEND
  0
POLYLINE
  8
MSgnd
  6
CONTINUOUS
 66
1
 10
0.0
 20
0.0
 70
1
  0
VERTEX
  8
MSgnd
 10
7.200875
 20
7.001000
  0
VERTEX
  8
MSgnd
 10
7.200875
 20
7.029000
  0
VERTEX
  8
MSgnd
 10
7.199125
 20
7.029000
  0
VERTEX
  8
MSgnd
 10
7.199125
 20
7.001000
  0
VERTEX
  8
MSgnd
 10
7.200875
 20
7.001000
  0
SEQEND
  0
POLYLINE
  8
MSgnd
  6
CONTINUOUS
 66
1
 10
0.0
 20
0.0
 70
1
  0
VERTEX
  8
MSgnd
 10
7.200800
 20
7.029000
  0
VERTEX
  8
MSgnd
 10
7.200800
 20
8.500000
  0
VERTEX
  8
MSgnd
 10
7.199200
 20
8.500000
  0
VERTEX
  8
MSgnd
 10
7.199200
 20
7.029000
  0
VERTEX
  8
MSgnd
 10
7.200800
 20
7.029000
  0
SEQEND
  0
POLYLINE
  8
MSgnd
  6
CONTINUOUS
 66
1
 10
0.0
 20
0.0
 70
1
  0
VERTEX
  8
MSgnd
 10
7.347012
 20
8.852988
  0
VERTEX
  8
MSgnd
 10
7.317591
 20
8.820880
  0
VERTEX
  8
MSgnd
 10
7.291079
 20
8.786329
  0
VERTEX
  8
MSgnd
 10
7.267680
 20
8.749600
  0
VERTEX
  8
MSgnd
 10
7.247571
 20
8.710971
  0
VERTEX
  8
MSgnd
 10
7.230905
 20
8.670736
  0
VERTEX
  8
MSgnd
 10
7.217810
 20
8.629202
  0
VERTEX
  8
MSgnd
 10
7.208384
 20
8.586685
  0
VERTEX
  8
MSgnd
 10
7.202700
 20
8.543508
  0
VERTEX
  8
MSgnd
 10
7.200800
 20
8.500000
  0
VERTEX
  8
MSgnd
 10
7.199200
 20
8.500000
  0
VERTEX
  8
MSgnd
 10
7.201106
 20
8.543648
  0
VERTEX
  8
MSgnd
 10
7.206808
 20
8.586963
  0
VERTEX
  8
MSgnd
 10
7.216264
 20
8.629617
  0
VERTEX
  8
MSgnd
 10
7.229402
 20
8.671284
  0
VERTEX
  8
MSgnd
 10
7.246121
 20
8.711647
  0
VERTEX
  8
MSgnd
 10
7.266294
 20
8.750400
  0
VERTEX
  8
MSgnd
 10
7.289769
 20
8.787247
  0
VERTEX
  8
MSgnd
 10
7.316365
 20
8.821908
  0
VERTEX
  8
MSgnd
 10
7.345881
 20
8.854119
  0
VERTEX
  8
MSgnd
 10
7.347012
 20
8.852988
  0
SEQEND
  0
POLYLINE
  8
MSgnd
  6
CONTINUOUS
 66
1
 10
0.0
 20
0.0
 70
1
  0
VERTEX
  8
MSgnd
 10
7.347012
 20
8.852988
  0
VERTEX
  8
MSgnd
 10
8.597012
 20
10.102988
  0
VERTEX
  8
MSgnd
 10
8.595881
 20
10.104119
  0
VERTEX
  8
MSgnd
 10
7.345881
 20
8.854119
  0
VERTEX
  8
MSgnd
 10
7.347012
 20
8.852988
  0
SEQEND
  0
POLYLINE
  8
MSgnd
  6
CONTINUOUS
 66
1
 10
0.0
 20
0.0
 70
1
  0
VERTEX
  8
MSgnd
 10
8.950000
 20
10.249200
  0
VERTEX
  8
MSgnd
 10
8.906492
 20
10.247300
  0
VERTEX
  8
MSgnd
 10
8.863315
 20
10.241616
  0
VERTEX
  8
MSgnd
 10
8.820798
 20
10.232190
  0
VERTEX
  8
MSgnd
 10
8.779264
 20
10.219095
  0
VERTEX
  8
MSgnd
 10
8.739029
 20
10.202429
  0
VERTEX
  8
MSgnd
 10
8.700400
 20
10.182320
  0
VERTEX
  8
MSgnd
 10
8.663671
 20
10.158921
  0
VERTEX
  8
MSgnd
 10
8.629120
 20
10.132409
  0
VERTEX
  8
MSgnd
 10
8.597012
 20
10.102988
  0
VERTEX
  8
MSgnd
 10
8.595881
 20
10.104119
  0
VERTEX
  8
MSgnd
 10
8.628092
 20
10.133635
  0
VERTEX
  8
MSgnd
 10
8.662753
 20
10.160231
  0
VERTEX
  8
MSgnd
 10
8.699600
 20
10.183706
  0
VERTEX
  8
MSgnd
 10
8.738353
 20
10.203879
  0
VERTEX
  8
MSgnd
 10
8.778716
 20
10.220598
  0
VERTEX
  8
MSgnd
 10
8.820383
 20
10.233736
  0
VERTEX
  8
MSgnd
 10
8.863037
 20
10.243192
  0
VERTEX
  8
MSgnd
 10
8.906352
 20
10.248894
  0
VERTEX
  8
MSgnd
 10
8.950000
 20
10.250800
  0
VERTEX
  8
MSgnd
 10
8.950000
 20
10.249200
  0
SEQEND
  0
POLYLINE
  8
MSgnd
  6
CONTINUOUS
 66
1
 10
0.0
 20
0.0
 70
1
  0
VERTEX
  8
MSgnd
 10
8.950000
 20
10.249200
  0
VERTEX
  8
MSgnd
 10
12.562000
 20
10.249200
  0
VERTEX
  8
MSgnd
 10
12.562000
 20
10.250800
  0
VERTEX
  8
MSgnd
 10
8.950000
 20
10.250800
  0
VERTEX
  8
MSgnd
 10
8.950000
 20
10.249200
  0
SEQEND
  0
POLYLINE
  8
MSgnd
  6
CONTINUOUS
 66
1
 10
0.0
 20
0.0
 70
1
  0
VERTEX
  8
MSgnd
 10
12.562000
 20
10.249200
  0
VERTEX
  8
MSgnd
 10
16.562000
 20
10.249200
  0
VERTEX
  8
MSgnd
 10
16.562000
 20
10.250800
  0
VERTEX
  8
MSgnd
 10
12.562000
 20
10.250800
  0
VERTEX
  8
MSgnd
 10
12.562000
 20
10.249200
  0
SEQEND
  0
POLYLINE
  8
MSgnd
  6
CONTINUOUS
 66
1
 10
0.0
 20
0.0
 70
1
  0
VERTEX
  8
MSgnd
 10
16.562000
 20
10.249200
  0
VERTEX
  8
MSgnd
 10
17.562000
 20
10.249200
  0
VERTEX
  8
MSgnd
 10
17.562000
 20
10.250800
  0
VERTEX
  8
MSgnd
 10
16.562000
 20
10.250800
  0
VERTEX
  8
MSgnd
 10
16.562000
 20
10.249200
  0
SEQEND
  0
POLYLINE
  8
MSgnd
  6
CONTINUOUS
 66
1
 10
0.0
 20
0.0
 70
1
  0
VERTEX
  8
MSgnd
 10
5.700000
 20
8.500000
  0
VERTEX
  8
MSgnd
 10
8.200000
 20
11.000000
  0
VERTEX
  8
MSgnd
 10
8.950000
 20
11.000000
  0
VERTEX
  8
MSgnd
 10
16.562000
 20
11.000000
  0
VERTEX
  8
MSgnd
 10
16.562000
 20
14.000000
  0
VERTEX
  8
MSgnd
 10
0.000000
 20
14.000000
  0
VERTEX
  8
MSgnd
 10
0.000000
 20
0.000000
  0
VERTEX
  8
MSgnd
 10
16.562000
 20
0.000000
  0
VERTEX
  8
MSgnd
 10
16.562000
 20
9.500000
  0
VERTEX
  8
MSgnd
 10
8.950000
 20
9.500000
  0
VERTEX
  8
MSgnd
 10
8.700000
 20
8.500000
  0
VERTEX
  8
MSgnd
 10
8.700000
 20
5.500000
  0
VERTEX
  8
MSgnd
 10
5.700000
 20
5.500000
  0
VERTEX
  8
MSgnd
 10
5.700000
 20
8.500000
  0
SEQEND
  0
POLYLINE
  8
MSgnd
  6
CONTINUOUS
 66
1
 10
0.0
 20
0.0
 70
1
  0
VERTEX
  8
MSgnd
 10
12.562500
 20
10.250000
  0
VERTEX
  8
MSgnd
 10
12.562500
 20
10.600000
  0
VERTEX
  8
MSgnd
 10
12.561500
 20
10.600000
  0
VERTEX
  8
MSgnd
 10
12.561500
 20
10.250000
  0
VERTEX
  8
MSgnd
 10
12.562500
 20
10.250000
  0
SEQEND
  0
POLYLINE
  8
MSgnd
  6
CONTINUOUS
 66
1
 10
0.0
 20
0.0
 70
1
  0
VERTEX
  8
MSgnd
 10
12.562000
 20
10.599500
  0
VERTEX
  8
MSgnd
 10
16.562000
 20
10.599500
  0
VERTEX
  8
MSgnd
 10
16.562000
 20
10.600500
  0
VERTEX
  8
MSgnd
 10
12.562000
 20
10.600500
  0
VERTEX
  8
MSgnd
 10
12.562000
 20
10.599500
  0
SEQEND
  0
POLYLINE
  8
MSgnd
  6
CONTINUOUS
 66
1
 10
0.0
 20
0.0
 70
1
  0
VERTEX
  8
MSgnd
 10
16.561500
 20
10.600000
  0
VERTEX
  8
MSgnd
 10
16.561500
 20
9.900000
  0
VERTEX
  8
MSgnd
 10
16.562500
 20
9.900000
  0
VERTEX
  8
MSgnd
 10
16.562500
 20
10.600000
  0
VERTEX
  8
MSgnd
 10
16.561500
 20
10.600000
  0
SEQEND
  0
POLYLINE
  8
MSgnd
  6
CONTINUOUS
 66
1
 10
0.0
 20
0.0
 70
1
  0
VERTEX
  8
MSgnd
 10
16.562000
 20
9.900500
  0
VERTEX
  8
MSgnd
 10
12.562000
 20
9.900500
  0
VERTEX
  8
MSgnd
 10
12.562000
 20
9.899500
  0
VERTEX
  8
MSgnd
 10
16.562000
 20
9.899500
  0
VERTEX
  8
MSgnd
 10
16.562000
 20
9.900500
  0
SEQEND
  0
POLYLINE
  8
MSgnd
  6
CONTINUOUS
 66
1
 10
0.0
 20
0.0
 70
1
  0
VERTEX
  8
MSgnd
 10
12.562500
 20
9.900000
  0
VERTEX
  8
MSgnd
 10
12.562500
 20
10.250000
  0
VERTEX
  8
MSgnd
 10
12.561500
 20
10.250000
  0
VERTEX
  8
MSgnd
 10
12.561500
 20
9.900000
  0
VERTEX
  8
MSgnd
 10
12.562500
 20
9.900000
  0
SEQEND
  0
POLYLINE
  8
MSgnd
  6
CONTINUOUS
 66
1
 10
0.0
 20
0.0
 70
1
  0
VERTEX
  8
MSgnd
 10
12.562500
 20
10.250000
  0
VERTEX
  8
MSgnd
 10
12.562500
 20
14.000000
  0
VERTEX
  8
MSgnd
 10
12.561500
 20
14.000000
  0
VERTEX
  8
MSgnd
 10
12.561500
 20
10.250000
  0
VERTEX
  8
MSgnd
 10
12.562500
 20
10.250000
  0
SEQEND
  0
POLYLINE
  8
MSgnd
  6
CONTINUOUS
 66
1
 10
0.0
 20
0.0
 70
1
  0
VERTEX
  8
MSgnd
 10
12.561500
 20
10.250000
  0
VERTEX
  8
MSgnd
 10
12.561500
 20
0.000000
  0
VERTEX
  8
MSgnd
 10
12.562500
 20
0.000000
  0
VERTEX
  8
MSgnd
 10
12.562500
 20
10.250000
  0
VERTEX
  8
MSgnd
 10
12.561500
 20
10.250000
  0
SEQEND
  0
POLYLINE
  8
MSgnd
  6
CONTINUOUS
 66
1
 10
0.0
 20
0.0
 70
1
  0
VERTEX
  8
MSgnd
 10
16.562500
 20
10.250000
  0
VERTEX
  8
MSgnd
 10
16.562500
 20
14.000000
  0
VERTEX
  8
MSgnd
 10
16.561500
 20
14.000000
  0
VERTEX
  8
MSgnd
 10
16.561500
 20
10.250000
  0
VERTEX
  8
MSgnd
 10
16.562500
 20
10.250000
  0
SEQEND
  0
POLYLINE
  8
MSgnd
  6
CONTINUOUS
 66
1
 10
0.0
 20
0.0
 70
1
  0
VERTEX
  8
MSgnd
 10
16.561500
 20
10.250000
  0
VERTEX
  8
MSgnd
 10
16.561500
 20
0.000000
  0
VERTEX
  8
MSgnd
 10
16.562500
 20
0.000000
  0
VERTEX
  8
MSgnd
 10
16.562500
 20
10.250000
  0
VERTEX
  8
MSgnd
 10
16.561500
 20
10.250000
  0
SEQEND
  0
POLYLINE
  8
MSgnd
  6
CONTINUOUS
 66
1
 10
0.0
 20
0.0
 70
1
  0
VERTEX
  8
MSgnd
 10
17.562000
 20
10.249200
  0
VERTEX
  8
MSgnd
 10
17.762000
 20
10.249200
  0
VERTEX
  8
MSgnd
 10
17.762000
 20
10.250800
  0
VERTEX
  8
MSgnd
 10
17.562000
 20
10.250800
  0
VERTEX
  8
MSgnd
 10
17.562000
 20
10.249200
  0
SEQEND
  0
POLYLINE
  8
MSgnd
  6
CONTINUOUS
 66
1
 10
0.0
 20
0.0
 70
1
  0
VERTEX
  8
MSgnd
 10
17.861200
 20
10.350000
  0
VERTEX
  8
MSgnd
 10
17.860823
 20
10.341354
  0
VERTEX
  8
MSgnd
 10
17.859693
 20
10.332774
  0
VERTEX
  8
MSgnd
 10
17.857820
 20
10.324325
  0
VERTEX
  8
MSgnd
 10
17.855218
 20
10.316072
  0
VERTEX
  8
MSgnd
 10
17.851906
 20
10.308076
  0
VERTEX
  8
MSgnd
 10
17.847910
 20
10.300400
  0
VERTEX
  8
MSgnd
 10
17.843260
 20
10.293101
  0
VERTEX
  8
MSgnd
 10
17.837992
 20
10.286235
  0
VERTEX
  8
MSgnd
 10
17.832145
 20
10.279855
  0
VERTEX
  8
MSgnd
 10
17.825765
 20
10.274008
  0
VERTEX
  8
MSgnd
 10
17.818899
 20
10.268740
  0
VERTEX
  8
MSgnd
 10
17.811600
 20
10.264090
  0
VERTEX
  8
MSgnd
 10
17.803924
 20
10.260094
  0
VERTEX
  8
MSgnd
 10
17.795928
 20
10.256782
  0
VERTEX
  8
MSgnd
 10
17.787675
 20
10.254180
  0
VERTEX
  8
MSgnd
 10
17.779226
 20
10.252307
  0
VERTEX
  8
MSgnd
 10
17.770646
 20
10.251177
  0
VERTEX
  8
MSgnd
 10
17.762000
 20
10.250800
  0
VERTEX
  8
MSgnd
 10
17.762000
 20
10.249200
  0
VERTEX
  8
MSgnd
 10
17.770785
 20
10.249584
  0
VERTEX
  8
MSgnd
 10
17.779504
 20
10.250731
  0
VERTEX
  8
MSgnd
 10
17.788089
 20
10.252635
  0
VERTEX
  8
MSgnd
 10
17.796476
 20
10.255279
  0
VERTEX
  8
MSgnd
 10
17.804600
 20
10.258644
  0
VERTEX
  8
MSgnd
 10
17.812400
 20
10.262705
  0
VERTEX
  8
MSgnd
 10
17.819817
 20
10.267429
  0
VERTEX
  8
MSgnd
 10
17.826793
 20
10.272783
  0
VERTEX
  8
MSgnd
 10
17.833276
 20
10.278724
  0
VERTEX
  8
MSgnd
 10
17.839217
 20
10.285207
  0
VERTEX
  8
MSgnd
 10
17.844571
 20
10.292183
  0
VERTEX
  8
MSgnd
 10
17.849295
 20
10.299600
  0
VERTEX
  8
MSgnd
 10
17.853356
 20
10.307400
  0
VERTEX
  8
MSgnd
 10
17.856721
 20
10.315524
  0
VERTEX
  8
MSgnd
 10
17.859365
 20
10.323911
  0
VERTEX
  8
MSgnd
 10
17.861269
 20
10.332496
  0
VERTEX
  8
MSgnd
 10
17.862416
 20
10.341215
  0
VERTEX
  8
MSgnd
 10
17.862800
 20
10.350000
  0
VERTEX
  8
MSgnd
 10
17.861200
 20
10.350000
  0
SEQEND
  0
POLYLINE
  8
MSgnd
  6
CONTINUOUS
 66
1
 10
0.0
 20
0.0
 70
1
  0
VERTEX
  8
MSgnd
 10
17.862800
 20
10.350000
  0
VERTEX
  8
MSgnd
 10
17.862800
 20
11.650000
  0
VERTEX
  8
MSgnd
 10
17.861200
 20
11.650000
  0
VERTEX
  8
MSgnd
 10
17.861200
 20
10.350000
  0
VERTEX
  8
MSgnd
 10
17.862800
 20
10.350000
  0
SEQEND
  0
POLYLINE
  8
MSgnd
  6
CONTINUOUS
 66
1
 10
0.0
 20
0.0
 70
1
  0
VERTEX
  8
MSgnd
 10
17.962000
 20
11.749200
  0
VERTEX
  8
MSgnd
 10
17.953354
 20
11.748823
  0
VERTEX
  8
MSgnd
 10
17.944774
 20
11.747693
  0
VERTEX
  8
MSgnd
 10
17.936325
 20
11.745820
  0
VERTEX
  8
MSgnd
 10
17.928072
 20
11.743218
  0
VERTEX
  8
MSgnd
 10
17.920076
 20
11.739906
  0
VERTEX
  8
MSgnd
 10
17.912400
 20
11.735910
  0
VERTEX
  8
MSgnd
 10
17.905101
 20
11.731260
  0
VERTEX
  8
MSgnd
 10
17.898235
 20
11.725992
  0
VERTEX
  8
MSgnd
 10
17.891855
 20
11.720145
  0
VERTEX
  8
MSgnd
 10
17.886008
 20
11.713765
  0
VERTEX
  8
MSgnd
 10
17.880740
 20
11.706899
  0
VERTEX
  8
MSgnd
 10
17.876090
 20
11.699600
  0
VERTEX
  8
MSgnd
 10
17.872094
 20
11.691924
  0
VERTEX
  8
MSgnd
 10
17.868782
 20
11.683928
  0
VERTEX
  8
MSgnd
 10
17.866180
 20
11.675675
  0
VERTEX
  8
MSgnd
 10
17.864307
 20
11.667226
  0
VERTEX
  8
MSgnd
 10
17.863177
 20
11.658646
  0
VERTEX
  8
MSgnd
 10
17.862800
 20
11.650000
  0
VERTEX
  8
MSgnd
 10
17.861200
 20
11.650000
  0
VERTEX
  8
MSgnd
 10
17.861584
 20
11.658785
  0
VERTEX
  8
MSgnd
 10
17.862731
 20
11.667504
  0
VERTEX
  8
MSgnd
 10
17.864635
 20
11.676089
  0
VERTEX
  8
MSgnd
 10
17.867279
 20
11.684476
  0
VERTEX
  8
MSgnd
 10
17.870644
 20
11.692600
  0
VERTEX
  8
MSgnd
 10
17.874705
 20
11.700400
  0
VERTEX
  8
MSgnd
 10
17.879429
 20
11.707817
  0
VERTEX
  8
MSgnd
 10
17.884783
 20
11.714793
  0
VERTEX
  8
MSgnd
 10
17.890724
 20
11.721276
  0
VERTEX
  8
MSgnd
 10
17.897207
 20
11.727217
  0
VERTEX
  8
MSgnd
 10
17.904183
 20
11.732571
  0
VERTEX
  8
MSgnd
 10
17.911600
 20
11.737295
  0
VERTEX
  8
MSgnd
 10
17.919400
 20
11.741356
  0
VERTEX
  8
MSgnd
 10
17.927524
 20
11.744721
  0
VERTEX
  8
MSgnd
 10
17.935911
 20
11.747365
  0
VERTEX
  8
MSgnd
 10
17.944496
 20
11.749269
  0
VERTEX
  8
MSgnd
 10
17.953215
 20
11.750416
  0
VERTEX
  8
MSgnd
 10
17.962000
 20
11.750800
  0
VERTEX
  8
MSgnd
 10
17.962000
 20
11.749200
  0
SEQEND
  0
POLYLINE
  8
MSgnd
  6
CONTINUOUS
 66
1
 10
0.0
 20
0.0
 70
1
  0
VERTEX
  8
MSgnd
 10
17.962000
 20
11.749200
  0
VERTEX
  8
MSgnd
 10
18.062000
 20
11.749200
  0
VERTEX
  8
MSgnd
 10
18.062000
 20
11.750800
  0
VERTEX
  8
MSgnd
 10
17.962000
 20
11.750800
  0
VERTEX
  8
MSgnd
 10
17.962000
 20
11.749200
  0
SEQEND
  0
POLYLINE
  8
MSgnd
  6
CONTINUOUS
 66
1
 10
0.0
 20
0.0
 70
1
  0
VERTEX
  8
MSgnd
 10
18.062000
 20
11.748400
  0
VERTEX
  8
MSgnd
 10
18.038000
 20
11.748400
  0
VERTEX
  8
MSgnd
 10
18.038000
 20
11.746800
  0
VERTEX
  8
MSgnd
 10
18.062000
 20
11.746800
  0
VERTEX
  8
MSgnd
 10
18.062000
 20
11.748400
  0
SEQEND
  0
POLYLINE
  8
MSgnd
  6
CONTINUOUS
 66
1
 10
0.0
 20
0.0
 70
1
  0
VERTEX
  8
MSgnd
 10
18.034100
 20
11.742900
  0
VERTEX
  8
MSgnd
 10
18.034115
 20
11.743240
  0
VERTEX
  8
MSgnd
 10
18.034159
 20
11.743577
  0
VERTEX
  8
MSgnd
 10
18.034233
 20
11.743909
  0
VERTEX
  8
MSgnd
 10
18.034335
 20
11.744234
  0
VERTEX
  8
MSgnd
 10
18.034465
 20
11.744548
  0
VERTEX
  8
MSgnd
 10
18.034623
 20
11.744850
  0
VERTEX
  8
MSgnd
 10
18.034805
 20
11.745137
  0
VERTEX
  8
MSgnd
 10
18.035012
 20
11.745407
  0
VERTEX
  8
MSgnd
 10
18.035242
 20
11.745658
  0
VERTEX
  8
MSgnd
 10
18.035493
 20
11.745888
  0
VERTEX
  8
MSgnd
 10
18.035763
 20
11.746095
  0
VERTEX
  8
MSgnd
 10
18.036050
 20
11.746277
  0
VERTEX
  8
MSgnd
 10
18.036352
 20
11.746435
  0
VERTEX
  8
MSgnd
 10
18.036666
 20
11.746565
  0
VERTEX
  8
MSgnd
 10
18.036991
 20
11.746667
  0
VERTEX
  8
MSgnd
 10
18.037323
 20
11.746741
  0
VERTEX
  8
MSgnd
 10
18.037660
 20
11.746785
  0
VERTEX
  8
MSgnd
 10
18.038000
 20
11.746800
  0
VERTEX
  8
MSgnd
 10
18.038000
 20
11.748400
  0
VERTEX
  8
MSgnd
 10
18.037521
 20
11.748379
  0
VERTEX
  8
MSgnd
 10
18.037045
 20
11.748316
  0
VERTEX
  8
MSgnd
 10
18.036576
 20
11.748213
  0
VERTEX
  8
MSgnd
 10
18.036119
 20
11.748068
  0
VERTEX
  8
MSgnd
 10
18.035676
 20
11.747885
  0
VERTEX
  8
MSgnd
 10
18.035250
 20
11.747663
  0
VERTEX
  8
MSgnd
 10
18.034845
 20
11.747405
  0
VERTEX
  8
MSgnd
 10
18.034465
 20
11.747113
  0
VERTEX
  8
MSgnd
 10
18.034111
 20
11.746789
  0
VERTEX
  8
MSgnd
 10
18.033787
 20
11.746435
  0
VERTEX
  8
MSgnd
 10
18.033495
 20
11.746055
  0
VERTEX
  8
MSgnd
 10
18.033237
 20
11.745650
  0
VERTEX
  8
MSgnd
 10
18.033015
 20
11.745224
  0
VERTEX
  8
MSgnd
 10
18.032832
 20
11.744781
  0
VERTEX
  8
MSgnd
 10
18.032687
 20
11.744324
  0
VERTEX
  8
MSgnd
 10
18.032584
 20
11.743855
  0
VERTEX
  8
MSgnd
 10
18.032521
 20
11.743379
  0
VERTEX
  8
MSgnd
 10
18.032500
 20
11.742900
  0
VERTEX
  8
MSgnd
 10
18.034100
 20
11.742900
  0
SEQEND
  0
POLYLINE
  8
MSgnd
  6
CONTINUOUS
 66
1
 10
0.0
 20
0.0
 70
1
  0
VERTEX
  8
MSgnd
 10
18.032500
 20
11.742900
  0
VERTEX
  8
MSgnd
 10
18.032500
 20
11.705900
  0
VERTEX
  8
MSgnd
 10
18.034100
 20
11.705900
  0
VERTEX
  8
MSgnd
 10
18.034100
 20
11.742900
  0
VERTEX
  8
MSgnd
 10
18.032500
 20
11.742900
  0
SEQEND
  0
POLYLINE
  8
MSgnd
  6
CONTINUOUS
 66
1
 10
0.0
 20
0.0
 70
1
  0
VERTEX
  8
MSgnd
 10
18.032500
 20
11.705900
  0
VERTEX
  8
MSgnd
 10
18.032500
 20
11.695900
  0
VERTEX
  8
MSgnd
 10
18.034100
 20
11.695900
  0
VERTEX
  8
MSgnd
 10
18.034100
 20
11.705900
  0
VERTEX
  8
MSgnd
 10
18.032500
 20
11.705900
  0
SEQEND
  0
POLYLINE
  8
MSgnd
  6
CONTINUOUS
 66
1
 10
0.0
 20
0.0
 70
1
  0
VERTEX
  8
MSgnd
 10
18.065900
 20
11.742900
  0
VERTEX
  8
MSgnd
 10
18.065885
 20
11.743240
  0
VERTEX
  8
MSgnd
 10
18.065841
 20
11.743577
  0
VERTEX
  8
MSgnd
 10
18.065767
 20
11.743909
  0
VERTEX
  8
MSgnd
 10
18.065665
 20
11.744234
  0
VERTEX
  8
MSgnd
 10
18.065535
 20
11.744548
  0
VERTEX
  8
MSgnd
 10
18.065377
 20
11.744850
  0
VERTEX
  8
MSgnd
 10
18.065195
 20
11.745137
  0
VERTEX
  8
MSgnd
 10
18.064988
 20
11.745407
  0
VERTEX
  8
MSgnd
 10
18.064758
 20
11.745658
  0
VERTEX
  8
MSgnd
 10
18.064507
 20
11.745888
  0
VERTEX
  8
MSgnd
 10
18.064237
 20
11.746095
  0
VERTEX
  8
MSgnd
 10
18.063950
 20
11.746277
  0
VERTEX
  8
MSgnd
 10
18.063648
 20
11.746435
  0
VERTEX
  8
MSgnd
 10
18.063334
 20
11.746565
  0
VERTEX
  8
MSgnd
 10
18.063009
 20
11.746667
  0
VERTEX
  8
MSgnd
 10
18.062677
 20
11.746741
  0
VERTEX
  8
MSgnd
 10
18.062340
 20
11.746785
  0
VERTEX
  8
MSgnd
 10
18.062000
 20
11.746800
  0
VERTEX
  8
MSgnd
 10
18.062000
 20
11.748400
  0
VERTEX
  8
MSgnd
 10
18.062479
 20
11.748379
  0
VERTEX
  8
MSgnd
 10
18.062955
 20
11.748316
  0
VERTEX
  8
MSgnd
 10
18.063424
 20
11.748213
  0
VERTEX
  8
MSgnd
 10
18.063881
 20
11.748068
  0
VERTEX
  8
MSgnd
 10
18.064324
 20
11.747885
  0
VERTEX
  8
MSgnd
 10
18.064750
 20
11.747663
  0
VERTEX
  8
MSgnd
 10
18.065155
 20
11.747405
  0
VERTEX
  8
MSgnd
 10
18.065535
 20
11.747113
  0
VERTEX
  8
MSgnd
 10
18.065889
 20
11.746789
  0
VERTEX
  8
MSgnd
 10
18.066213
 20
11.746435
  0
VERTEX
  8
MSgnd
 10
18.066505
 20
11.746055
  0
VERTEX
  8
MSgnd
 10
18.066763
 20
11.745650
  0
VERTEX
  8
MSgnd
 10
18.066985
 20
11.745224
  0
VERTEX
  8
MSgnd
 10
18.067168
 20
11.744781
  0
VERTEX
  8
MSgnd
 10
18.067313
 20
11.744324
  0
VERTEX
  8
MSgnd
 10
18.067416
 20
11.743855
  0
VERTEX
  8
MSgnd
 10
18.067479
 20
11.743379
  0
VERTEX
  8
MSgnd
 10
18.067500
 20
11.742900
  0
VERTEX
  8
MSgnd
 10
18.065900
 20
11.742900
  0
SEQEND
  0
POLYLINE
  8
MSgnd
  6
CONTINUOUS
 66
1
 10
0.0
 20
0.0
 70
1
  0
VERTEX
  8
MSgnd
 10
18.065900
 20
11.742900
  0
VERTEX
  8
MSgnd
 10
18.065900
 20
11.708900
  0
VERTEX
  8
MSgnd
 10
18.067500
 20
11.708900
  0
VERTEX
  8
MSgnd
 10
18.067500
 20
11.742900
  0
VERTEX
  8
MSgnd
 10
18.065900
 20
11.742900
  0
SEQEND
  0
POLYLINE
  8
MSgnd
  6
CONTINUOUS
 66
1
 10
0.0
 20
0.0
 70
1
  0
VERTEX
  8
MSgnd
 10
18.065900
 20
11.708900
  0
VERTEX
  8
MSgnd
 10
18.063700
 20
11.696900
  0
VERTEX
  8
MSgnd
 10
18.069700
 20
11.696900
  0
VERTEX
  8
MSgnd
 10
18.067500
 20
11.708900
  0
VERTEX
  8
MSgnd
 10
18.065900
 20
11.708900
  0
SEQEND
  0
POLYLINE
  8
MSgnd
  6
CONTINUOUS
 66
1
 10
0.0
 20
0.0
 70
1
  0
VERTEX
  8
MSgnd
 10
18.063700
 20
11.696900
  0
VERTEX
  8
MSgnd
 10
18.063700
 20
11.689900
  0
VERTEX
  8
MSgnd
 10
18.069700
 20
11.689900
  0
VERTEX
  8
MSgnd
 10
18.069700
 20
11.696900
  0
VERTEX
  8
MSgnd
 10
18.063700
 20
11.696900
  0
SEQEND
  0
POLYLINE
  8
MSgnd
  6
CONTINUOUS
 66
1
 10
0.0
 20
0.0
 70
1
  0
VERTEX
  8
MSgnd
 10
18.065900
 20
11.708900
  0
VERTEX
  8
MSgnd
 10
18.065800
 20
11.703900
  0
VERTEX
  8
MSgnd
 10
18.067600
 20
11.703900
  0
VERTEX
  8
MSgnd
 10
18.067500
 20
11.708900
  0
VERTEX
  8
MSgnd
 10
18.065900
 20
11.708900
  0
SEQEND
  0
POLYLINE
  8
MSgnd
  6
CONTINUOUS
 66
1
 10
0.0
 20
0.0
 70
1
  0
VERTEX
  8
MSgnd
 10
18.065700
 20
11.703900
  0
VERTEX
  8
MSgnd
 10
18.065700
 20
11.696900
  0
VERTEX
  8
MSgnd
 10
18.067700
 20
11.696900
  0
VERTEX
  8
MSgnd
 10
18.067700
 20
11.703900
  0
VERTEX
  8
MSgnd
 10
18.065700
 20
11.703900
  0
SEQEND
  0
POLYLINE
  8
MSgnd
  6
CONTINUOUS
 66
1
 10
0.0
 20
0.0
 70
1
  0
VERTEX
  8
MSgnd
 10
18.063700
 20
11.696900
  0
VERTEX
  8
MSgnd
 10
18.063700
 20
9.944768
  0
VERTEX
  8
MSgnd
 10
18.069700
 20
9.944768
  0
VERTEX
  8
MSgnd
 10
18.069700
 20
11.696900
  0
VERTEX
  8
MSgnd
 10
18.063700
 20
11.696900
  0
SEQEND
  0
POLYLINE
  8
MSgnd
  6
CONTINUOUS
 66
1
 10
0.0
 20
0.0
 70
1
  0
VERTEX
  8
MSgnd
 10
18.065850
 20
9.944768
  0
VERTEX
  8
MSgnd
 10
18.065150
 20
9.937768
  0
VERTEX
  8
MSgnd
 10
18.068250
 20
9.937768
  0
VERTEX
  8
MSgnd
 10
18.067550
 20
9.944768
  0
VERTEX
  8
MSgnd
 10
18.065850
 20
9.944768
  0
SEQEND
  0
POLYLINE
  8
MSgnd
  6
CONTINUOUS
 66
1
 10
0.0
 20
0.0
 70
1
  0
VERTEX
  8
MSgnd
 10
18.066700
 20
9.944768
  0
VERTEX
  8
MSgnd
 10
18.069700
 20
9.944768
  0
VERTEX
  8
MSgnd
 10
18.085600
 20
9.923768
  0
VERTEX
  8
MSgnd
 10
18.069800
 20
9.923768
  0
VERTEX
  8
MSgnd
 10
18.066700
 20
9.944768
  0
SEQEND
  0
POLYLINE
  8
MSgnd
  6
CONTINUOUS
 66
1
 10
0.0
 20
0.0
 70
1
  0
VERTEX
  8
MSgnd
 10
18.066700
 20
9.944768
  0
VERTEX
  8
MSgnd
 10
18.063700
 20
9.944768
  0
VERTEX
  8
MSgnd
 10
18.047800
 20
9.923768
  0
VERTEX
  8
MSgnd
 10
18.063600
 20
9.923768
  0
VERTEX
  8
MSgnd
 10
18.066700
 20
9.944768
  0
SEQEND
  0
POLYLINE
  8
MSgnd
  6
CONTINUOUS
 66
1
 10
0.0
 20
0.0
 70
1
  0
VERTEX
  8
MSgnd
 10
18.069800
 20
9.923768
  0
VERTEX
  8
MSgnd
 10
18.069800
 20
9.902768
  0
VERTEX
  8
MSgnd
 10
18.085600
 20
9.902768
  0
VERTEX
  8
MSgnd
 10
18.085600
 20
9.923768
  0
VERTEX
  8
MSgnd
 10
18.069800
 20
9.923768
  0
SEQEND
  0
POLYLINE
  8
MSgnd
  6
CONTINUOUS
 66
1
 10
0.0
 20
0.0
 70
1
  0
VERTEX
  8
MSgnd
 10
18.047800
 20
9.923768
  0
VERTEX
  8
MSgnd
 10
18.047800
 20
9.902768
  0
VERTEX
  8
MSgnd
 10
18.063600
 20
9.902768
  0
VERTEX
  8
MSgnd
 10
18.063600
 20
9.923768
  0
VERTEX
  8
MSgnd
 10
18.047800
 20
9.923768
  0
SEQEND
  0
POLYLINE
  8
MSgnd
  6
CONTINUOUS
 66
1
 10
0.0
 20
0.0
 70
1
  0
VERTEX
  8
MSgnd
 10
18.069800
 20
9.902768
  0
VERTEX
  8
MSgnd
 10
18.069800
 20
6.318799
  0
VERTEX
  8
MSgnd
 10
18.085600
 20
6.318799
  0
VERTEX
  8
MSgnd
 10
18.085600
 20
9.902768
  0
VERTEX
  8
MSgnd
 10
18.069800
 20
9.902768
  0
SEQEND
  0
POLYLINE
  8
MSgnd
  6
CONTINUOUS
 66
1
 10
0.0
 20
0.0
 70
1
  0
VERTEX
  8
MSgnd
 10
18.047800
 20
9.902768
  0
VERTEX
  8
MSgnd
 10
18.047800
 20
6.318799
  0
VERTEX
  8
MSgnd
 10
18.063600
 20
6.318799
  0
VERTEX
  8
MSgnd
 10
18.063600
 20
9.902768
  0
VERTEX
  8
MSgnd
 10
18.047800
 20
9.902768
  0
SEQEND
  0
POLYLINE
  8
MSgnd
  6
CONTINUOUS
 66
1
 10
0.0
 20
0.0
 70
1
  0
VERTEX
  8
MSgnd
 10
18.047800
 20
6.318799
  0
VERTEX
  8
MSgnd
 10
18.047800
 20
6.302999
  0
VERTEX
  8
MSgnd
 10
18.085600
 20
6.302999
  0
VERTEX
  8
MSgnd
 10
18.085600
 20
6.318799
  0
VERTEX
  8
MSgnd
 10
18.047800
 20
6.318799
  0
SEQEND
  0
POLYLINE
  8
MSgnd
  6
CONTINUOUS
 66
1
 10
0.0
 20
0.0
 70
1
  0
VERTEX
  8
MSgnd
 10
18.062000
 20
11.749200
  0
VERTEX
  8
MSgnd
 10
18.562000
 20
11.749200
  0
VERTEX
  8
MSgnd
 10
18.562000
 20
11.750800
  0
VERTEX
  8
MSgnd
 10
18.062000
 20
11.750800
  0
VERTEX
  8
MSgnd
 10
18.062000
 20
11.749200
  0
SEQEND
  0
POLYLINE
  8
MSgnd
  6
CONTINUOUS
 66
1
 10
0.0
 20
0.0
 70
1
  0
VERTEX
  8
MSgnd
 10
18.661200
 20
11.650000
  0
VERTEX
  8
MSgnd
 10
18.660823
 20
11.658646
  0
VERTEX
  8
MSgnd
 10
18.659693
 20
11.667226
  0
VERTEX
  8
MSgnd
 10
18.657820
 20
11.675675
  0
VERTEX
  8
MSgnd
 10
18.655218
 20
11.683928
  0
VERTEX
  8
MSgnd
 10
18.651906
 20
11.691924
  0
VERTEX
  8
MSgnd
 10
18.647910
 20
11.699600
  0
VERTEX
  8
MSgnd
 10
18.643260
 20
11.706899
  0
VERTEX
  8
MSgnd
 10
18.637992
 20
11.713765
  0
VERTEX
  8
MSgnd
 10
18.632145
 20
11.720145
  0
VERTEX
  8
MSgnd
 10
18.625765
 20
11.725992
  0
VERTEX
  8
MSgnd
 10
18.618899
 20
11.731260
  0
VERTEX
  8
MSgnd
 10
18.611600
 20
11.735910
  0
VERTEX
  8
MSgnd
 10
18.603924
 20
11.739906
  0
VERTEX
  8
MSgnd
 10
18.595928
 20
11.743218
  0
VERTEX
  8
MSgnd
 10
18.587675
 20
11.745820
  0
VERTEX
  8
MSgnd
 10
18.579226
 20
11.747693
  0
VERTEX
  8
MSgnd
 10
18.570646
 20
11.748823
  0
VERTEX
  8
MSgnd
 10
18.562000
 20
11.749200
  0
VERTEX
  8
MSgnd
 10
18.562000
 20
11.750800
  0
VERTEX
  8
MSgnd
 10
18.570785
 20
11.750416
  0
VERTEX
  8
MSgnd
 10
18.579504
 20
11.749269
  0
VERTEX
  8
MSgnd
 10
18.588089
 20
11.747365
  0
VERTEX
  8
MSgnd
 10
18.596476
 20
11.744721
  0
VERTEX
  8
MSgnd
 10
18.604600
 20
11.741356
  0
VERTEX
  8
MSgnd
 10
18.612400
 20
11.737295
  0
VERTEX
  8
MSgnd
 10
18.619817
 20
11.732571
  0
VERTEX
  8
MSgnd
 10
18.626793
 20
11.727217
  0
VERTEX
  8
MSgnd
 10
18.633276
 20
11.721276
  0
VERTEX
  8
MSgnd
 10
18.639217
 20
11.714793
  0
VERTEX
  8
MSgnd
 10
18.644571
 20
11.707817
  0
VERTEX
  8
MSgnd
 10
18.649295
 20
11.700400
  0
VERTEX
  8
MSgnd
 10
18.653356
 20
11.692600
  0
VERTEX
  8
MSgnd
 10
18.656721
 20
11.684476
  0
VERTEX
  8
MSgnd
 10
18.659365
 20
11.676089
  0
VERTEX
  8
MSgnd
 10
18.661269
 20
11.667504
  0
VERTEX
  8
MSgnd
 10
18.662416
 20
11.658785
  0
VERTEX
  8
MSgnd
 10
18.662800
 20
11.650000
  0
VERTEX
  8
MSgnd
 10
18.661200
 20
11.650000
  0
SEQEND
  0
POLYLINE
  8
MSgnd
  6
CONTINUOUS
 66
1
 10
0.0
 20
0.0
 70
1
  0
VERTEX
  8
MSgnd
 10
18.661200
 20
11.650000
  0
VERTEX
  8
MSgnd
 10
18.661200
 20
10.764159
  0
VERTEX
  8
MSgnd
 10
18.662800
 20
10.764159
  0
VERTEX
  8
MSgnd
 10
18.662800
 20
11.650000
  0
VERTEX
  8
MSgnd
 10
18.661200
 20
11.650000
  0
SEQEND
  0
POLYLINE
  8
MSgnd
  6
CONTINUOUS
 66
1
 10
0.0
 20
0.0
 70
1
  0
VERTEX
  8
MSgnd
 10
18.762000
 20
10.664959
  0
VERTEX
  8
MSgnd
 10
18.753354
 20
10.665337
  0
VERTEX
  8
MSgnd
 10
18.744774
 20
10.666466
  0
VERTEX
  8
MSgnd
 10
18.736325
 20
10.668339
  0
VERTEX
  8
MSgnd
 10
18.728072
 20
10.670942
  0
VERTEX
  8
MSgnd
 10
18.720076
 20
10.674254
  0
VERTEX
  8
MSgnd
 10
18.712400
 20
10.678250
  0
VERTEX
  8
MSgnd
 10
18.705101
 20
10.682899
  0
VERTEX
  8
MSgnd
 10
18.698235
 20
10.688168
  0
VERTEX
  8
MSgnd
 10
18.691855
 20
10.694014
  0
VERTEX
  8
MSgnd
 10
18.686008
 20
10.700395
  0
VERTEX
  8
MSgnd
 10
18.680740
 20
10.707260
  0
VERTEX
  8
MSgnd
 10
18.676090
 20
10.714559
  0
VERTEX
  8
MSgnd
 10
18.672094
 20
10.722236
  0
VERTEX
  8
MSgnd
 10
18.668782
 20
10.730231
  0
VERTEX
  8
MSgnd
 10
18.666180
 20
10.738484
  0
VERTEX
  8
MSgnd
 10
18.664307
 20
10.746933
  0
VERTEX
  8
MSgnd
 10
18.663177
 20
10.755513
  0
VERTEX
  8
MSgnd
 10
18.662800
 20
10.764159
  0
VERTEX
  8
MSgnd
 10
18.661200
 20
10.764159
  0
VERTEX
  8
MSgnd
 10
18.661584
 20
10.755374
  0
VERTEX
  8
MSgnd
 10
18.662731
 20
10.746656
  0
VERTEX
  8
MSgnd
 10
18.664635
 20
10.738070
  0
VERTEX
  8
MSgnd
 10
18.667279
 20
10.729684
  0
VERTEX
  8
MSgnd
 10
18.670644
 20
10.721559
  0
VERTEX
  8
MSgnd
 10
18.674705
 20
10.713759
  0
VERTEX
  8
MSgnd
 10
18.679429
 20
10.706343
  0
VERTEX
  8
MSgnd
 10
18.684783
 20
10.699366
  0
VERTEX
  8
MSgnd
 10
18.690724
 20
10.692883
  0
VERTEX
  8
MSgnd
 10
18.697207
 20
10.686942
  0
VERTEX
  8
MSgnd
 10
18.704183
 20
10.681589
  0
VERTEX
  8
MSgnd
 10
18.711600
 20
10.676864
  0
VERTEX
  8
MSgnd
 10
18.719400
 20
10.672803
  0
VERTEX
  8
MSgnd
 10
18.727524
 20
10.669438
  0
VERTEX
  8
MSgnd
 10
18.735911
 20
10.666794
  0
VERTEX
  8
MSgnd
 10
18.744496
 20
10.664891
  0
VERTEX
  8
MSgnd
 10
18.753215
 20
10.663743
  0
VERTEX
  8
MSgnd
 10
18.762000
 20
10.663359
  0
VERTEX
  8
MSgnd
 10
18.762000
 20
10.664959
  0
SEQEND
  0
POLYLINE
  8
MSgnd
  6
CONTINUOUS
 66
1
 10
0.0
 20
0.0
 70
1
  0
VERTEX
  8
MSgnd
 10
18.861200
 20
10.764159
  0
VERTEX
  8
MSgnd
 10
18.860823
 20
10.755513
  0
VERTEX
  8
MSgnd
 10
18.859693
 20
10.746933
  0
VERTEX
  8
MSgnd
 10
18.857820
 20
10.738484
  0
VERTEX
  8
MSgnd
 10
18.855218
 20
10.730231
  0
VERTEX
  8
MSgnd
 10
18.851906
 20
10.722236
  0
VERTEX
  8
MSgnd
 10
18.847910
 20
10.714559
  0
VERTEX
  8
MSgnd
 10
18.843260
 20
10.707260
  0
VERTEX
  8
MSgnd
 10
18.837992
 20
10.700395
  0
VERTEX
  8
MSgnd
 10
18.832145
 20
10.694014
  0
VERTEX
  8
MSgnd
 10
18.825765
 20
10.688168
  0
VERTEX
  8
MSgnd
 10
18.818899
 20
10.682899
  0
VERTEX
  8
MSgnd
 10
18.811600
 20
10.678250
  0
VERTEX
  8
MSgnd
 10
18.803924
 20
10.674254
  0
VERTEX
  8
MSgnd
 10
18.795928
 20
10.670942
  0
VERTEX
  8
MSgnd
 10
18.787675
 20
10.668339
  0
VERTEX
  8
MSgnd
 10
18.779226
 20
10.666466
  0
VERTEX
  8
MSgnd
 10
18.770646
 20
10.665337
  0
VERTEX
  8
MSgnd
 10
18.762000
 20
10.664959
  0
VERTEX
  8
MSgnd
 10
18.762000
 20
10.663359
  0
VERTEX
  8
MSgnd
 10
18.770785
 20
10.663743
  0
VERTEX
  8
MSgnd
 10
18.779504
 20
10.664891
  0
VERTEX
  8
MSgnd
 10
18.788089
 20
10.666794
  0
VERTEX
  8
MSgnd
 10
18.796476
 20
10.669438
  0
VERTEX
  8
MSgnd
 10
18.804600
 20
10.672803
  0
VERTEX
  8
MSgnd
 10
18.812400
 20
10.676864
  0
VERTEX
  8
MSgnd
 10
18.819817
 20
10.681589
  0
VERTEX
  8
MSgnd
 10
18.826793
 20
10.686942
  0
VERTEX
  8
MSgnd
 10
18.833276
 20
10.692883
  0
VERTEX
  8
MSgnd
 10
18.839217
 20
10.699366
  0
VERTEX
  8
MSgnd
 10
18.844571
 20
10.706343
  0
VERTEX
  8
MSgnd
 10
18.849295
 20
10.713759
  0
VERTEX
  8
MSgnd
 10
18.853356
 20
10.721559
  0
VERTEX
  8
MSgnd
 10
18.856721
 20
10.729684
  0
VERTEX
  8
MSgnd
 10
18.859365
 20
10.738070
  0
VERTEX
  8
MSgnd
 10
18.861269
 20
10.746656
  0
VERTEX
  8
MSgnd
 10
18.862416
 20
10.755374
  0
VERTEX
  8
MSgnd
 10
18.862800
 20
10.764159
  0
VERTEX
  8
MSgnd
 10
18.861200
 20
10.764159
  0
SEQEND
  0
POLYLINE
  8
MSgnd
  6
CONTINUOUS
 66
1
 10
0.0
 20
0.0
 70
1
  0
VERTEX
  8
MSgnd
 10
18.862800
 20
10.764159
  0
VERTEX
  8
MSgnd
 10
18.862800
 20
11.650000
  0
VERTEX
  8
MSgnd
 10
18.861200
 20
11.650000
  0
VERTEX
  8
MSgnd
 10
18.861200
 20
10.764159
  0
VERTEX
  8
MSgnd
 10
18.862800
 20
10.764159
  0
SEQEND
  0
POLYLINE
  8
MSgnd
  6
CONTINUOUS
 66
1
 10
0.0
 20
0.0
 70
1
  0
VERTEX
  8
MSgnd
 10
18.962000
 20
11.749200
  0
VERTEX
  8
MSgnd
 10
18.953354
 20
11.748823
  0
VERTEX
  8
MSgnd
 10
18.944774
 20
11.747693
  0
VERTEX
  8
MSgnd
 10
18.936325
 20
11.745820
  0
VERTEX
  8
MSgnd
 10
18.928072
 20
11.743218
  0
VERTEX
  8
MSgnd
 10
18.920076
 20
11.739906
  0
VERTEX
  8
MSgnd
 10
18.912400
 20
11.735910
  0
VERTEX
  8
MSgnd
 10
18.905101
 20
11.731260
  0
VERTEX
  8
MSgnd
 10
18.898235
 20
11.725992
  0
VERTEX
  8
MSgnd
 10
18.891855
 20
11.720145
  0
VERTEX
  8
MSgnd
 10
18.886008
 20
11.713765
  0
VERTEX
  8
MSgnd
 10
18.880740
 20
11.706899
  0
VERTEX
  8
MSgnd
 10
18.876090
 20
11.699600
  0
VERTEX
  8
MSgnd
 10
18.872094
 20
11.691924
  0
VERTEX
  8
MSgnd
 10
18.868782
 20
11.683928
  0
VERTEX
  8
MSgnd
 10
18.866180
 20
11.675675
  0
VERTEX
  8
MSgnd
 10
18.864307
 20
11.667226
  0
VERTEX
  8
MSgnd
 10
18.863177
 20
11.658646
  0
VERTEX
  8
MSgnd
 10
18.862800
 20
11.650000
  0
VERTEX
  8
MSgnd
 10
18.861200
 20
11.650000
  0
VERTEX
  8
MSgnd
 10
18.861584
 20
11.658785
  0
VERTEX
  8
MSgnd
 10
18.862731
 20
11.667504
  0
VERTEX
  8
MSgnd
 10
18.864635
 20
11.676089
  0
VERTEX
  8
MSgnd
 10
18.867279
 20
11.684476
  0
VERTEX
  8
MSgnd
 10
18.870644
 20
11.692600
  0
VERTEX
  8
MSgnd
 10
18.874705
 20
11.700400
  0
VERTEX
  8
MSgnd
 10
18.879429
 20
11.707817
  0
VERTEX
  8
MSgnd
 10
18.884783
 20
11.714793
  0
VERTEX
  8
MSgnd
 10
18.890724
 20
11.721276
  0
VERTEX
  8
MSgnd
 10
18.897207
 20
11.727217
  0
VERTEX
  8
MSgnd
 10
18.904183
 20
11.732571
  0
VERTEX
  8
MSgnd
 10
18.911600
 20
11.737295
  0
VERTEX
  8
MSgnd
 10
18.919400
 20
11.741356
  0
VERTEX
  8
MSgnd
 10
18.927524
 20
11.744721
  0
VERTEX
  8
MSgnd
 10
18.935911
 20
11.747365
  0
VERTEX
  8
MSgnd
 10
18.944496
 20
11.749269
  0
VERTEX
  8
MSgnd
 10
18.953215
 20
11.750416
  0
VERTEX
  8
MSgnd
 10
18.962000
 20
11.750800
  0
VERTEX
  8
MSgnd
 10
18.962000
 20
11.749200
  0
SEQEND
  0
POLYLINE
  8
MSgnd
  6
CONTINUOUS
 66
1
 10
0.0
 20
0.0
 70
1
  0
VERTEX
  8
MSgnd
 10
18.962000
 20
11.749200
  0
VERTEX
  8
MSgnd
 10
19.062000
 20
11.749200
  0
VERTEX
  8
MSgnd
 10
19.062000
 20
11.750800
  0
VERTEX
  8
MSgnd
 10
18.962000
 20
11.750800
  0
VERTEX
  8
MSgnd
 10
18.962000
 20
11.749200
  0
SEQEND
  0
POLYLINE
  8
MSgnd
  6
CONTINUOUS
 66
1
 10
0.0
 20
0.0
 70
1
  0
VERTEX
  8
MSgnd
 10
19.062000
 20
11.748400
  0
VERTEX
  8
MSgnd
 10
19.038000
 20
11.748400
  0
VERTEX
  8
MSgnd
 10
19.038000
 20
11.746800
  0
VERTEX
  8
MSgnd
 10
19.062000
 20
11.746800
  0
VERTEX
  8
MSgnd
 10
19.062000
 20
11.748400
  0
SEQEND
  0
POLYLINE
  8
MSgnd
  6
CONTINUOUS
 66
1
 10
0.0
 20
0.0
 70
1
  0
VERTEX
  8
MSgnd
 10
19.034100
 20
11.742900
  0
VERTEX
  8
MSgnd
 10
19.034115
 20
11.743240
  0
VERTEX
  8
MSgnd
 10
19.034159
 20
11.743577
  0
VERTEX
  8
MSgnd
 10
19.034233
 20
11.743909
  0
VERTEX
  8
MSgnd
 10
19.034335
 20
11.744234
  0
VERTEX
  8
MSgnd
 10
19.034465
 20
11.744548
  0
VERTEX
  8
MSgnd
 10
19.034623
 20
11.744850
  0
VERTEX
  8
MSgnd
 10
19.034805
 20
11.745137
  0
VERTEX
  8
MSgnd
 10
19.035012
 20
11.745407
  0
VERTEX
  8
MSgnd
 10
19.035242
 20
11.745658
  0
VERTEX
  8
MSgnd
 10
19.035493
 20
11.745888
  0
VERTEX
  8
MSgnd
 10
19.035763
 20
11.746095
  0
VERTEX
  8
MSgnd
 10
19.036050
 20
11.746277
  0
VERTEX
  8
MSgnd
 10
19.036352
 20
11.746435
  0
VERTEX
  8
MSgnd
 10
19.036666
 20
11.746565
  0
VERTEX
  8
MSgnd
 10
19.036991
 20
11.746667
  0
VERTEX
  8
MSgnd
 10
19.037323
 20
11.746741
  0
VERTEX
  8
MSgnd
 10
19.037660
 20
11.746785
  0
VERTEX
  8
MSgnd
 10
19.038000
 20
11.746800
  0
VERTEX
  8
MSgnd
 10
19.038000
 20
11.748400
  0
VERTEX
  8
MSgnd
 10
19.037521
 20
11.748379
  0
VERTEX
  8
MSgnd
 10
19.037045
 20
11.748316
  0
VERTEX
  8
MSgnd
 10
19.036576
 20
11.748213
  0
VERTEX
  8
MSgnd
 10
19.036119
 20
11.748068
  0
VERTEX
  8
MSgnd
 10
19.035676
 20
11.747885
  0
VERTEX
  8
MSgnd
 10
19.035250
 20
11.747663
  0
VERTEX
  8
MSgnd
 10
19.034845
 20
11.747405
  0
VERTEX
  8
MSgnd
 10
19.034465
 20
11.747113
  0
VERTEX
  8
MSgnd
 10
19.034111
 20
11.746789
  0
VERTEX
  8
MSgnd
 10
19.033787
 20
11.746435
  0
VERTEX
  8
MSgnd
 10
19.033495
 20
11.746055
  0
VERTEX
  8
MSgnd
 10
19.033237
 20
11.745650
  0
VERTEX
  8
MSgnd
 10
19.033015
 20
11.745224
  0
VERTEX
  8
MSgnd
 10
19.032832
 20
11.744781
  0
VERTEX
  8
MSgnd
 10
19.032687
 20
11.744324
  0
VERTEX
  8
MSgnd
 10
19.032584
 20
11.743855
  0
VERTEX
  8
MSgnd
 10
19.032521
 20
11.743379
  0
VERTEX
  8
MSgnd
 10
19.032500
 20
11.742900
  0
VERTEX
  8
MSgnd
 10
19.034100
 20
11.742900
  0
SEQEND
  0
POLYLINE
  8
MSgnd
  6
CONTINUOUS
 66
1
 10
0.0
 20
0.0
 70
1
  0
VERTEX
  8
MSgnd
 10
19.032500
 20
11.742900
  0
VERTEX
  8
MSgnd
 10
19.032500
 20
11.705900
  0
VERTEX
  8
MSgnd
 10
19.034100
 20
11.705900
  0
VERTEX
  8
MSgnd
 10
19.034100
 20
11.742900
  0
VERTEX
  8
MSgnd
 10
19.032500
 20
11.742900
  0
SEQEND
  0
POLYLINE
  8
MSgnd
  6
CONTINUOUS
 66
1
 10
0.0
 20
0.0
 70
1
  0
VERTEX
  8
MSgnd
 10
19.032500
 20
11.705900
  0
VERTEX
  8
MSgnd
 10
19.032500
 20
11.695900
  0
VERTEX
  8
MSgnd
 10
19.034100
 20
11.695900
  0
VERTEX
  8
MSgnd
 10
19.034100
 20
11.705900
  0
VERTEX
  8
MSgnd
 10
19.032500
 20
11.705900
  0
SEQEND
  0
POLYLINE
  8
MSgnd
  6
CONTINUOUS
 66
1
 10
0.0
 20
0.0
 70
1
  0
VERTEX
  8
MSgnd
 10
19.065900
 20
11.742900
  0
VERTEX
  8
MSgnd
 10
19.065885
 20
11.743240
  0
VERTEX
  8
MSgnd
 10
19.065841
 20
11.743577
  0
VERTEX
  8
MSgnd
 10
19.065767
 20
11.743909
  0
VERTEX
  8
MSgnd
 10
19.065665
 20
11.744234
  0
VERTEX
  8
MSgnd
 10
19.065535
 20
11.744548
  0
VERTEX
  8
MSgnd
 10
19.065377
 20
11.744850
  0
VERTEX
  8
MSgnd
 10
19.065195
 20
11.745137
  0
VERTEX
  8
MSgnd
 10
19.064988
 20
11.745407
  0
VERTEX
  8
MSgnd
 10
19.064758
 20
11.745658
  0
VERTEX
  8
MSgnd
 10
19.064507
 20
11.745888
  0
VERTEX
  8
MSgnd
 10
19.064237
 20
11.746095
  0
VERTEX
  8
MSgnd
 10
19.063950
 20
11.746277
  0
VERTEX
  8
MSgnd
 10
19.063648
 20
11.746435
  0
VERTEX
  8
MSgnd
 10
19.063334
 20
11.746565
  0
VERTEX
  8
MSgnd
 10
19.063009
 20
11.746667
  0
VERTEX
  8
MSgnd
 10
19.062677
 20
11.746741
  0
VERTEX
  8
MSgnd
 10
19.062340
 20
11.746785
  0
VERTEX
  8
MSgnd
 10
19.062000
 20
11.746800
  0
VERTEX
  8
MSgnd
 10
19.062000
 20
11.748400
  0
VERTEX
  8
MSgnd
 10
19.062479
 20
11.748379
  0
VERTEX
  8
MSgnd
 10
19.062955
 20
11.748316
  0
VERTEX
  8
MSgnd
 10
19.063424
 20
11.748213
  0
VERTEX
  8
MSgnd
 10
19.063881
 20
11.748068
  0
VERTEX
  8
MSgnd
 10
19.064324
 20
11.747885
  0
VERTEX
  8
MSgnd
 10
19.064750
 20
11.747663
  0
VERTEX
  8
MSgnd
 10
19.065155
 20
11.747405
  0
VERTEX
  8
MSgnd
 10
19.065535
 20
11.747113
  0
VERTEX
  8
MSgnd
 10
19.065889
 20
11.746789
  0
VERTEX
  8
MSgnd
 10
19.066213
 20
11.746435
  0
VERTEX
  8
MSgnd
 10
19.066505
 20
11.746055
  0
VERTEX
  8
MSgnd
 10
19.066763
 20
11.745650
  0
VERTEX
  8
MSgnd
 10
19.066985
 20
11.745224
  0
VERTEX
  8
MSgnd
 10
19.067168
 20
11.744781
  0
VERTEX
  8
MSgnd
 10
19.067313
 20
11.744324
  0
VERTEX
  8
MSgnd
 10
19.067416
 20
11.743855
  0
VERTEX
  8
MSgnd
 10
19.067479
 20
11.743379
  0
VERTEX
  8
MSgnd
 10
19.067500
 20
11.742900
  0
VERTEX
  8
MSgnd
 10
19.065900
 20
11.742900
  0
SEQEND
  0
POLYLINE
  8
MSgnd
  6
CONTINUOUS
 66
1
 10
0.0
 20
0.0
 70
1
  0
VERTEX
  8
MSgnd
 10
19.065900
 20
11.742900
  0
VERTEX
  8
MSgnd
 10
19.065900
 20
11.708900
  0
VERTEX
  8
MSgnd
 10
19.067500
 20
11.708900
  0
VERTEX
  8
MSgnd
 10
19.067500
 20
11.742900
  0
VERTEX
  8
MSgnd
 10
19.065900
 20
11.742900
  0
SEQEND
  0
POLYLINE
  8
MSgnd
  6
CONTINUOUS
 66
1
 10
0.0
 20
0.0
 70
1
  0
VERTEX
  8
MSgnd
 10
19.065900
 20
11.708900
  0
VERTEX
  8
MSgnd
 10
19.063700
 20
11.696900
  0
VERTEX
  8
MSgnd
 10
19.069700
 20
11.696900
  0
VERTEX
  8
MSgnd
 10
19.067500
 20
11.708900
  0
VERTEX
  8
MSgnd
 10
19.065900
 20
11.708900
  0
SEQEND
  0
POLYLINE
  8
MSgnd
  6
CONTINUOUS
 66
1
 10
0.0
 20
0.0
 70
1
  0
VERTEX
  8
MSgnd
 10
19.063700
 20
11.696900
  0
VERTEX
  8
MSgnd
 10
19.063700
 20
11.689900
  0
VERTEX
  8
MSgnd
 10
19.069700
 20
11.689900
  0
VERTEX
  8
MSgnd
 10
19.069700
 20
11.696900
  0
VERTEX
  8
MSgnd
 10
19.063700
 20
11.696900
  0
SEQEND
  0
POLYLINE
  8
MSgnd
  6
CONTINUOUS
 66
1
 10
0.0
 20
0.0
 70
1
  0
VERTEX
  8
MSgnd
 10
19.065900
 20
11.708900
  0
VERTEX
  8
MSgnd
 10
19.065800
 20
11.703900
  0
VERTEX
  8
MSgnd
 10
19.067600
 20
11.703900
  0
VERTEX
  8
MSgnd
 10
19.067500
 20
11.708900
  0
VERTEX
  8
MSgnd
 10
19.065900
 20
11.708900
  0
SEQEND
  0
POLYLINE
  8
MSgnd
  6
CONTINUOUS
 66
1
 10
0.0
 20
0.0
 70
1
  0
VERTEX
  8
MSgnd
 10
19.065700
 20
11.703900
  0
VERTEX
  8
MSgnd
 10
19.065700
 20
11.696900
  0
VERTEX
  8
MSgnd
 10
19.067700
 20
11.696900
  0
VERTEX
  8
MSgnd
 10
19.067700
 20
11.703900
  0
VERTEX
  8
MSgnd
 10
19.065700
 20
11.703900
  0
SEQEND
  0
POLYLINE
  8
MSgnd
  6
CONTINUOUS
 66
1
 10
0.0
 20
0.0
 70
1
  0
VERTEX
  8
MSgnd
 10
19.063700
 20
11.696900
  0
VERTEX
  8
MSgnd
 10
19.063700
 20
10.140095
  0
VERTEX
  8
MSgnd
 10
19.069700
 20
10.140095
  0
VERTEX
  8
MSgnd
 10
19.069700
 20
11.696900
  0
VERTEX
  8
MSgnd
 10
19.063700
 20
11.696900
  0
SEQEND
  0
POLYLINE
  8
MSgnd
  6
CONTINUOUS
 66
1
 10
0.0
 20
0.0
 70
1
  0
VERTEX
  8
MSgnd
 10
19.065850
 20
10.140095
  0
VERTEX
  8
MSgnd
 10
19.065150
 20
10.133095
  0
VERTEX
  8
MSgnd
 10
19.068250
 20
10.133095
  0
VERTEX
  8
MSgnd
 10
19.067550
 20
10.140095
  0
VERTEX
  8
MSgnd
 10
19.065850
 20
10.140095
  0
SEQEND
  0
POLYLINE
  8
MSgnd
  6
CONTINUOUS
 66
1
 10
0.0
 20
0.0
 70
1
  0
VERTEX
  8
MSgnd
 10
19.066700
 20
10.140095
  0
VERTEX
  8
MSgnd
 10
19.069700
 20
10.140095
  0
VERTEX
  8
MSgnd
 10
19.085600
 20
10.119095
  0
VERTEX
  8
MSgnd
 10
19.069800
 20
10.119095
  0
VERTEX
  8
MSgnd
 10
19.066700
 20
10.140095
  0
SEQEND
  0
POLYLINE
  8
MSgnd
  6
CONTINUOUS
 66
1
 10
0.0
 20
0.0
 70
1
  0
VERTEX
  8
MSgnd
 10
19.066700
 20
10.140095
  0
VERTEX
  8
MSgnd
 10
19.063700
 20
10.140095
  0
VERTEX
  8
MSgnd
 10
19.047800
 20
10.119095
  0
VERTEX
  8
MSgnd
 10
19.063600
 20
10.119095
  0
VERTEX
  8
MSgnd
 10
19.066700
 20
10.140095
  0
SEQEND
  0
POLYLINE
  8
MSgnd
  6
CONTINUOUS
 66
1
 10
0.0
 20
0.0
 70
1
  0
VERTEX
  8
MSgnd
 10
19.069800
 20
10.119095
  0
VERTEX
  8
MSgnd
 10
19.069800
 20
10.098095
  0
VERTEX
  8
MSgnd
 10
19.085600
 20
10.098095
  0
VERTEX
  8
MSgnd
 10
19.085600
 20
10.119095
  0
VERTEX
  8
MSgnd
 10
19.069800
 20
10.119095
  0
SEQEND
  0
POLYLINE
  8
MSgnd
  6
CONTINUOUS
 66
1
 10
0.0
 20
0.0
 70
1
  0
VERTEX
  8
MSgnd
 10
19.047800
 20
10.119095
  0
VERTEX
  8
MSgnd
 10
19.047800
 20
10.098095
  0
VERTEX
  8
MSgnd
 10
19.063600
 20
10.098095
  0
VERTEX
  8
MSgnd
 10
19.063600
 20
10.119095
  0
VERTEX
  8
MSgnd
 10
19.047800
 20
10.119095
  0
SEQEND
  0
POLYLINE
  8
MSgnd
  6
CONTINUOUS
 66
1
 10
0.0
 20
0.0
 70
1
  0
VERTEX
  8
MSgnd
 10
19.069800
 20
10.098095
  0
VERTEX
  8
MSgnd
 10
19.069800
 20
6.916007
  0
VERTEX
  8
MSgnd
 10
19.085600
 20
6.916007
  0
VERTEX
  8
MSgnd
 10
19.085600
 20
10.098095
  0
VERTEX
  8
MSgnd
 10
19.069800
 20
10.098095
  0
SEQEND
  0
POLYLINE
  8
MSgnd
  6
CONTINUOUS
 66
1
 10
0.0
 20
0.0
 70
1
  0
VERTEX
  8
MSgnd
 10
19.047800
 20
10.098095
  0
VERTEX
  8
MSgnd
 10
19.047800
 20
6.916007
  0
VERTEX
  8
MSgnd
 10
19.063600
 20
6.916007
  0
VERTEX
  8
MSgnd
 10
19.063600
 20
10.098095
  0
VERTEX
  8
MSgnd
 10
19.047800
 20
10.098095
  0
SEQEND
  0
POLYLINE
  8
MSgnd
  6
CONTINUOUS
 66
1
 10
0.0
 20
0.0
 70
1
  0
VERTEX
  8
MSgnd
 10
19.047800
 20
6.916007
  0
VERTEX
  8
MSgnd
 10
19.047800
 20
6.900207
  0
VERTEX
  8
MSgnd
 10
19.085600
 20
6.900207
  0
VERTEX
  8
MSgnd
 10
19.085600
 20
6.916007
  0
VERTEX
  8
MSgnd
 10
19.047800
 20
6.916007
  0
SEQEND
  0
POLYLINE
  8
MSgnd
  6
CONTINUOUS
 66
1
 10
0.0
 20
0.0
 70
1
  0
VERTEX
  8
MSgnd
 10
41.000000
 20
12.109600
  0
VERTEX
  8
MSgnd
 10
41.000000
 20
12.117400
  0
VERTEX
  8
MSgnd
 10
41.500000
 20
12.625000
  0
VERTEX
  8
MSgnd
 10
41.500000
 20
12.400000
  0
VERTEX
  8
MSgnd
 10
41.000000
 20
12.109600
  0
SEQEND
  0
POLYLINE
  8
MSgnd
  6
CONTINUOUS
 66
1
 10
0.0
 20
0.0
 70
1
  0
VERTEX
  8
MSgnd
 10
41.000000
 20
12.090400
  0
VERTEX
  8
MSgnd
 10
41.000000
 20
12.082600
  0
VERTEX
  8
MSgnd
 10
41.500000
 20
11.575000
  0
VERTEX
  8
MSgnd
 10
41.500000
 20
11.800000
  0
VERTEX
  8
MSgnd
 10
41.000000
 20
12.090400
  0
SEQEND
  0
POLYLINE
  8
MSgnd
  6
CONTINUOUS
 66
1
 10
0.0
 20
0.0
 70
1
  0
VERTEX
  8
MSgnd
 10
41.500000
 20
12.400000
  0
VERTEX
  8
MSgnd
 10
41.900000
 20
12.400000
  0
VERTEX
  8
MSgnd
 10
41.900000
 20
12.625000
  0
VERTEX
  8
MSgnd
 10
41.500000
 20
12.625000
  0
VERTEX
  8
MSgnd
 10
41.500000
 20
12.400000
  0
SEQEND
  0
POLYLINE
  8
MSgnd
  6
CONTINUOUS
 66
1
 10
0.0
 20
0.0
 70
1
  0
VERTEX
  8
MSgnd
 10
41.500000
 20
11.575000
  0
VERTEX
  8
MSgnd
 10
41.900000
 20
11.575000
  0
VERTEX
  8
MSgnd
 10
41.900000
 20
11.800000
  0
VERTEX
  8
MSgnd
 10
41.500000
 20
11.800000
  0
VERTEX
  8
MSgnd
 10
41.500000
 20
11.575000
  0
SEQEND
  0
POLYLINE
  8
MSgnd
  6
CONTINUOUS
 66
1
 10
0.0
 20
0.0
 70
1
  0
VERTEX
  8
MSgnd
 10
41.900000
 20
12.625000
  0
VERTEX
  8
MSgnd
 10
41.850000
 20
12.625000
  0
VERTEX
  8
MSgnd
 10
41.850000
 20
11.575000
  0
VERTEX
  8
MSgnd
 10
41.900000
 20
11.575000
  0
VERTEX
  8
MSgnd
 10
41.900000
 20
12.625000
  0
SEQEND
  0
POLYLINE
  8
MSgnd
  6
CONTINUOUS
 66
1
 10
0.0
 20
0.0
 70
1
  0
VERTEX
  8
MSgnd
 10
41.000000
 20
12.090400
  0
VERTEX
  8
MSgnd
 10
40.100000
 20
12.090400
  0
VERTEX
  8
MSgnd
 10
40.100000
 20
12.082600
  0
VERTEX
  8
MSgnd
 10
41.000000
 20
12.082600
  0
VERTEX
  8
MSgnd
 10
41.000000
 20
12.090400
  0
SEQEND
  0
POLYLINE
  8
MSgnd
  6
CONTINUOUS
 66
1
 10
0.0
 20
0.0
 70
1
  0
VERTEX
  8
MSgnd
 10
41.000000
 20
12.117400
  0
VERTEX
  8
MSgnd
 10
40.100000
 20
12.117400
  0
VERTEX
  8
MSgnd
 10
40.100000
 20
12.109600
  0
VERTEX
  8
MSgnd
 10
41.000000
 20
12.109600
  0
VERTEX
  8
MSgnd
 10
41.000000
 20
12.117400
  0
SEQEND
  0
POLYLINE
  8
MSgnd
  6
CONTINUOUS
 66
1
 10
0.0
 20
0.0
 70
1
  0
VERTEX
  8
MSgnd
 10
40.110000
 20
12.164900
  0
VERTEX
  8
MSgnd
 10
40.090000
 20
12.164900
  0
VERTEX
  8
MSgnd
 10
40.090000
 20
12.035100
  0
VERTEX
  8
MSgnd
 10
40.110000
 20
12.035100
  0
VERTEX
  8
MSgnd
 10
40.110000
 20
12.164900
  0
SEQEND
  0
POLYLINE
  8
MSgnd
  6
CONTINUOUS
 66
1
 10
0.0
 20
0.0
 70
1
  0
VERTEX
  8
MSgnd
 10
40.017400
 20
12.000000
  0
VERTEX
  8
MSgnd
 10
40.017714
 20
12.007199
  0
VERTEX
  8
MSgnd
 10
40.018655
 20
12.014343
  0
VERTEX
  8
MSgnd
 10
40.020215
 20
12.021378
  0
VERTEX
  8
MSgnd
 10
40.022381
 20
12.028251
  0
VERTEX
  8
MSgnd
 10
40.025139
 20
12.034908
  0
VERTEX
  8
MSgnd
 10
40.028466
 20
12.041300
  0
VERTEX
  8
MSgnd
 10
40.032338
 20
12.047377
  0
VERTEX
  8
MSgnd
 10
40.036725
 20
12.053094
  0
VERTEX
  8
MSgnd
 10
40.041593
 20
12.058407
  0
VERTEX
  8
MSgnd
 10
40.046906
 20
12.063275
  0
VERTEX
  8
MSgnd
 10
40.052623
 20
12.067662
  0
VERTEX
  8
MSgnd
 10
40.058700
 20
12.071534
  0
VERTEX
  8
MSgnd
 10
40.065092
 20
12.074861
  0
VERTEX
  8
MSgnd
 10
40.071749
 20
12.077619
  0
VERTEX
  8
MSgnd
 10
40.078622
 20
12.079785
  0
VERTEX
  8
MSgnd
 10
40.085657
 20
12.081345
  0
VERTEX
  8
MSgnd
 10
40.092801
 20
12.082286
  0
VERTEX
  8
MSgnd
 10
40.100000
 20
12.082600
  0
VERTEX
  8
MSgnd
 10
40.100000
 20
12.090400
  0
VERTEX
  8
MSgnd
 10
40.092121
 20
12.090056
  0
VERTEX
  8
MSgnd
 10
40.084302
 20
12.089027
  0
VERTEX
  8
MSgnd
 10
40.076603
 20
12.087320
  0
VERTEX
  8
MSgnd
 10
40.069081
 20
12.084948
  0
VERTEX
  8
MSgnd
 10
40.061795
 20
12.081930
  0
VERTEX
  8
MSgnd
 10
40.054800
 20
12.078289
  0
VERTEX
  8
MSgnd
 10
40.048149
 20
12.074051
  0
VERTEX
  8
MSgnd
 10
40.041892
 20
12.069250
  0
VERTEX
  8
MSgnd
 10
40.036078
 20
12.063922
  0
VERTEX
  8
MSgnd
 10
40.030750
 20
12.058108
  0
VERTEX
  8
MSgnd
 10
40.025949
 20
12.051851
  0
VERTEX
  8
MSgnd
 10
40.021711
 20
12.045200
  0
VERTEX
  8
MSgnd
 10
40.018070
 20
12.038205
  0
VERTEX
  8
MSgnd
 10
40.015052
 20
12.030919
  0
VERTEX
  8
MSgnd
 10
40.012680
 20
12.023397
  0
VERTEX
  8
MSgnd
 10
40.010973
 20
12.015698
  0
VERTEX
  8
MSgnd
 10
40.009944
 20
12.007879
  0
VERTEX
  8
MSgnd
 10
40.009600
 20
12.000000
  0
VERTEX
  8
MSgnd
 10
40.017400
 20
12.000000
  0
SEQEND
  0
POLYLINE
  8
MSgnd
  6
CONTINUOUS
 66
1
 10
0.0
 20
0.0
 70
1
  0
VERTEX
  8
MSgnd
 10
39.990400
 20
12.000000
  0
VERTEX
  8
MSgnd
 10
39.990817
 20
12.009552
  0
VERTEX
  8
MSgnd
 10
39.992065
 20
12.019032
  0
VERTEX
  8
MSgnd
 10
39.994135
 20
12.028367
  0
VERTEX
  8
MSgnd
 10
39.997010
 20
12.037485
  0
VERTEX
  8
MSgnd
 10
40.000669
 20
12.046319
  0
VERTEX
  8
MSgnd
 10
40.005084
 20
12.054800
  0
VERTEX
  8
MSgnd
 10
40.010221
 20
12.062864
  0
VERTEX
  8
MSgnd
 10
40.016042
 20
12.070450
  0
VERTEX
  8
MSgnd
 10
40.022501
 20
12.077499
  0
VERTEX
  8
MSgnd
 10
40.029550
 20
12.083958
  0
VERTEX
  8
MSgnd
 10
40.037136
 20
12.089779
  0
VERTEX
  8
MSgnd
 10
40.045200
 20
12.094916
  0
VERTEX
  8
MSgnd
 10
40.053681
 20
12.099331
  0
VERTEX
  8
MSgnd
 10
40.062515
 20
12.102990
  0
VERTEX
  8
MSgnd
 10
40.071633
 20
12.105865
  0
VERTEX
  8
MSgnd
 10
40.080968
 20
12.107935
  0
VERTEX
  8
MSgnd
 10
40.090448
 20
12.109183
  0
VERTEX
  8
MSgnd
 10
40.100000
 20
12.109600
  0
VERTEX
  8
MSgnd
 10
40.100000
 20
12.117400
  0
VERTEX
  8
MSgnd
 10
40.089768
 20
12.116953
  0
VERTEX
  8
MSgnd
 10
40.079614
 20
12.115616
  0
VERTEX
  8
MSgnd
 10
40.069615
 20
12.113400
  0
VERTEX
  8
MSgnd
 10
40.059847
 20
12.110320
  0
VERTEX
  8
MSgnd
 10
40.050385
 20
12.106401
  0
VERTEX
  8
MSgnd
 10
40.041300
 20
12.101671
  0
VERTEX
  8
MSgnd
 10
40.032662
 20
12.096168
  0
VERTEX
  8
MSgnd
 10
40.024537
 20
12.089934
  0
VERTEX
  8
MSgnd
 10
40.016986
 20
12.083014
  0
VERTEX
  8
MSgnd
 10
40.010066
 20
12.075463
  0
VERTEX
  8
MSgnd
 10
40.003832
 20
12.067338
  0
VERTEX
  8
MSgnd
 10
39.998329
 20
12.058700
  0
VERTEX
  8
MSgnd
 10
39.993599
 20
12.049615
  0
VERTEX
  8
MSgnd
 10
39.989680
 20
12.040153
  0
VERTEX
  8
MSgnd
 10
39.986600
 20
12.030385
  0
VERTEX
  8
MSgnd
 10
39.984384
 20
12.020386
  0
VERTEX
  8
MSgnd
 10
39.983047
 20
12.010232
  0
VERTEX
  8
MSgnd
 10
39.982600
 20
12.000000
  0
VERTEX
  8
MSgnd
 10
39.990400
 20
12.000000
  0
SEQEND
  0
POLYLINE
  8
MSgnd
  6
CONTINUOUS
 66
1
 10
0.0
 20
0.0
 70
1
  0
VERTEX
  8
MSgnd
 10
39.935100
 20
12.010000
  0
VERTEX
  8
MSgnd
 10
39.935100
 20
11.990000
  0
VERTEX
  8
MSgnd
 10
40.064900
 20
11.990000
  0
VERTEX
  8
MSgnd
 10
40.064900
 20
12.010000
  0
VERTEX
  8
MSgnd
 10
39.935100
 20
12.010000
  0
SEQEND
  0
POLYLINE
  8
MSgnd
  6
CONTINUOUS
 66
1
 10
0.0
 20
0.0
 70
1
  0
VERTEX
  8
MSgnd
 10
40.009600
 20
12.000000
  0
VERTEX
  8
MSgnd
 10
40.009600
 20
10.000000
  0
VERTEX
  8
MSgnd
 10
40.017400
 20
10.000000
  0
VERTEX
  8
MSgnd
 10
40.017400
 20
12.000000
  0
VERTEX
  8
MSgnd
 10
40.009600
 20
12.000000
  0
SEQEND
  0
POLYLINE
  8
MSgnd
  6
CONTINUOUS
 66
1
 10
0.0
 20
0.0
 70
1
  0
VERTEX
  8
MSgnd
 10
39.982600
 20
12.000000
  0
VERTEX
  8
MSgnd
 10
39.982600
 20
10.000000
  0
VERTEX
  8
MSgnd
 10
39.990400
 20
10.000000
  0
VERTEX
  8
MSgnd
 10
39.990400
 20
12.000000
  0
VERTEX
  8
MSgnd
 10
39.982600
 20
12.000000
  0
SEQEND
  0
POLYLINE
  8
MSgnd
  6
CONTINUOUS
 66
1
 10
0.0
 20
0.0
 70
1
  0
VERTEX
  8
MSgnd
 10
39.935100
 20
10.010000
  0
VERTEX
  8
MSgnd
 10
39.935100
 20
9.990000
  0
VERTEX
  8
MSgnd
 10
40.064900
 20
9.990000
  0
VERTEX
  8
MSgnd
 10
40.064900
 20
10.010000
  0
VERTEX
  8
MSgnd
 10
39.935100
 20
10.010000
  0
SEQEND
  0
POLYLINE
  8
MSgnd
  6
CONTINUOUS
 66
1
 10
0.0
 20
0.0
 70
1
  0
VERTEX
  8
MSgnd
 10
40.009600
 20
10.000000
  0
VERTEX
  8
MSgnd
 10
40.009600
 20
8.000000
  0
VERTEX
  8
MSgnd
 10
40.017400
 20
8.000000
  0
VERTEX
  8
MSgnd
 10
40.017400
 20
10.000000
  0
VERTEX
  8
MSgnd
 10
40.009600
 20
10.000000
  0
SEQEND
  0
POLYLINE
  8
MSgnd
  6
CONTINUOUS
 66
1
 10
0.0
 20
0.0
 70
1
  0
VERTEX
  8
MSgnd
 10
39.982600
 20
10.000000
  0
VERTEX
  8
MSgnd
 10
39.982600
 20
8.000000
  0
VERTEX
  8
MSgnd
 10
39.990400
 20
8.000000
  0
VERTEX
  8
MSgnd
 10
39.990400
 20
10.000000
  0
VERTEX
  8
MSgnd
 10
39.982600
 20
10.000000
  0
SEQEND
  0
POLYLINE
  8
MSgnd
  6
CONTINUOUS
 66
1
 10
0.0
 20
0.0
 70
1
  0
VERTEX
  8
MSgnd
 10
39.935100
 20
8.010000
  0
VERTEX
  8
MSgnd
 10
39.935100
 20
7.990000
  0
VERTEX
  8
MSgnd
 10
40.064900
 20
7.990000
  0
VERTEX
  8
MSgnd
 10
40.064900
 20
8.010000
  0
VERTEX
  8
MSgnd
 10
39.935100
 20
8.010000
  0
SEQEND
  0
POLYLINE
  8
MSgnd
  6
CONTINUOUS
 66
1
 10
0.0
 20
0.0
 70
1
  0
VERTEX
  8
MSgnd
 10
40.009600
 20
8.000000
  0
VERTEX
  8
MSgnd
 10
40.009600
 20
6.000000
  0
VERTEX
  8
MSgnd
 10
40.017400
 20
6.000000
  0
VERTEX
  8
MSgnd
 10
40.017400
 20
8.000000
  0
VERTEX
  8
MSgnd
 10
40.009600
 20
8.000000
  0
SEQEND
  0
POLYLINE
  8
MSgnd
  6
CONTINUOUS
 66
1
 10
0.0
 20
0.0
 70
1
  0
VERTEX
  8
MSgnd
 10
39.982600
 20
8.000000
  0
VERTEX
  8
MSgnd
 10
39.982600
 20
6.000000
  0
VERTEX
  8
MSgnd
 10
39.990400
 20
6.000000
  0
VERTEX
  8
MSgnd
 10
39.990400
 20
8.000000
  0
VERTEX
  8
MSgnd
 10
39.982600
 20
8.000000
  0
SEQEND
  0
POLYLINE
  8
MSgnd
  6
CONTINUOUS
 66
1
 10
0.0
 20
0.0
 70
1
  0
VERTEX
  8
MSgnd
 10
39.935100
 20
6.010000
  0
VERTEX
  8
MSgnd
 10
39.935100
 20
5.990000
  0
VERTEX
  8
MSgnd
 10
40.064900
 20
5.990000
  0
VERTEX
  8
MSgnd
 10
40.064900
 20
6.010000
  0
VERTEX
  8
MSgnd
 10
39.935100
 20
6.010000
  0
SEQEND
  0
POLYLINE
  8
MSgnd
  6
CONTINUOUS
 66
1
 10
0.0
 20
0.0
 70
1
  0
VERTEX
  8
MSgnd
 10
40.009600
 20
6.000000
  0
VERTEX
  8
MSgnd
 10
40.009600
 20
5.200000
  0
VERTEX
  8
MSgnd
 10
40.017400
 20
5.200000
  0
VERTEX
  8
MSgnd
 10
40.017400
 20
6.000000
  0
VERTEX
  8
MSgnd
 10
40.009600
 20
6.000000
  0
SEQEND
  0
POLYLINE
  8
MSgnd
  6
CONTINUOUS
 66
1
 10
0.0
 20
0.0
 70
1
  0
VERTEX
  8
MSgnd
 10
39.982600
 20
6.000000
  0
VERTEX
  8
MSgnd
 10
39.982600
 20
5.200000
  0
VERTEX
  8
MSgnd
 10
39.990400
 20
5.200000
  0
VERTEX
  8
MSgnd
 10
39.990400
 20
6.000000
  0
VERTEX
  8
MSgnd
 10
39.982600
 20
6.000000
  0
SEQEND
  0
POLYLINE
  8
MSgnd
  6
CONTINUOUS
 66
1
 10
0.0
 20
0.0
 70
1
  0
VERTEX
  8
MSgnd
 10
39.935100
 20
5.210000
  0
VERTEX
  8
MSgnd
 10
39.935100
 20
5.190000
  0
VERTEX
  8
MSgnd
 10
40.064900
 20
5.190000
  0
VERTEX
  8
MSgnd
 10
40.064900
 20
5.210000
  0
VERTEX
  8
MSgnd
 10
39.935100
 20
5.210000
  0
SEQEND
  0
POLYLINE
  8
MSgnd
  6
CONTINUOUS
 66
1
 10
0.0
 20
0.0
 70
1
  0
VERTEX
  8
MSgnd
 10
39.900000
 20
5.117400
  0
VERTEX
  8
MSgnd
 10
39.907199
 20
5.117714
  0
VERTEX
  8
MSgnd
 10
39.914343
 20
5.118655
  0
VERTEX
  8
MSgnd
 10
39.921378
 20
5.120215
  0
VERTEX
  8
MSgnd
 10
39.928251
 20
5.122381
  0
VERTEX
  8
MSgnd
 10
39.934908
 20
5.125139
  0
VERTEX
  8
MSgnd
 10
39.941300
 20
5.128466
  0
VERTEX
  8
MSgnd
 10
39.947377
 20
5.132338
  0
VERTEX
  8
MSgnd
 10
39.953094
 20
5.136725
  0
VERTEX
  8
MSgnd
 10
39.958407
 20
5.141593
  0
VERTEX
  8
MSgnd
 10
39.963275
 20
5.146906
  0
VERTEX
  8
MSgnd
 10
39.967662
 20
5.152623
  0
VERTEX
  8
MSgnd
 10
39.971534
 20
5.158700
  0
VERTEX
  8
MSgnd
 10
39.974861
 20
5.165092
  0
VERTEX
  8
MSgnd
 10
39.977619
 20
5.171749
  0
VERTEX
  8
MSgnd
 10
39.979785
 20
5.178622
  0
VERTEX
  8
MSgnd
 10
39.981345
 20
5.185657
  0
VERTEX
  8
MSgnd
 10
39.982286
 20
5.192801
  0
VERTEX
  8
MSgnd
 10
39.982600
 20
5.200000
  0
VERTEX
  8
MSgnd
 10
39.990400
 20
5.200000
  0
VERTEX
  8
MSgnd
 10
39.990056
 20
5.192121
  0
VERTEX
  8
MSgnd
 10
39.989027
 20
5.184302
  0
VERTEX
  8
MSgnd
 10
39.987320
 20
5.176603
  0
VERTEX
  8
MSgnd
 10
39.984948
 20
5.169081
  0
VERTEX
  8
MSgnd
 10
39.981930
 20
5.161795
  0
VERTEX
  8
MSgnd
 10
39.978289
 20
5.154800
  0
VERTEX
  8
MSgnd
 10
39.974051
 20
5.148149
  0
VERTEX
  8
MSgnd
 10
39.969250
 20
5.141892
  0
VERTEX
  8
MSgnd
 10
39.963922
 20
5.136078
  0
VERTEX
  8
MSgnd
 10
39.958108
 20
5.130750
  0
VERTEX
  8
MSgnd
 10
39.951851
 20
5.125949
  0
VERTEX
  8
MSgnd
 10
39.945200
 20
5.121711
  0
VERTEX
  8
MSgnd
 10
39.938205
 20
5.118070
  0
VERTEX
  8
MSgnd
 10
39.930919
 20
5.115052
  0
VERTEX
  8
MSgnd
 10
39.923397
 20
5.112680
  0
VERTEX
  8
MSgnd
 10
39.915698
 20
5.110973
  0
VERTEX
  8
MSgnd
 10
39.907879
 20
5.109944
  0
VERTEX
  8
MSgnd
 10
39.900000
 20
5.109600
  0
VERTEX
  8
MSgnd
 10
39.900000
 20
5.117400
  0
SEQEND
  0
POLYLINE
  8
MSgnd
  6
CONTINUOUS
 66
1
 10
0.0
 20
0.0
 70
1
  0
VERTEX
  8
MSgnd
 10
39.900000
 20
5.090400
  0
VERTEX
  8
MSgnd
 10
39.909552
 20
5.090817
  0
VERTEX
  8
MSgnd
 10
39.919032
 20
5.092065
  0
VERTEX
  8
MSgnd
 10
39.928367
 20
5.094135
  0
VERTEX
  8
MSgnd
 10
39.937485
 20
5.097010
  0
VERTEX
  8
MSgnd
 10
39.946319
 20
5.100669
  0
VERTEX
  8
MSgnd
 10
39.954800
 20
5.105084
  0
VERTEX
  8
MSgnd
 10
39.962864
 20
5.110221
  0
VERTEX
  8
MSgnd
 10
39.970450
 20
5.116042
  0
VERTEX
  8
MSgnd
 10
39.977499
 20
5.122501
  0
VERTEX
  8
MSgnd
 10
39.983958
 20
5.129550
  0
VERTEX
  8
MSgnd
 10
39.989779
 20
5.137136
  0
VERTEX
  8
MSgnd
 10
39.994916
 20
5.145200
  0
VERTEX
  8
MSgnd
 10
39.999331
 20
5.153681
  0
VERTEX
  8
MSgnd
 10
40.002990
 20
5.162515
  0
VERTEX
  8
MSgnd
 10
40.005865
 20
5.171633
  0
VERTEX
  8
MSgnd
 10
40.007935
 20
5.180968
  0
VERTEX
  8
MSgnd
 10
40.009183
 20
5.190448
  0
VERTEX
  8
MSgnd
 10
40.009600
 20
5.200000
  0
VERTEX
  8
MSgnd
 10
40.017400
 20
5.200000
  0
VERTEX
  8
MSgnd
 10
40.016953
 20
5.189768
  0
VERTEX
  8
MSgnd
 10
40.015616
 20
5.179614
  0
VERTEX
  8
MSgnd
 10
40.013400
 20
5.169615
  0
VERTEX
  8
MSgnd
 10
40.010320
 20
5.159847
  0
VERTEX
  8
MSgnd
 10
40.006401
 20
5.150385
  0
VERTEX
  8
MSgnd
 10
40.001671
 20
5.141300
  0
VERTEX
  8
MSgnd
 10
39.996168
 20
5.132662
  0
VERTEX
  8
MSgnd
 10
39.989934
 20
5.124537
  0
VERTEX
  8
MSgnd
 10
39.983014
 20
5.116986
  0
VERTEX
  8
MSgnd
 10
39.975463
 20
5.110066
  0
VERTEX
  8
MSgnd
 10
39.967338
 20
5.103832
  0
VERTEX
  8
MSgnd
 10
39.958700
 20
5.098329
  0
VERTEX
  8
MSgnd
 10
39.949615
 20
5.093599
  0
VERTEX
  8
MSgnd
 10
39.940153
 20
5.089680
  0
VERTEX
  8
MSgnd
 10
39.930385
 20
5.086600
  0
VERTEX
  8
MSgnd
 10
39.920386
 20
5.084384
  0
VERTEX
  8
MSgnd
 10
39.910232
 20
5.083047
  0
VERTEX
  8
MSgnd
 10
39.900000
 20
5.082600
  0
VERTEX
  8
MSgnd
 10
39.900000
 20
5.090400
  0
SEQEND
  0
POLYLINE
  8
MSgnd
  6
CONTINUOUS
 66
1
 10
0.0
 20
0.0
 70
1
  0
VERTEX
  8
MSgnd
 10
39.910000
 20
5.164900
  0
VERTEX
  8
MSgnd
 10
39.890000
 20
5.164900
  0
VERTEX
  8
MSgnd
 10
39.890000
 20
5.035100
  0
VERTEX
  8
MSgnd
 10
39.910000
 20
5.035100
  0
VERTEX
  8
MSgnd
 10
39.910000
 20
5.164900
  0
SEQEND
  0
POLYLINE
  8
MSgnd
  6
CONTINUOUS
 66
1
 10
0.0
 20
0.0
 70
1
  0
VERTEX
  8
MSgnd
 10
19.099400
 20
6.900207
  0
VERTEX
  8
MSgnd
 10
19.099400
 20
7.227875
  0
VERTEX
  8
MSgnd
 10
19.091600
 20
7.227875
  0
VERTEX
  8
MSgnd
 10
19.091600
 20
6.900207
  0
VERTEX
  8
MSgnd
 10
19.099400
 20
6.900207
  0
SEQEND
  0
POLYLINE
  8
MSgnd
  6
CONTINUOUS
 66
1
 10
0.0
 20
0.0
 70
1
  0
VERTEX
  8
MSgnd
 10
19.126400
 20
6.900207
  0
VERTEX
  8
MSgnd
 10
19.126400
 20
7.227875
  0
VERTEX
  8
MSgnd
 10
19.118600
 20
7.227875
  0
VERTEX
  8
MSgnd
 10
19.118600
 20
6.900207
  0
VERTEX
  8
MSgnd
 10
19.126400
 20
6.900207
  0
SEQEND
  0
POLYLINE
  8
MSgnd
  6
CONTINUOUS
 66
1
 10
0.0
 20
0.0
 70
1
  0
VERTEX
  8
MSgnd
 10
19.209000
 20
7.310475
  0
VERTEX
  8
MSgnd
 10
19.201801
 20
7.310161
  0
VERTEX
  8
MSgnd
 10
19.194657
 20
7.309220
  0
VERTEX
  8
MSgnd
 10
19.187622
 20
7.307661
  0
VERTEX
  8
MSgnd
 10
19.180749
 20
7.305494
  0
VERTEX
  8
MSgnd
 10
19.174092
 20
7.302736
  0
VERTEX
  8
MSgnd
 10
19.167700
 20
7.299409
  0
VERTEX
  8
MSgnd
 10
19.161623
 20
7.295537
  0
VERTEX
  8
MSgnd
 10
19.155906
 20
7.291151
  0
VERTEX
  8
MSgnd
 10
19.150593
 20
7.286282
  0
VERTEX
  8
MSgnd
 10
19.145725
 20
7.280970
  0
VERTEX
  8
MSgnd
 10
19.141338
 20
7.275253
  0
VERTEX
  8
MSgnd
 10
19.137466
 20
7.269175
  0
VERTEX
  8
MSgnd
 10
19.134139
 20
7.262784
  0
VERTEX
  8
MSgnd
 10
19.131381
 20
7.256126
  0
VERTEX
  8
MSgnd
 10
19.129215
 20
7.249254
  0
VERTEX
  8
MSgnd
 10
19.127655
 20
7.242219
  0
VERTEX
  8
MSgnd
 10
19.126714
 20
7.235074
  0
VERTEX
  8
MSgnd
 10
19.126400
 20
7.227875
  0
VERTEX
  8
MSgnd
 10
19.118600
 20
7.227875
  0
VERTEX
  8
MSgnd
 10
19.118944
 20
7.235754
  0
VERTEX
  8
MSgnd
 10
19.119973
 20
7.243573
  0
VERTEX
  8
MSgnd
 10
19.121680
 20
7.251273
  0
VERTEX
  8
MSgnd
 10
19.124052
 20
7.258794
  0
VERTEX
  8
MSgnd
 10
19.127070
 20
7.266080
  0
VERTEX
  8
MSgnd
 10
19.130711
 20
7.273075
  0
VERTEX
  8
MSgnd
 10
19.134949
 20
7.279727
  0
VERTEX
  8
MSgnd
 10
19.139750
 20
7.285983
  0
VERTEX
  8
MSgnd
 10
19.145078
 20
7.291798
  0
VERTEX
  8
MSgnd
 10
19.150892
 20
7.297126
  0
VERTEX
  8
MSgnd
 10
19.157149
 20
7.301927
  0
VERTEX
  8
MSgnd
 10
19.163800
 20
7.306164
  0
VERTEX
  8
MSgnd
 10
19.170795
 20
7.309806
  0
VERTEX
  8
MSgnd
 10
19.178081
 20
7.312824
  0
VERTEX
  8
MSgnd
 10
19.185603
 20
7.315195
  0
VERTEX
  8
MSgnd
 10
19.193302
 20
7.316902
  0
VERTEX
  8
MSgnd
 10
19.201121
 20
7.317931
  0
VERTEX
  8
MSgnd
 10
19.209000
 20
7.318275
  0
VERTEX
  8
MSgnd
 10
19.209000
 20
7.310475
  0
SEQEND
  0
POLYLINE
  8
MSgnd
  6
CONTINUOUS
 66
1
 10
0.0
 20
0.0
 70
1
  0
VERTEX
  8
MSgnd
 10
19.209000
 20
7.337475
  0
VERTEX
  8
MSgnd
 10
19.199448
 20
7.337058
  0
VERTEX
  8
MSgnd
 10
19.189968
 20
7.335810
  0
VERTEX
  8
MSgnd
 10
19.180633
 20
7.333741
  0
VERTEX
  8
MSgnd
 10
19.171515
 20
7.330866
  0
VERTEX
  8
MSgnd
 10
19.162681
 20
7.327207
  0
VERTEX
  8
MSgnd
 10
19.154200
 20
7.322792
  0
VERTEX
  8
MSgnd
 10
19.146136
 20
7.317654
  0
VERTEX
  8
MSgnd
 10
19.138550
 20
7.311834
  0
VERTEX
  8
MSgnd
 10
19.131501
 20
7.305374
  0
VERTEX
  8
MSgnd
 10
19.125042
 20
7.298325
  0
VERTEX
  8
MSgnd
 10
19.119221
 20
7.290739
  0
VERTEX
  8
MSgnd
 10
19.114084
 20
7.282675
  0
VERTEX
  8
MSgnd
 10
19.109669
 20
7.274194
  0
VERTEX
  8
MSgnd
 10
19.106010
 20
7.265361
  0
VERTEX
  8
MSgnd
 10
19.103135
 20
7.256242
  0
VERTEX
  8
MSgnd
 10
19.101065
 20
7.246907
  0
VERTEX
  8
MSgnd
 10
19.099817
 20
7.237428
  0
VERTEX
  8
MSgnd
 10
19.099400
 20
7.227875
  0
VERTEX
  8
MSgnd
 10
19.091600
 20
7.227875
  0
VERTEX
  8
MSgnd
 10
19.092047
 20
7.238107
  0
VERTEX
  8
MSgnd
 10
19.093384
 20
7.248262
  0
VERTEX
  8
MSgnd
 10
19.095600
 20
7.258261
  0
VERTEX
  8
MSgnd
 10
19.098680
 20
7.268028
  0
VERTEX
  8
MSgnd
 10
19.102599
 20
7.277491
  0
VERTEX
  8
MSgnd
 10
19.107329
 20
7.286575
  0
VERTEX
  8
MSgnd
 10
19.112832
 20
7.295213
  0
VERTEX
  8
MSgnd
 10
19.119066
 20
7.303339
  0
VERTEX
  8
MSgnd
 10
19.125986
 20
7.310890
  0
VERTEX
  8
MSgnd
 10
19.133537
 20
7.317809
  0
VERTEX
  8
MSgnd
 10
19.141662
 20
7.324044
  0
VERTEX
  8
MSgnd
 10
19.150300
 20
7.329547
  0
VERTEX
  8
MSgnd
 10
19.159385
 20
7.334276
  0
VERTEX
  8
MSgnd
 10
19.168847
 20
7.338195
  0
VERTEX
  8
MSgnd
 10
19.178615
 20
7.341275
  0
VERTEX
  8
MSgnd
 10
19.188614
 20
7.343492
  0
VERTEX
  8
MSgnd
 10
19.198768
 20
7.344829
  0
VERTEX
  8
MSgnd
 10
19.209000
 20
7.345275
  0
VERTEX
  8
MSgnd
 10
19.209000
 20
7.337475
  0
SEQEND
  0
POLYLINE
  8
MSgnd
  6
CONTINUOUS
 66
1
 10
0.0
 20
0.0
 70
1
  0
VERTEX
  8
MSgnd
 10
19.199000
 20
7.262975
  0
VERTEX
  8
MSgnd
 10
19.219000
 20
7.262975
  0
VERTEX
  8
MSgnd
 10
19.219000
 20
7.392775
  0
VERTEX
  8
MSgnd
 10
19.199000
 20
7.392775
  0
VERTEX
  8
MSgnd
 10
19.199000
 20
7.262975
  0
SEQEND
  0
POLYLINE
  8
MSgnd
  6
CONTINUOUS
 66
1
 10
0.0
 20
0.0
 70
1
  0
VERTEX
  8
MSgnd
 10
19.291600
 20
7.227875
  0
VERTEX
  8
MSgnd
 10
19.291286
 20
7.235074
  0
VERTEX
  8
MSgnd
 10
19.290345
 20
7.242219
  0
VERTEX
  8
MSgnd
 10
19.288785
 20
7.249254
  0
VERTEX
  8
MSgnd
 10
19.286619
 20
7.256126
  0
VERTEX
  8
MSgnd
 10
19.283861
 20
7.262784
  0
VERTEX
  8
MSgnd
 10
19.280534
 20
7.269175
  0
VERTEX
  8
MSgnd
 10
19.276662
 20
7.275253
  0
VERTEX
  8
MSgnd
 10
19.272275
 20
7.280970
  0
VERTEX
  8
MSgnd
 10
19.267407
 20
7.286282
  0
VERTEX
  8
MSgnd
 10
19.262094
 20
7.291151
  0
VERTEX
  8
MSgnd
 10
19.256377
 20
7.295537
  0
VERTEX
  8
MSgnd
 10
19.250300
 20
7.299409
  0
VERTEX
  8
MSgnd
 10
19.243908
 20
7.302736
  0
VERTEX
  8
MSgnd
 10
19.237251
 20
7.305494
  0
VERTEX
  8
MSgnd
 10
19.230378
 20
7.307661
  0
VERTEX
  8
MSgnd
 10
19.223343
 20
7.309220
  0
VERTEX
  8
MSgnd
 10
19.216199
 20
7.310161
  0
VERTEX
  8
MSgnd
 10
19.209000
 20
7.310475
  0
VERTEX
  8
MSgnd
 10
19.209000
 20
7.318275
  0
VERTEX
  8
MSgnd
 10
19.216879
 20
7.317931
  0
VERTEX
  8
MSgnd
 10
19.224698
 20
7.316902
  0
VERTEX
  8
MSgnd
 10
19.232397
 20
7.315195
  0
VERTEX
  8
MSgnd
 10
19.239919
 20
7.312824
  0
VERTEX
  8
MSgnd
 10
19.247205
 20
7.309806
  0
VERTEX
  8
MSgnd
 10
19.254200
 20
7.306164
  0
VERTEX
  8
MSgnd
 10
19.260851
 20
7.301927
  0
VERTEX
  8
MSgnd
 10
19.267108
 20
7.297126
  0
VERTEX
  8
MSgnd
 10
19.272922
 20
7.291798
  0
VERTEX
  8
MSgnd
 10
19.278250
 20
7.285983
  0
VERTEX
  8
MSgnd
 10
19.283051
 20
7.279727
  0
VERTEX
  8
MSgnd
 10
19.287289
 20
7.273075
  0
VERTEX
  8
MSgnd
 10
19.290930
 20
7.266080
  0
VERTEX
  8
MSgnd
 10
19.293948
 20
7.258794
  0
VERTEX
  8
MSgnd
 10
19.296320
 20
7.251273
  0
VERTEX
  8
MSgnd
 10
19.298027
 20
7.243573
  0
VERTEX
  8
MSgnd
 10
19.299056
 20
7.235754
  0
VERTEX
  8
MSgnd
 10
19.299400
 20
7.227875
  0
VERTEX
  8
MSgnd
 10
19.291600
 20
7.227875
  0
SEQEND
  0
POLYLINE
  8
MSgnd
  6
CONTINUOUS
 66
1
 10
0.0
 20
0.0
 70
1
  0
VERTEX
  8
MSgnd
 10
19.318600
 20
7.227875
  0
VERTEX
  8
MSgnd
 10
19.318183
 20
7.237428
  0
VERTEX
  8
MSgnd
 10
19.316935
 20
7.246907
  0
VERTEX
  8
MSgnd
 10
19.314865
 20
7.256242
  0
VERTEX
  8
MSgnd
 10
19.311990
 20
7.265361
  0
VERTEX
  8
MSgnd
 10
19.308331
 20
7.274194
  0
VERTEX
  8
MSgnd
 10
19.303916
 20
7.282675
  0
VERTEX
  8
MSgnd
 10
19.298779
 20
7.290739
  0
VERTEX
  8
MSgnd
 10
19.292958
 20
7.298325
  0
VERTEX
  8
MSgnd
 10
19.286499
 20
7.305374
  0
VERTEX
  8
MSgnd
 10
19.279450
 20
7.311834
  0
VERTEX
  8
MSgnd
 10
19.271864
 20
7.317654
  0
VERTEX
  8
MSgnd
 10
19.263800
 20
7.322792
  0
VERTEX
  8
MSgnd
 10
19.255319
 20
7.327207
  0
VERTEX
  8
MSgnd
 10
19.246485
 20
7.330866
  0
VERTEX
  8
MSgnd
 10
19.237367
 20
7.333741
  0
VERTEX
  8
MSgnd
 10
19.228032
 20
7.335810
  0
VERTEX
  8
MSgnd
 10
19.218552
 20
7.337058
  0
VERTEX
  8
MSgnd
 10
19.209000
 20
7.337475
  0
VERTEX
  8
MSgnd
 10
19.209000
 20
7.345275
  0
VERTEX
  8
MSgnd
 10
19.219232
 20
7.344829
  0
VERTEX
  8
MSgnd
 10
19.229386
 20
7.343492
  0
VERTEX
  8
MSgnd
 10
19.239385
 20
7.341275
  0
VERTEX
  8
MSgnd
 10
19.249153
 20
7.338195
  0
VERTEX
  8
MSgnd
 10
19.258615
 20
7.334276
  0
VERTEX
  8
MSgnd
 10
19.267700
 20
7.329547
  0
VERTEX
  8
MSgnd
 10
19.276338
 20
7.324044
  0
VERTEX
  8
MSgnd
 10
19.284463
 20
7.317809
  0
VERTEX
  8
MSgnd
 10
19.292014
 20
7.310890
  0
VERTEX
  8
MSgnd
 10
19.298934
 20
7.303339
  0
VERTEX
  8
MSgnd
 10
19.305168
 20
7.295213
  0
VERTEX
  8
MSgnd
 10
19.310671
 20
7.286575
  0
VERTEX
  8
MSgnd
 10
19.315401
 20
7.277491
  0
VERTEX
  8
MSgnd
 10
19.319320
 20
7.268028
  0
VERTEX
  8
MSgnd
 10
19.322400
 20
7.258261
  0
VERTEX
  8
MSgnd
 10
19.324616
 20
7.248262
  0
VERTEX
  8
MSgnd
 10
19.325953
 20
7.238107
  0
VERTEX
  8
MSgnd
 10
19.326400
 20
7.227875
  0
VERTEX
  8
MSgnd
 10
19.318600
 20
7.227875
  0
SEQEND
  0
POLYLINE
  8
MSgnd
  6
CONTINUOUS
 66
1
 10
0.0
 20
0.0
 70
1
  0
VERTEX
  8
MSgnd
 10
19.244100
 20
7.237875
  0
VERTEX
  8
MSgnd
 10
19.244100
 20
7.217875
  0
VERTEX
  8
MSgnd
 10
19.373900
 20
7.217875
  0
VERTEX
  8
MSgnd
 10
19.373900
 20
7.237875
  0
VERTEX
  8
MSgnd
 10
19.244100
 20
7.237875
  0
SEQEND
  0
POLYLINE
  8
MSgnd
  6
CONTINUOUS
 66
1
 10
0.0
 20
0.0
 70
1
  0
VERTEX
  8
MSgnd
 10
19.318600
 20
7.227875
  0
VERTEX
  8
MSgnd
 10
19.318600
 20
6.900207
  0
VERTEX
  8
MSgnd
 10
19.326400
 20
6.900207
  0
VERTEX
  8
MSgnd
 10
19.326400
 20
7.227875
  0
VERTEX
  8
MSgnd
 10
19.318600
 20
7.227875
  0
SEQEND
  0
POLYLINE
  8
MSgnd
  6
CONTINUOUS
 66
1
 10
0.0
 20
0.0
 70
1
  0
VERTEX
  8
MSgnd
 10
19.291600
 20
7.227875
  0
VERTEX
  8
MSgnd
 10
19.291600
 20
6.900207
  0
VERTEX
  8
MSgnd
 10
19.299400
 20
6.900207
  0
VERTEX
  8
MSgnd
 10
19.299400
 20
7.227875
  0
VERTEX
  8
MSgnd
 10
19.291600
 20
7.227875
  0
SEQEND
  0
POLYLINE
  8
MSgnd
  6
CONTINUOUS
 66
1
 10
0.0
 20
0.0
 70
1
  0
VERTEX
  8
MSgnd
 10
19.318600
 20
6.900207
  0
VERTEX
  8
MSgnd
 10
19.318600
 20
6.800207
  0
VERTEX
  8
MSgnd
 10
19.326400
 20
6.800207
  0
VERTEX
  8
MSgnd
 10
19.326400
 20
6.900207
  0
VERTEX
  8
MSgnd
 10
19.318600
 20
6.900207
  0
SEQEND
  0
POLYLINE
  8
MSgnd
  6
CONTINUOUS
 66
1
 10
0.0
 20
0.0
 70
1
  0
VERTEX
  8
MSgnd
 10
19.291600
 20
6.900207
  0
VERTEX
  8
MSgnd
 10
19.291600
 20
6.800207
  0
VERTEX
  8
MSgnd
 10
19.299400
 20
6.800207
  0
VERTEX
  8
MSgnd
 10
19.299400
 20
6.900207
  0
VERTEX
  8
MSgnd
 10
19.291600
 20
6.900207
  0
SEQEND
  0
POLYLINE
  8
MSgnd
  6
CONTINUOUS
 66
1
 10
0.0
 20
0.0
 70
1
  0
VERTEX
  8
MSgnd
 10
19.244100
 20
6.810207
  0
VERTEX
  8
MSgnd
 10
19.244100
 20
6.790207
  0
VERTEX
  8
MSgnd
 10
19.373900
 20
6.790207
  0
VERTEX
  8
MSgnd
 10
19.373900
 20
6.810207
  0
VERTEX
  8
MSgnd
 10
19.244100
 20
6.810207
  0
SEQEND
  0
POLYLINE
  8
MSgnd
  6
CONTINUOUS
 66
1
 10
0.0
 20
0.0
 70
1
  0
VERTEX
  8
MSgnd
 10
19.318600
 20
6.800207
  0
VERTEX
  8
MSgnd
 10
19.318600
 20
5.200000
  0
VERTEX
  8
MSgnd
 10
19.326400
 20
5.200000
  0
VERTEX
  8
MSgnd
 10
19.326400
 20
6.800207
  0
VERTEX
  8
MSgnd
 10
19.318600
 20
6.800207
  0
SEQEND
  0
POLYLINE
  8
MSgnd
  6
CONTINUOUS
 66
1
 10
0.0
 20
0.0
 70
1
  0
VERTEX
  8
MSgnd
 10
19.291600
 20
6.800207
  0
VERTEX
  8
MSgnd
 10
19.291600
 20
5.200000
  0
VERTEX
  8
MSgnd
 10
19.299400
 20
5.200000
  0
VERTEX
  8
MSgnd
 10
19.299400
 20
6.800207
  0
VERTEX
  8
MSgnd
 10
19.291600
 20
6.800207
  0
SEQEND
  0
POLYLINE
  8
MSgnd
  6
CONTINUOUS
 66
1
 10
0.0
 20
0.0
 70
1
  0
VERTEX
  8
MSgnd
 10
19.244100
 20
5.210000
  0
VERTEX
  8
MSgnd
 10
19.244100
 20
5.190000
  0
VERTEX
  8
MSgnd
 10
19.373900
 20
5.190000
  0
VERTEX
  8
MSgnd
 10
19.373900
 20
5.210000
  0
VERTEX
  8
MSgnd
 10
19.244100
 20
5.210000
  0
SEQEND
  0
POLYLINE
  8
MSgnd
  6
CONTINUOUS
 66
1
 10
0.0
 20
0.0
 70
1
  0
VERTEX
  8
MSgnd
 10
19.409000
 20
5.117400
  0
VERTEX
  8
MSgnd
 10
19.401801
 20
5.117714
  0
VERTEX
  8
MSgnd
 10
19.394657
 20
5.118655
  0
VERTEX
  8
MSgnd
 10
19.387622
 20
5.120215
  0
VERTEX
  8
MSgnd
 10
19.380749
 20
5.122381
  0
VERTEX
  8
MSgnd
 10
19.374092
 20
5.125139
  0
VERTEX
  8
MSgnd
 10
19.367700
 20
5.128466
  0
VERTEX
  8
MSgnd
 10
19.361623
 20
5.132338
  0
VERTEX
  8
MSgnd
 10
19.355906
 20
5.136725
  0
VERTEX
  8
MSgnd
 10
19.350593
 20
5.141593
  0
VERTEX
  8
MSgnd
 10
19.345725
 20
5.146906
  0
VERTEX
  8
MSgnd
 10
19.341338
 20
5.152623
  0
VERTEX
  8
MSgnd
 10
19.337466
 20
5.158700
  0
VERTEX
  8
MSgnd
 10
19.334139
 20
5.165092
  0
VERTEX
  8
MSgnd
 10
19.331381
 20
5.171749
  0
VERTEX
  8
MSgnd
 10
19.329215
 20
5.178622
  0
VERTEX
  8
MSgnd
 10
19.327655
 20
5.185657
  0
VERTEX
  8
MSgnd
 10
19.326714
 20
5.192801
  0
VERTEX
  8
MSgnd
 10
19.326400
 20
5.200000
  0
VERTEX
  8
MSgnd
 10
19.318600
 20
5.200000
  0
VERTEX
  8
MSgnd
 10
19.318944
 20
5.192121
  0
VERTEX
  8
MSgnd
 10
19.319973
 20
5.184302
  0
VERTEX
  8
MSgnd
 10
19.321680
 20
5.176603
  0
VERTEX
  8
MSgnd
 10
19.324052
 20
5.169081
  0
VERTEX
  8
MSgnd
 10
19.327070
 20
5.161795
  0
VERTEX
  8
MSgnd
 10
19.330711
 20
5.154800
  0
VERTEX
  8
MSgnd
 10
19.334949
 20
5.148149
  0
VERTEX
  8
MSgnd
 10
19.339750
 20
5.141892
  0
VERTEX
  8
MSgnd
 10
19.345078
 20
5.136078
  0
VERTEX
  8
MSgnd
 10
19.350892
 20
5.130750
  0
VERTEX
  8
MSgnd
 10
19.357149
 20
5.125949
  0
VERTEX
  8
MSgnd
 10
19.363800
 20
5.121711
  0
VERTEX
  8
MSgnd
 10
19.370795
 20
5.118070
  0
VERTEX
  8
MSgnd
 10
19.378081
 20
5.115052
  0
VERTEX
  8
MSgnd
 10
19.385603
 20
5.112680
  0
VERTEX
  8
MSgnd
 10
19.393302
 20
5.110973
  0
VERTEX
  8
MSgnd
 10
19.401121
 20
5.109944
  0
VERTEX
  8
MSgnd
 10
19.409000
 20
5.109600
  0
VERTEX
  8
MSgnd
 10
19.409000
 20
5.117400
  0
SEQEND
  0
POLYLINE
  8
MSgnd
  6
CONTINUOUS
 66
1
 10
0.0
 20
0.0
 70
1
  0
VERTEX
  8
MSgnd
 10
19.409000
 20
5.090400
  0
VERTEX
  8
MSgnd
 10
19.399448
 20
5.090817
  0
VERTEX
  8
MSgnd
 10
19.389968
 20
5.092065
  0
VERTEX
  8
MSgnd
 10
19.380633
 20
5.094135
  0
VERTEX
  8
MSgnd
 10
19.371515
 20
5.097010
  0
VERTEX
  8
MSgnd
 10
19.362681
 20
5.100669
  0
VERTEX
  8
MSgnd
 10
19.354200
 20
5.105084
  0
VERTEX
  8
MSgnd
 10
19.346136
 20
5.110221
  0
VERTEX
  8
MSgnd
 10
19.338550
 20
5.116042
  0
VERTEX
  8
MSgnd
 10
19.331501
 20
5.122501
  0
VERTEX
  8
MSgnd
 10
19.325042
 20
5.129550
  0
VERTEX
  8
MSgnd
 10
19.319221
 20
5.137136
  0
VERTEX
  8
MSgnd
 10
19.314084
 20
5.145200
  0
VERTEX
  8
MSgnd
 10
19.309669
 20
5.153681
  0
VERTEX
  8
MSgnd
 10
19.306010
 20
5.162515
  0
VERTEX
  8
MSgnd
 10
19.303135
 20
5.171633
  0
VERTEX
  8
MSgnd
 10
19.301065
 20
5.180968
  0
VERTEX
  8
MSgnd
 10
19.299817
 20
5.190448
  0
VERTEX
  8
MSgnd
 10
19.299400
 20
5.200000
  0
VERTEX
  8
MSgnd
 10
19.291600
 20
5.200000
  0
VERTEX
  8
MSgnd
 10
19.292047
 20
5.189768
  0
VERTEX
  8
MSgnd
 10
19.293384
 20
5.179614
  0
VERTEX
  8
MSgnd
 10
19.295600
 20
5.169615
  0
VERTEX
  8
MSgnd
 10
19.298680
 20
5.159847
  0
VERTEX
  8
MSgnd
 10
19.302599
 20
5.150385
  0
VERTEX
  8
MSgnd
 10
19.307329
 20
5.141300
  0
VERTEX
  8
MSgnd
 10
19.312832
 20
5.132662
  0
VERTEX
  8
MSgnd
 10
19.319066
 20
5.124537
  0
VERTEX
  8
MSgnd
 10
19.325986
 20
5.116986
  0
VERTEX
  8
MSgnd
 10
19.333537
 20
5.110066
  0
VERTEX
  8
MSgnd
 10
19.341662
 20
5.103832
  0
VERTEX
  8
MSgnd
 10
19.350300
 20
5.098329
  0
VERTEX
  8
MSgnd
 10
19.359385
 20
5.093599
  0
VERTEX
  8
MSgnd
 10
19.368847
 20
5.089680
  0
VERTEX
  8
MSgnd
 10
19.378615
 20
5.086600
  0
VERTEX
  8
MSgnd
 10
19.388614
 20
5.084384
  0
VERTEX
  8
MSgnd
 10
19.398768
 20
5.083047
  0
VERTEX
  8
MSgnd
 10
19.409000
 20
5.082600
  0
VERTEX
  8
MSgnd
 10
19.409000
 20
5.090400
  0
SEQEND
  0
POLYLINE
  8
MSgnd
  6
CONTINUOUS
 66
1
 10
0.0
 20
0.0
 70
1
  0
VERTEX
  8
MSgnd
 10
19.399000
 20
5.035100
  0
VERTEX
  8
MSgnd
 10
19.419000
 20
5.035100
  0
VERTEX
  8
MSgnd
 10
19.419000
 20
5.164900
  0
VERTEX
  8
MSgnd
 10
19.399000
 20
5.164900
  0
VERTEX
  8
MSgnd
 10
19.399000
 20
5.035100
  0
SEQEND
  0
POLYLINE
  8
MSgnd
  6
CONTINUOUS
 66
1
 10
0.0
 20
0.0
 70
1
  0
VERTEX
  8
MSgnd
 10
19.409000
 20
5.109600
  0
VERTEX
  8
MSgnd
 10
21.409000
 20
5.109600
  0
VERTEX
  8
MSgnd
 10
21.409000
 20
5.117400
  0
VERTEX
  8
MSgnd
 10
19.409000
 20
5.117400
  0
VERTEX
  8
MSgnd
 10
19.409000
 20
5.109600
  0
SEQEND
  0
POLYLINE
  8
MSgnd
  6
CONTINUOUS
 66
1
 10
0.0
 20
0.0
 70
1
  0
VERTEX
  8
MSgnd
 10
19.409000
 20
5.082600
  0
VERTEX
  8
MSgnd
 10
21.409000
 20
5.082600
  0
VERTEX
  8
MSgnd
 10
21.409000
 20
5.090400
  0
VERTEX
  8
MSgnd
 10
19.409000
 20
5.090400
  0
VERTEX
  8
MSgnd
 10
19.409000
 20
5.082600
  0
SEQEND
  0
POLYLINE
  8
MSgnd
  6
CONTINUOUS
 66
1
 10
0.0
 20
0.0
 70
1
  0
VERTEX
  8
MSgnd
 10
21.399000
 20
5.035100
  0
VERTEX
  8
MSgnd
 10
21.419000
 20
5.035100
  0
VERTEX
  8
MSgnd
 10
21.419000
 20
5.164900
  0
VERTEX
  8
MSgnd
 10
21.399000
 20
5.164900
  0
VERTEX
  8
MSgnd
 10
21.399000
 20
5.035100
  0
SEQEND
  0
POLYLINE
  8
MSgnd
  6
CONTINUOUS
 66
1
 10
0.0
 20
0.0
 70
1
  0
VERTEX
  8
MSgnd
 10
21.409000
 20
5.109600
  0
VERTEX
  8
MSgnd
 10
23.409000
 20
5.109600
  0
VERTEX
  8
MSgnd
 10
23.409000
 20
5.117400
  0
VERTEX
  8
MSgnd
 10
21.409000
 20
5.117400
  0
VERTEX
  8
MSgnd
 10
21.409000
 20
5.109600
  0
SEQEND
  0
POLYLINE
  8
MSgnd
  6
CONTINUOUS
 66
1
 10
0.0
 20
0.0
 70
1
  0
VERTEX
  8
MSgnd
 10
21.409000
 20
5.082600
  0
VERTEX
  8
MSgnd
 10
23.409000
 20
5.082600
  0
VERTEX
  8
MSgnd
 10
23.409000
 20
5.090400
  0
VERTEX
  8
MSgnd
 10
21.409000
 20
5.090400
  0
VERTEX
  8
MSgnd
 10
21.409000
 20
5.082600
  0
SEQEND
  0
POLYLINE
  8
MSgnd
  6
CONTINUOUS
 66
1
 10
0.0
 20
0.0
 70
1
  0
VERTEX
  8
MSgnd
 10
23.399000
 20
5.035100
  0
VERTEX
  8
MSgnd
 10
23.419000
 20
5.035100
  0
VERTEX
  8
MSgnd
 10
23.419000
 20
5.164900
  0
VERTEX
  8
MSgnd
 10
23.399000
 20
5.164900
  0
VERTEX
  8
MSgnd
 10
23.399000
 20
5.035100
  0
SEQEND
  0
POLYLINE
  8
MSgnd
  6
CONTINUOUS
 66
1
 10
0.0
 20
0.0
 70
1
  0
VERTEX
  8
MSgnd
 10
23.409000
 20
5.109600
  0
VERTEX
  8
MSgnd
 10
25.409000
 20
5.109600
  0
VERTEX
  8
MSgnd
 10
25.409000
 20
5.117400
  0
VERTEX
  8
MSgnd
 10
23.409000
 20
5.117400
  0
VERTEX
  8
MSgnd
 10
23.409000
 20
5.109600
  0
SEQEND
  0
POLYLINE
  8
MSgnd
  6
CONTINUOUS
 66
1
 10
0.0
 20
0.0
 70
1
  0
VERTEX
  8
MSgnd
 10
23.409000
 20
5.082600
  0
VERTEX
  8
MSgnd
 10
25.409000
 20
5.082600
  0
VERTEX
  8
MSgnd
 10
25.409000
 20
5.090400
  0
VERTEX
  8
MSgnd
 10
23.409000
 20
5.090400
  0
VERTEX
  8
MSgnd
 10
23.409000
 20
5.082600
  0
SEQEND
  0
POLYLINE
  8
MSgnd
  6
CONTINUOUS
 66
1
 10
0.0
 20
0.0
 70
1
  0
VERTEX
  8
MSgnd
 10
25.399000
 20
5.035100
  0
VERTEX
  8
MSgnd
 10
25.419000
 20
5.035100
  0
VERTEX
  8
MSgnd
 10
25.419000
 20
5.164900
  0
VERTEX
  8
MSgnd
 10
25.399000
 20
5.164900
  0
VERTEX
  8
MSgnd
 10
25.399000
 20
5.035100
  0
SEQEND
  0
POLYLINE
  8
MSgnd
  6
CONTINUOUS
 66
1
 10
0.0
 20
0.0
 70
1
  0
VERTEX
  8
MSgnd
 10
25.409000
 20
5.109600
  0
VERTEX
  8
MSgnd
 10
27.409000
 20
5.109600
  0
VERTEX
  8
MSgnd
 10
27.409000
 20
5.117400
  0
VERTEX
  8
MSgnd
 10
25.409000
 20
5.117400
  0
VERTEX
  8
MSgnd
 10
25.409000
 20
5.109600
  0
SEQEND
  0
POLYLINE
  8
MSgnd
  6
CONTINUOUS
 66
1
 10
0.0
 20
0.0
 70
1
  0
VERTEX
  8
MSgnd
 10
25.409000
 20
5.082600
  0
VERTEX
  8
MSgnd
 10
27.409000
 20
5.082600
  0
VERTEX
  8
MSgnd
 10
27.409000
 20
5.090400
  0
VERTEX
  8
MSgnd
 10
25.409000
 20
5.090400
  0
VERTEX
  8
MSgnd
 10
25.409000
 20
5.082600
  0
SEQEND
  0
POLYLINE
  8
MSgnd
  6
CONTINUOUS
 66
1
 10
0.0
 20
0.0
 70
1
  0
VERTEX
  8
MSgnd
 10
27.399000
 20
5.035100
  0
VERTEX
  8
MSgnd
 10
27.419000
 20
5.035100
  0
VERTEX
  8
MSgnd
 10
27.419000
 20
5.164900
  0
VERTEX
  8
MSgnd
 10
27.399000
 20
5.164900
  0
VERTEX
  8
MSgnd
 10
27.399000
 20
5.035100
  0
SEQEND
  0
POLYLINE
  8
MSgnd
  6
CONTINUOUS
 66
1
 10
0.0
 20
0.0
 70
1
  0
VERTEX
  8
MSgnd
 10
27.409000
 20
5.109600
  0
VERTEX
  8
MSgnd
 10
29.409000
 20
5.109600
  0
VERTEX
  8
MSgnd
 10
29.409000
 20
5.117400
  0
VERTEX
  8
MSgnd
 10
27.409000
 20
5.117400
  0
VERTEX
  8
MSgnd
 10
27.409000
 20
5.109600
  0
SEQEND
  0
POLYLINE
  8
MSgnd
  6
CONTINUOUS
 66
1
 10
0.0
 20
0.0
 70
1
  0
VERTEX
  8
MSgnd
 10
27.409000
 20
5.082600
  0
VERTEX
  8
MSgnd
 10
29.409000
 20
5.082600
  0
VERTEX
  8
MSgnd
 10
29.409000
 20
5.090400
  0
VERTEX
  8
MSgnd
 10
27.409000
 20
5.090400
  0
VERTEX
  8
MSgnd
 10
27.409000
 20
5.082600
  0
SEQEND
  0
POLYLINE
  8
MSgnd
  6
CONTINUOUS
 66
1
 10
0.0
 20
0.0
 70
1
  0
VERTEX
  8
MSgnd
 10
29.399000
 20
5.035100
  0
VERTEX
  8
MSgnd
 10
29.419000
 20
5.035100
  0
VERTEX
  8
MSgnd
 10
29.419000
 20
5.164900
  0
VERTEX
  8
MSgnd
 10
29.399000
 20
5.164900
  0
VERTEX
  8
MSgnd
 10
29.399000
 20
5.035100
  0
SEQEND
  0
POLYLINE
  8
MSgnd
  6
CONTINUOUS
 66
1
 10
0.0
 20
0.0
 70
1
  0
VERTEX
  8
MSgnd
 10
29.409000
 20
5.109600
  0
VERTEX
  8
MSgnd
 10
31.409000
 20
5.109600
  0
VERTEX
  8
MSgnd
 10
31.409000
 20
5.117400
  0
VERTEX
  8
MSgnd
 10
29.409000
 20
5.117400
  0
VERTEX
  8
MSgnd
 10
29.409000
 20
5.109600
  0
SEQEND
  0
POLYLINE
  8
MSgnd
  6
CONTINUOUS
 66
1
 10
0.0
 20
0.0
 70
1
  0
VERTEX
  8
MSgnd
 10
29.409000
 20
5.082600
  0
VERTEX
  8
MSgnd
 10
31.409000
 20
5.082600
  0
VERTEX
  8
MSgnd
 10
31.409000
 20
5.090400
  0
VERTEX
  8
MSgnd
 10
29.409000
 20
5.090400
  0
VERTEX
  8
MSgnd
 10
29.409000
 20
5.082600
  0
SEQEND
  0
POLYLINE
  8
MSgnd
  6
CONTINUOUS
 66
1
 10
0.0
 20
0.0
 70
1
  0
VERTEX
  8
MSgnd
 10
31.399000
 20
5.035100
  0
VERTEX
  8
MSgnd
 10
31.419000
 20
5.035100
  0
VERTEX
  8
MSgnd
 10
31.419000
 20
5.164900
  0
VERTEX
  8
MSgnd
 10
31.399000
 20
5.164900
  0
VERTEX
  8
MSgnd
 10
31.399000
 20
5.035100
  0
SEQEND
  0
POLYLINE
  8
MSgnd
  6
CONTINUOUS
 66
1
 10
0.0
 20
0.0
 70
1
  0
VERTEX
  8
MSgnd
 10
31.409000
 20
5.109600
  0
VERTEX
  8
MSgnd
 10
33.409000
 20
5.109600
  0
VERTEX
  8
MSgnd
 10
33.409000
 20
5.117400
  0
VERTEX
  8
MSgnd
 10
31.409000
 20
5.117400
  0
VERTEX
  8
MSgnd
 10
31.409000
 20
5.109600
  0
SEQEND
  0
POLYLINE
  8
MSgnd
  6
CONTINUOUS
 66
1
 10
0.0
 20
0.0
 70
1
  0
VERTEX
  8
MSgnd
 10
31.409000
 20
5.082600
  0
VERTEX
  8
MSgnd
 10
33.409000
 20
5.082600
  0
VERTEX
  8
MSgnd
 10
33.409000
 20
5.090400
  0
VERTEX
  8
MSgnd
 10
31.409000
 20
5.090400
  0
VERTEX
  8
MSgnd
 10
31.409000
 20
5.082600
  0
SEQEND
  0
POLYLINE
  8
MSgnd
  6
CONTINUOUS
 66
1
 10
0.0
 20
0.0
 70
1
  0
VERTEX
  8
MSgnd
 10
33.399000
 20
5.035100
  0
VERTEX
  8
MSgnd
 10
33.419000
 20
5.035100
  0
VERTEX
  8
MSgnd
 10
33.419000
 20
5.164900
  0
VERTEX
  8
MSgnd
 10
33.399000
 20
5.164900
  0
VERTEX
  8
MSgnd
 10
33.399000
 20
5.035100
  0
SEQEND
  0
POLYLINE
  8
MSgnd
  6
CONTINUOUS
 66
1
 10
0.0
 20
0.0
 70
1
  0
VERTEX
  8
MSgnd
 10
33.409000
 20
5.109600
  0
VERTEX
  8
MSgnd
 10
35.409000
 20
5.109600
  0
VERTEX
  8
MSgnd
 10
35.409000
 20
5.117400
  0
VERTEX
  8
MSgnd
 10
33.409000
 20
5.117400
  0
VERTEX
  8
MSgnd
 10
33.409000
 20
5.109600
  0
SEQEND
  0
POLYLINE
  8
MSgnd
  6
CONTINUOUS
 66
1
 10
0.0
 20
0.0
 70
1
  0
VERTEX
  8
MSgnd
 10
33.409000
 20
5.082600
  0
VERTEX
  8
MSgnd
 10
35.409000
 20
5.082600
  0
VERTEX
  8
MSgnd
 10
35.409000
 20
5.090400
  0
VERTEX
  8
MSgnd
 10
33.409000
 20
5.090400
  0
VERTEX
  8
MSgnd
 10
33.409000
 20
5.082600
  0
SEQEND
  0
POLYLINE
  8
MSgnd
  6
CONTINUOUS
 66
1
 10
0.0
 20
0.0
 70
1
  0
VERTEX
  8
MSgnd
 10
35.399000
 20
5.035100
  0
VERTEX
  8
MSgnd
 10
35.419000
 20
5.035100
  0
VERTEX
  8
MSgnd
 10
35.419000
 20
5.164900
  0
VERTEX
  8
MSgnd
 10
35.399000
 20
5.164900
  0
VERTEX
  8
MSgnd
 10
35.399000
 20
5.035100
  0
SEQEND
  0
POLYLINE
  8
MSgnd
  6
CONTINUOUS
 66
1
 10
0.0
 20
0.0
 70
1
  0
VERTEX
  8
MSgnd
 10
35.409000
 20
5.109600
  0
VERTEX
  8
MSgnd
 10
37.409000
 20
5.109600
  0
VERTEX
  8
MSgnd
 10
37.409000
 20
5.117400
  0
VERTEX
  8
MSgnd
 10
35.409000
 20
5.117400
  0
VERTEX
  8
MSgnd
 10
35.409000
 20
5.109600
  0
SEQEND
  0
POLYLINE
  8
MSgnd
  6
CONTINUOUS
 66
1
 10
0.0
 20
0.0
 70
1
  0
VERTEX
  8
MSgnd
 10
35.409000
 20
5.082600
  0
VERTEX
  8
MSgnd
 10
37.409000
 20
5.082600
  0
VERTEX
  8
MSgnd
 10
37.409000
 20
5.090400
  0
VERTEX
  8
MSgnd
 10
35.409000
 20
5.090400
  0
VERTEX
  8
MSgnd
 10
35.409000
 20
5.082600
  0
SEQEND
  0
POLYLINE
  8
MSgnd
  6
CONTINUOUS
 66
1
 10
0.0
 20
0.0
 70
1
  0
VERTEX
  8
MSgnd
 10
37.399000
 20
5.035100
  0
VERTEX
  8
MSgnd
 10
37.419000
 20
5.035100
  0
VERTEX
  8
MSgnd
 10
37.419000
 20
5.164900
  0
VERTEX
  8
MSgnd
 10
37.399000
 20
5.164900
  0
VERTEX
  8
MSgnd
 10
37.399000
 20
5.035100
  0
SEQEND
  0
POLYLINE
  8
MSgnd
  6
CONTINUOUS
 66
1
 10
0.0
 20
0.0
 70
1
  0
VERTEX
  8
MSgnd
 10
37.409000
 20
5.109600
  0
VERTEX
  8
MSgnd
 10
39.409000
 20
5.109600
  0
VERTEX
  8
MSgnd
 10
39.409000
 20
5.117400
  0
VERTEX
  8
MSgnd
 10
37.409000
 20
5.117400
  0
VERTEX
  8
MSgnd
 10
37.409000
 20
5.109600
  0
SEQEND
  0
POLYLINE
  8
MSgnd
  6
CONTINUOUS
 66
1
 10
0.0
 20
0.0
 70
1
  0
VERTEX
  8
MSgnd
 10
37.409000
 20
5.082600
  0
VERTEX
  8
MSgnd
 10
39.409000
 20
5.082600
  0
VERTEX
  8
MSgnd
 10
39.409000
 20
5.090400
  0
VERTEX
  8
MSgnd
 10
37.409000
 20
5.090400
  0
VERTEX
  8
MSgnd
 10
37.409000
 20
5.082600
  0
SEQEND
  0
POLYLINE
  8
MSgnd
  6
CONTINUOUS
 66
1
 10
0.0
 20
0.0
 70
1
  0
VERTEX
  8
MSgnd
 10
39.399000
 20
5.035100
  0
VERTEX
  8
MSgnd
 10
39.419000
 20
5.035100
  0
VERTEX
  8
MSgnd
 10
39.419000
 20
5.164900
  0
VERTEX
  8
MSgnd
 10
39.399000
 20
5.164900
  0
VERTEX
  8
MSgnd
 10
39.399000
 20
5.035100
  0
SEQEND
  0
POLYLINE
  8
MSgnd
  6
CONTINUOUS
 66
1
 10
0.0
 20
0.0
 70
1
  0
VERTEX
  8
MSgnd
 10
39.409000
 20
5.109600
  0
VERTEX
  8
MSgnd
 10
39.900000
 20
5.109600
  0
VERTEX
  8
MSgnd
 10
39.900000
 20
5.117400
  0
VERTEX
  8
MSgnd
 10
39.409000
 20
5.117400
  0
VERTEX
  8
MSgnd
 10
39.409000
 20
5.109600
  0
SEQEND
  0
POLYLINE
  8
MSgnd
  6
CONTINUOUS
 66
1
 10
0.0
 20
0.0
 70
1
  0
VERTEX
  8
MSgnd
 10
39.409000
 20
5.082600
  0
VERTEX
  8
MSgnd
 10
39.900000
 20
5.082600
  0
VERTEX
  8
MSgnd
 10
39.900000
 20
5.090400
  0
VERTEX
  8
MSgnd
 10
39.409000
 20
5.090400
  0
VERTEX
  8
MSgnd
 10
39.409000
 20
5.082600
  0
SEQEND
  0
POLYLINE
  8
MSgnd
  6
CONTINUOUS
 66
1
 10
0.0
 20
0.0
 70
1
  0
VERTEX
  8
MSgnd
 10
19.118600
 20
6.900207
  0
VERTEX
  8
MSgnd
 10
19.118600
 20
6.800207
  0
VERTEX
  8
MSgnd
 10
19.126400
 20
6.800207
  0
VERTEX
  8
MSgnd
 10
19.126400
 20
6.900207
  0
VERTEX
  8
MSgnd
 10
19.118600
 20
6.900207
  0
SEQEND
  0
POLYLINE
  8
MSgnd
  6
CONTINUOUS
 66
1
 10
0.0
 20
0.0
 70
1
  0
VERTEX
  8
MSgnd
 10
19.091600
 20
6.900207
  0
VERTEX
  8
MSgnd
 10
19.091600
 20
6.800207
  0
VERTEX
  8
MSgnd
 10
19.099400
 20
6.800207
  0
VERTEX
  8
MSgnd
 10
19.099400
 20
6.900207
  0
VERTEX
  8
MSgnd
 10
19.091600
 20
6.900207
  0
SEQEND
  0
POLYLINE
  8
MSgnd
  6
CONTINUOUS
 66
1
 10
0.0
 20
0.0
 70
1
  0
VERTEX
  8
MSgnd
 10
19.044100
 20
6.810207
  0
VERTEX
  8
MSgnd
 10
19.044100
 20
6.790207
  0
VERTEX
  8
MSgnd
 10
19.173900
 20
6.790207
  0
VERTEX
  8
MSgnd
 10
19.173900
 20
6.810207
  0
VERTEX
  8
MSgnd
 10
19.044100
 20
6.810207
  0
SEQEND
  0
POLYLINE
  8
MSgnd
  6
CONTINUOUS
 66
1
 10
0.0
 20
0.0
 70
1
  0
VERTEX
  8
MSgnd
 10
19.118600
 20
6.800207
  0
VERTEX
  8
MSgnd
 10
19.118600
 20
5.200000
  0
VERTEX
  8
MSgnd
 10
19.126400
 20
5.200000
  0
VERTEX
  8
MSgnd
 10
19.126400
 20
6.800207
  0
VERTEX
  8
MSgnd
 10
19.118600
 20
6.800207
  0
SEQEND
  0
POLYLINE
  8
MSgnd
  6
CONTINUOUS
 66
1
 10
0.0
 20
0.0
 70
1
  0
VERTEX
  8
MSgnd
 10
19.091600
 20
6.800207
  0
VERTEX
  8
MSgnd
 10
19.091600
 20
5.200000
  0
VERTEX
  8
MSgnd
 10
19.099400
 20
5.200000
  0
VERTEX
  8
MSgnd
 10
19.099400
 20
6.800207
  0
VERTEX
  8
MSgnd
 10
19.091600
 20
6.800207
  0
SEQEND
  0
POLYLINE
  8
MSgnd
  6
CONTINUOUS
 66
1
 10
0.0
 20
0.0
 70
1
  0
VERTEX
  8
MSgnd
 10
19.044100
 20
5.210000
  0
VERTEX
  8
MSgnd
 10
19.044100
 20
5.190000
  0
VERTEX
  8
MSgnd
 10
19.173900
 20
5.190000
  0
VERTEX
  8
MSgnd
 10
19.173900
 20
5.210000
  0
VERTEX
  8
MSgnd
 10
19.044100
 20
5.210000
  0
SEQEND
  0
POLYLINE
  8
MSgnd
  6
CONTINUOUS
 66
1
 10
0.0
 20
0.0
 70
1
  0
VERTEX
  8
MSgnd
 10
19.009000
 20
5.117400
  0
VERTEX
  8
MSgnd
 10
19.016199
 20
5.117714
  0
VERTEX
  8
MSgnd
 10
19.023343
 20
5.118655
  0
VERTEX
  8
MSgnd
 10
19.030378
 20
5.120215
  0
VERTEX
  8
MSgnd
 10
19.037251
 20
5.122381
  0
VERTEX
  8
MSgnd
 10
19.043908
 20
5.125139
  0
VERTEX
  8
MSgnd
 10
19.050300
 20
5.128466
  0
VERTEX
  8
MSgnd
 10
19.056377
 20
5.132338
  0
VERTEX
  8
MSgnd
 10
19.062094
 20
5.136725
  0
VERTEX
  8
MSgnd
 10
19.067407
 20
5.141593
  0
VERTEX
  8
MSgnd
 10
19.072275
 20
5.146906
  0
VERTEX
  8
MSgnd
 10
19.076662
 20
5.152623
  0
VERTEX
  8
MSgnd
 10
19.080534
 20
5.158700
  0
VERTEX
  8
MSgnd
 10
19.083861
 20
5.165092
  0
VERTEX
  8
MSgnd
 10
19.086619
 20
5.171749
  0
VERTEX
  8
MSgnd
 10
19.088785
 20
5.178622
  0
VERTEX
  8
MSgnd
 10
19.090345
 20
5.185657
  0
VERTEX
  8
MSgnd
 10
19.091286
 20
5.192801
  0
VERTEX
  8
MSgnd
 10
19.091600
 20
5.200000
  0
VERTEX
  8
MSgnd
 10
19.099400
 20
5.200000
  0
VERTEX
  8
MSgnd
 10
19.099056
 20
5.192121
  0
VERTEX
  8
MSgnd
 10
19.098027
 20
5.184302
  0
VERTEX
  8
MSgnd
 10
19.096320
 20
5.176603
  0
VERTEX
  8
MSgnd
 10
19.093948
 20
5.169081
  0
VERTEX
  8
MSgnd
 10
19.090930
 20
5.161795
  0
VERTEX
  8
MSgnd
 10
19.087289
 20
5.154800
  0
VERTEX
  8
MSgnd
 10
19.083051
 20
5.148149
  0
VERTEX
  8
MSgnd
 10
19.078250
 20
5.141892
  0
VERTEX
  8
MSgnd
 10
19.072922
 20
5.136078
  0
VERTEX
  8
MSgnd
 10
19.067108
 20
5.130750
  0
VERTEX
  8
MSgnd
 10
19.060851
 20
5.125949
  0
VERTEX
  8
MSgnd
 10
19.054200
 20
5.121711
  0
VERTEX
  8
MSgnd
 10
19.047205
 20
5.118070
  0
VERTEX
  8
MSgnd
 10
19.039919
 20
5.115052
  0
VERTEX
  8
MSgnd
 10
19.032397
 20
5.112680
  0
VERTEX
  8
MSgnd
 10
19.024698
 20
5.110973
  0
VERTEX
  8
MSgnd
 10
19.016879
 20
5.109944
  0
VERTEX
  8
MSgnd
 10
19.009000
 20
5.109600
  0
VERTEX
  8
MSgnd
 10
19.009000
 20
5.117400
  0
SEQEND
  0
POLYLINE
  8
MSgnd
  6
CONTINUOUS
 66
1
 10
0.0
 20
0.0
 70
1
  0
VERTEX
  8
MSgnd
 10
19.009000
 20
5.090400
  0
VERTEX
  8
MSgnd
 10
19.018552
 20
5.090817
  0
VERTEX
  8
MSgnd
 10
19.028032
 20
5.092065
  0
VERTEX
  8
MSgnd
 10
19.037367
 20
5.094135
  0
VERTEX
  8
MSgnd
 10
19.046485
 20
5.097010
  0
VERTEX
  8
MSgnd
 10
19.055319
 20
5.100669
  0
VERTEX
  8
MSgnd
 10
19.063800
 20
5.105084
  0
VERTEX
  8
MSgnd
 10
19.071864
 20
5.110221
  0
VERTEX
  8
MSgnd
 10
19.079450
 20
5.116042
  0
VERTEX
  8
MSgnd
 10
19.086499
 20
5.122501
  0
VERTEX
  8
MSgnd
 10
19.092958
 20
5.129550
  0
VERTEX
  8
MSgnd
 10
19.098779
 20
5.137136
  0
VERTEX
  8
MSgnd
 10
19.103916
 20
5.145200
  0
VERTEX
  8
MSgnd
 10
19.108331
 20
5.153681
  0
VERTEX
  8
MSgnd
 10
19.111990
 20
5.162515
  0
VERTEX
  8
MSgnd
 10
19.114865
 20
5.171633
  0
VERTEX
  8
MSgnd
 10
19.116935
 20
5.180968
  0
VERTEX
  8
MSgnd
 10
19.118183
 20
5.190448
  0
VERTEX
  8
MSgnd
 10
19.118600
 20
5.200000
  0
VERTEX
  8
MSgnd
 10
19.126400
 20
5.200000
  0
VERTEX
  8
MSgnd
 10
19.125953
 20
5.189768
  0
VERTEX
  8
MSgnd
 10
19.124616
 20
5.179614
  0
VERTEX
  8
MSgnd
 10
19.122400
 20
5.169615
  0
VERTEX
  8
MSgnd
 10
19.119320
 20
5.159847
  0
VERTEX
  8
MSgnd
 10
19.115401
 20
5.150385
  0
VERTEX
  8
MSgnd
 10
19.110671
 20
5.141300
  0
VERTEX
  8
MSgnd
 10
19.105168
 20
5.132662
  0
VERTEX
  8
MSgnd
 10
19.098934
 20
5.124537
  0
VERTEX
  8
MSgnd
 10
19.092014
 20
5.116986
  0
VERTEX
  8
MSgnd
 10
19.084463
 20
5.110066
  0
VERTEX
  8
MSgnd
 10
19.076338
 20
5.103832
  0
VERTEX
  8
MSgnd
 10
19.067700
 20
5.098329
  0
VERTEX
  8
MSgnd
 10
19.058615
 20
5.093599
  0
VERTEX
  8
MSgnd
 10
19.049153
 20
5.089680
  0
VERTEX
  8
MSgnd
 10
19.039385
 20
5.086600
  0
VERTEX
  8
MSgnd
 10
19.029386
 20
5.084384
  0
VERTEX
  8
MSgnd
 10
19.019232
 20
5.083047
  0
VERTEX
  8
MSgnd
 10
19.009000
 20
5.082600
  0
VERTEX
  8
MSgnd
 10
19.009000
 20
5.090400
  0
SEQEND
  0
POLYLINE
  8
MSgnd
  6
CONTINUOUS
 66
1
 10
0.0
 20
0.0
 70
1
  0
VERTEX
  8
MSgnd
 10
19.019000
 20
5.164900
  0
VERTEX
  8
MSgnd
 10
18.999000
 20
5.164900
  0
VERTEX
  8
MSgnd
 10
18.999000
 20
5.035100
  0
VERTEX
  8
MSgnd
 10
19.019000
 20
5.035100
  0
VERTEX
  8
MSgnd
 10
19.019000
 20
5.164900
  0
SEQEND
  0
POLYLINE
  8
MSgnd
  6
CONTINUOUS
 66
1
 10
0.0
 20
0.0
 70
1
  0
VERTEX
  8
MSgnd
 10
18.099400
 20
6.302999
  0
VERTEX
  8
MSgnd
 10
18.099400
 20
6.671052
  0
VERTEX
  8
MSgnd
 10
18.091600
 20
6.671052
  0
VERTEX
  8
MSgnd
 10
18.091600
 20
6.302999
  0
VERTEX
  8
MSgnd
 10
18.099400
 20
6.302999
  0
SEQEND
  0
POLYLINE
  8
MSgnd
  6
CONTINUOUS
 66
1
 10
0.0
 20
0.0
 70
1
  0
VERTEX
  8
MSgnd
 10
18.126400
 20
6.302999
  0
VERTEX
  8
MSgnd
 10
18.126400
 20
6.671052
  0
VERTEX
  8
MSgnd
 10
18.118600
 20
6.671052
  0
VERTEX
  8
MSgnd
 10
18.118600
 20
6.302999
  0
VERTEX
  8
MSgnd
 10
18.126400
 20
6.302999
  0
SEQEND
  0
POLYLINE
  8
MSgnd
  6
CONTINUOUS
 66
1
 10
0.0
 20
0.0
 70
1
  0
VERTEX
  8
MSgnd
 10
18.209000
 20
6.753652
  0
VERTEX
  8
MSgnd
 10
18.201801
 20
6.753338
  0
VERTEX
  8
MSgnd
 10
18.194657
 20
6.752397
  0
VERTEX
  8
MSgnd
 10
18.187622
 20
6.750838
  0
VERTEX
  8
MSgnd
 10
18.180749
 20
6.748671
  0
VERTEX
  8
MSgnd
 10
18.174092
 20
6.745913
  0
VERTEX
  8
MSgnd
 10
18.167700
 20
6.742586
  0
VERTEX
  8
MSgnd
 10
18.161623
 20
6.738714
  0
VERTEX
  8
MSgnd
 10
18.155906
 20
6.734328
  0
VERTEX
  8
MSgnd
 10
18.150593
 20
6.729459
  0
VERTEX
  8
MSgnd
 10
18.145725
 20
6.724147
  0
VERTEX
  8
MSgnd
 10
18.141338
 20
6.718430
  0
VERTEX
  8
MSgnd
 10
18.137466
 20
6.712352
  0
VERTEX
  8
MSgnd
 10
18.134139
 20
6.705961
  0
VERTEX
  8
MSgnd
 10
18.131381
 20
6.699303
  0
VERTEX
  8
MSgnd
 10
18.129215
 20
6.692431
  0
VERTEX
  8
MSgnd
 10
18.127655
 20
6.685396
  0
VERTEX
  8
MSgnd
 10
18.126714
 20
6.678251
  0
VERTEX
  8
MSgnd
 10
18.126400
 20
6.671052
  0
VERTEX
  8
MSgnd
 10
18.118600
 20
6.671052
  0
VERTEX
  8
MSgnd
 10
18.118944
 20
6.678931
  0
VERTEX
  8
MSgnd
 10
18.119973
 20
6.686750
  0
VERTEX
  8
MSgnd
 10
18.121680
 20
6.694450
  0
VERTEX
  8
MSgnd
 10
18.124052
 20
6.701971
  0
VERTEX
  8
MSgnd
 10
18.127070
 20
6.709257
  0
VERTEX
  8
MSgnd
 10
18.130711
 20
6.716252
  0
VERTEX
  8
MSgnd
 10
18.134949
 20
6.722904
  0
VERTEX
  8
MSgnd
 10
18.139750
 20
6.729160
  0
VERTEX
  8
MSgnd
 10
18.145078
 20
6.734975
  0
VERTEX
  8
MSgnd
 10
18.150892
 20
6.740303
  0
VERTEX
  8
MSgnd
 10
18.157149
 20
6.745104
  0
VERTEX
  8
MSgnd
 10
18.163800
 20
6.749341
  0
VERTEX
  8
MSgnd
 10
18.170795
 20
6.752983
  0
VERTEX
  8
MSgnd
 10
18.178081
 20
6.756000
  0
VERTEX
  8
MSgnd
 10
18.185603
 20
6.758372
  0
VERTEX
  8
MSgnd
 10
18.193302
 20
6.760079
  0
VERTEX
  8
MSgnd
 10
18.201121
 20
6.761108
  0
VERTEX
  8
MSgnd
 10
18.209000
 20
6.761452
  0
VERTEX
  8
MSgnd
 10
18.209000
 20
6.753652
  0
SEQEND
  0
POLYLINE
  8
MSgnd
  6
CONTINUOUS
 66
1
 10
0.0
 20
0.0
 70
1
  0
VERTEX
  8
MSgnd
 10
18.209000
 20
6.780652
  0
VERTEX
  8
MSgnd
 10
18.199448
 20
6.780235
  0
VERTEX
  8
MSgnd
 10
18.189968
 20
6.778987
  0
VERTEX
  8
MSgnd
 10
18.180633
 20
6.776918
  0
VERTEX
  8
MSgnd
 10
18.171515
 20
6.774043
  0
VERTEX
  8
MSgnd
 10
18.162681
 20
6.770384
  0
VERTEX
  8
MSgnd
 10
18.154200
 20
6.765969
  0
VERTEX
  8
MSgnd
 10
18.146136
 20
6.760831
  0
VERTEX
  8
MSgnd
 10
18.138550
 20
6.755011
  0
VERTEX
  8
MSgnd
 10
18.131501
 20
6.748551
  0
VERTEX
  8
MSgnd
 10
18.125042
 20
6.741502
  0
VERTEX
  8
MSgnd
 10
18.119221
 20
6.733916
  0
VERTEX
  8
MSgnd
 10
18.114084
 20
6.725852
  0
VERTEX
  8
MSgnd
 10
18.109669
 20
6.717371
  0
VERTEX
  8
MSgnd
 10
18.106010
 20
6.708538
  0
VERTEX
  8
MSgnd
 10
18.103135
 20
6.699419
  0
VERTEX
  8
MSgnd
 10
18.101065
 20
6.690084
  0
VERTEX
  8
MSgnd
 10
18.099817
 20
6.680605
  0
VERTEX
  8
MSgnd
 10
18.099400
 20
6.671052
  0
VERTEX
  8
MSgnd
 10
18.091600
 20
6.671052
  0
VERTEX
  8
MSgnd
 10
18.092047
 20
6.681284
  0
VERTEX
  8
MSgnd
 10
18.093384
 20
6.691439
  0
VERTEX
  8
MSgnd
 10
18.095600
 20
6.701438
  0
VERTEX
  8
MSgnd
 10
18.098680
 20
6.711205
  0
VERTEX
  8
MSgnd
 10
18.102599
 20
6.720668
  0
VERTEX
  8
MSgnd
 10
18.107329
 20
6.729752
  0
VERTEX
  8
MSgnd
 10
18.112832
 20
6.738390
  0
VERTEX
  8
MSgnd
 10
18.119066
 20
6.746516
  0
VERTEX
  8
MSgnd
 10
18.125986
 20
6.754067
  0
VERTEX
  8
MSgnd
 10
18.133537
 20
6.760986
  0
VERTEX
  8
MSgnd
 10
18.141662
 20
6.767221
  0
VERTEX
  8
MSgnd
 10
18.150300
 20
6.772724
  0
VERTEX
  8
MSgnd
 10
18.159385
 20
6.777453
  0
VERTEX
  8
MSgnd
 10
18.168847
 20
6.781372
  0
VERTEX
  8
MSgnd
 10
18.178615
 20
6.784452
  0
VERTEX
  8
MSgnd
 10
18.188614
 20
6.786669
  0
VERTEX
  8
MSgnd
 10
18.198768
 20
6.788006
  0
VERTEX
  8
MSgnd
 10
18.209000
 20
6.788452
  0
VERTEX
  8
MSgnd
 10
18.209000
 20
6.780652
  0
SEQEND
  0
POLYLINE
  8
MSgnd
  6
CONTINUOUS
 66
1
 10
0.0
 20
0.0
 70
1
  0
VERTEX
  8
MSgnd
 10
18.199000
 20
6.706152
  0
VERTEX
  8
MSgnd
 10
18.219000
 20
6.706152
  0
VERTEX
  8
MSgnd
 10
18.219000
 20
6.835952
  0
VERTEX
  8
MSgnd
 10
18.199000
 20
6.835952
  0
VERTEX
  8
MSgnd
 10
18.199000
 20
6.706152
  0
SEQEND
  0
POLYLINE
  8
MSgnd
  6
CONTINUOUS
 66
1
 10
0.0
 20
0.0
 70
1
  0
VERTEX
  8
MSgnd
 10
18.291600
 20
6.671052
  0
VERTEX
  8
MSgnd
 10
18.291286
 20
6.678251
  0
VERTEX
  8
MSgnd
 10
18.290345
 20
6.685396
  0
VERTEX
  8
MSgnd
 10
18.288785
 20
6.692431
  0
VERTEX
  8
MSgnd
 10
18.286619
 20
6.699303
  0
VERTEX
  8
MSgnd
 10
18.283861
 20
6.705961
  0
VERTEX
  8
MSgnd
 10
18.280534
 20
6.712352
  0
VERTEX
  8
MSgnd
 10
18.276662
 20
6.718430
  0
VERTEX
  8
MSgnd
 10
18.272275
 20
6.724147
  0
VERTEX
  8
MSgnd
 10
18.267407
 20
6.729459
  0
VERTEX
  8
MSgnd
 10
18.262094
 20
6.734328
  0
VERTEX
  8
MSgnd
 10
18.256377
 20
6.738714
  0
VERTEX
  8
MSgnd
 10
18.250300
 20
6.742586
  0
VERTEX
  8
MSgnd
 10
18.243908
 20
6.745913
  0
VERTEX
  8
MSgnd
 10
18.237251
 20
6.748671
  0
VERTEX
  8
MSgnd
 10
18.230378
 20
6.750838
  0
VERTEX
  8
MSgnd
 10
18.223343
 20
6.752397
  0
VERTEX
  8
MSgnd
 10
18.216199
 20
6.753338
  0
VERTEX
  8
MSgnd
 10
18.209000
 20
6.753652
  0
VERTEX
  8
MSgnd
 10
18.209000
 20
6.761452
  0
VERTEX
  8
MSgnd
 10
18.216879
 20
6.761108
  0
VERTEX
  8
MSgnd
 10
18.224698
 20
6.760079
  0
VERTEX
  8
MSgnd
 10
18.232397
 20
6.758372
  0
VERTEX
  8
MSgnd
 10
18.239919
 20
6.756000
  0
VERTEX
  8
MSgnd
 10
18.247205
 20
6.752983
  0
VERTEX
  8
MSgnd
 10
18.254200
 20
6.749341
  0
VERTEX
  8
MSgnd
 10
18.260851
 20
6.745104
  0
VERTEX
  8
MSgnd
 10
18.267108
 20
6.740303
  0
VERTEX
  8
MSgnd
 10
18.272922
 20
6.734975
  0
VERTEX
  8
MSgnd
 10
18.278250
 20
6.729160
  0
VERTEX
  8
MSgnd
 10
18.283051
 20
6.722904
  0
VERTEX
  8
MSgnd
 10
18.287289
 20
6.716252
  0
VERTEX
  8
MSgnd
 10
18.290930
 20
6.709257
  0
VERTEX
  8
MSgnd
 10
18.293948
 20
6.701971
  0
VERTEX
  8
MSgnd
 10
18.296320
 20
6.694450
  0
VERTEX
  8
MSgnd
 10
18.298027
 20
6.686750
  0
VERTEX
  8
MSgnd
 10
18.299056
 20
6.678931
  0
VERTEX
  8
MSgnd
 10
18.299400
 20
6.671052
  0
VERTEX
  8
MSgnd
 10
18.291600
 20
6.671052
  0
SEQEND
  0
POLYLINE
  8
MSgnd
  6
CONTINUOUS
 66
1
 10
0.0
 20
0.0
 70
1
  0
VERTEX
  8
MSgnd
 10
18.318600
 20
6.671052
  0
VERTEX
  8
MSgnd
 10
18.318183
 20
6.680605
  0
VERTEX
  8
MSgnd
 10
18.316935
 20
6.690084
  0
VERTEX
  8
MSgnd
 10
18.314865
 20
6.699419
  0
VERTEX
  8
MSgnd
 10
18.311990
 20
6.708538
  0
VERTEX
  8
MSgnd
 10
18.308331
 20
6.717371
  0
VERTEX
  8
MSgnd
 10
18.303916
 20
6.725852
  0
VERTEX
  8
MSgnd
 10
18.298779
 20
6.733916
  0
VERTEX
  8
MSgnd
 10
18.292958
 20
6.741502
  0
VERTEX
  8
MSgnd
 10
18.286499
 20
6.748551
  0
VERTEX
  8
MSgnd
 10
18.279450
 20
6.755011
  0
VERTEX
  8
MSgnd
 10
18.271864
 20
6.760831
  0
VERTEX
  8
MSgnd
 10
18.263800
 20
6.765969
  0
VERTEX
  8
MSgnd
 10
18.255319
 20
6.770384
  0
VERTEX
  8
MSgnd
 10
18.246485
 20
6.774043
  0
VERTEX
  8
MSgnd
 10
18.237367
 20
6.776918
  0
VERTEX
  8
MSgnd
 10
18.228032
 20
6.778987
  0
VERTEX
  8
MSgnd
 10
18.218552
 20
6.780235
  0
VERTEX
  8
MSgnd
 10
18.209000
 20
6.780652
  0
VERTEX
  8
MSgnd
 10
18.209000
 20
6.788452
  0
VERTEX
  8
MSgnd
 10
18.219232
 20
6.788006
  0
VERTEX
  8
MSgnd
 10
18.229386
 20
6.786669
  0
VERTEX
  8
MSgnd
 10
18.239385
 20
6.784452
  0
VERTEX
  8
MSgnd
 10
18.249153
 20
6.781372
  0
VERTEX
  8
MSgnd
 10
18.258615
 20
6.777453
  0
VERTEX
  8
MSgnd
 10
18.267700
 20
6.772724
  0
VERTEX
  8
MSgnd
 10
18.276338
 20
6.767221
  0
VERTEX
  8
MSgnd
 10
18.284463
 20
6.760986
  0
VERTEX
  8
MSgnd
 10
18.292014
 20
6.754067
  0
VERTEX
  8
MSgnd
 10
18.298934
 20
6.746516
  0
VERTEX
  8
MSgnd
 10
18.305168
 20
6.738390
  0
VERTEX
  8
MSgnd
 10
18.310671
 20
6.729752
  0
VERTEX
  8
MSgnd
 10
18.315401
 20
6.720668
  0
VERTEX
  8
MSgnd
 10
18.319320
 20
6.711205
  0
VERTEX
  8
MSgnd
 10
18.322400
 20
6.701438
  0
VERTEX
  8
MSgnd
 10
18.324616
 20
6.691439
  0
VERTEX
  8
MSgnd
 10
18.325953
 20
6.681284
  0
VERTEX
  8
MSgnd
 10
18.326400
 20
6.671052
  0
VERTEX
  8
MSgnd
 10
18.318600
 20
6.671052
  0
SEQEND
  0
POLYLINE
  8
MSgnd
  6
CONTINUOUS
 66
1
 10
0.0
 20
0.0
 70
1
  0
VERTEX
  8
MSgnd
 10
18.244100
 20
6.681052
  0
VERTEX
  8
MSgnd
 10
18.244100
 20
6.661052
  0
VERTEX
  8
MSgnd
 10
18.373900
 20
6.661052
  0
VERTEX
  8
MSgnd
 10
18.373900
 20
6.681052
  0
VERTEX
  8
MSgnd
 10
18.244100
 20
6.681052
  0
SEQEND
  0
POLYLINE
  8
MSgnd
  6
CONTINUOUS
 66
1
 10
0.0
 20
0.0
 70
1
  0
VERTEX
  8
MSgnd
 10
18.318600
 20
6.671052
  0
VERTEX
  8
MSgnd
 10
18.318600
 20
6.302999
  0
VERTEX
  8
MSgnd
 10
18.326400
 20
6.302999
  0
VERTEX
  8
MSgnd
 10
18.326400
 20
6.671052
  0
VERTEX
  8
MSgnd
 10
18.318600
 20
6.671052
  0
SEQEND
  0
POLYLINE
  8
MSgnd
  6
CONTINUOUS
 66
1
 10
0.0
 20
0.0
 70
1
  0
VERTEX
  8
MSgnd
 10
18.291600
 20
6.671052
  0
VERTEX
  8
MSgnd
 10
18.291600
 20
6.302999
  0
VERTEX
  8
MSgnd
 10
18.299400
 20
6.302999
  0
VERTEX
  8
MSgnd
 10
18.299400
 20
6.671052
  0
VERTEX
  8
MSgnd
 10
18.291600
 20
6.671052
  0
SEQEND
  0
POLYLINE
  8
MSgnd
  6
CONTINUOUS
 66
1
 10
0.0
 20
0.0
 70
1
  0
VERTEX
  8
MSgnd
 10
18.318600
 20
6.302999
  0
VERTEX
  8
MSgnd
 10
18.318600
 20
6.202999
  0
VERTEX
  8
MSgnd
 10
18.326400
 20
6.202999
  0
VERTEX
  8
MSgnd
 10
18.326400
 20
6.302999
  0
VERTEX
  8
MSgnd
 10
18.318600
 20
6.302999
  0
SEQEND
  0
POLYLINE
  8
MSgnd
  6
CONTINUOUS
 66
1
 10
0.0
 20
0.0
 70
1
  0
VERTEX
  8
MSgnd
 10
18.291600
 20
6.302999
  0
VERTEX
  8
MSgnd
 10
18.291600
 20
6.202999
  0
VERTEX
  8
MSgnd
 10
18.299400
 20
6.202999
  0
VERTEX
  8
MSgnd
 10
18.299400
 20
6.302999
  0
VERTEX
  8
MSgnd
 10
18.291600
 20
6.302999
  0
SEQEND
  0
POLYLINE
  8
MSgnd
  6
CONTINUOUS
 66
1
 10
0.0
 20
0.0
 70
1
  0
VERTEX
  8
MSgnd
 10
18.244100
 20
6.212999
  0
VERTEX
  8
MSgnd
 10
18.244100
 20
6.192999
  0
VERTEX
  8
MSgnd
 10
18.373900
 20
6.192999
  0
VERTEX
  8
MSgnd
 10
18.373900
 20
6.212999
  0
VERTEX
  8
MSgnd
 10
18.244100
 20
6.212999
  0
SEQEND
  0
POLYLINE
  8
MSgnd
  6
CONTINUOUS
 66
1
 10
0.0
 20
0.0
 70
1
  0
VERTEX
  8
MSgnd
 10
18.318600
 20
6.202999
  0
VERTEX
  8
MSgnd
 10
18.318600
 20
5.200000
  0
VERTEX
  8
MSgnd
 10
18.326400
 20
5.200000
  0
VERTEX
  8
MSgnd
 10
18.326400
 20
6.202999
  0
VERTEX
  8
MSgnd
 10
18.318600
 20
6.202999
  0
SEQEND
  0
POLYLINE
  8
MSgnd
  6
CONTINUOUS
 66
1
 10
0.0
 20
0.0
 70
1
  0
VERTEX
  8
MSgnd
 10
18.291600
 20
6.202999
  0
VERTEX
  8
MSgnd
 10
18.291600
 20
5.200000
  0
VERTEX
  8
MSgnd
 10
18.299400
 20
5.200000
  0
VERTEX
  8
MSgnd
 10
18.299400
 20
6.202999
  0
VERTEX
  8
MSgnd
 10
18.291600
 20
6.202999
  0
SEQEND
  0
POLYLINE
  8
MSgnd
  6
CONTINUOUS
 66
1
 10
0.0
 20
0.0
 70
1
  0
VERTEX
  8
MSgnd
 10
18.244100
 20
5.210000
  0
VERTEX
  8
MSgnd
 10
18.244100
 20
5.190000
  0
VERTEX
  8
MSgnd
 10
18.373900
 20
5.190000
  0
VERTEX
  8
MSgnd
 10
18.373900
 20
5.210000
  0
VERTEX
  8
MSgnd
 10
18.244100
 20
5.210000
  0
SEQEND
  0
POLYLINE
  8
MSgnd
  6
CONTINUOUS
 66
1
 10
0.0
 20
0.0
 70
1
  0
VERTEX
  8
MSgnd
 10
18.409000
 20
5.117400
  0
VERTEX
  8
MSgnd
 10
18.401801
 20
5.117714
  0
VERTEX
  8
MSgnd
 10
18.394657
 20
5.118655
  0
VERTEX
  8
MSgnd
 10
18.387622
 20
5.120215
  0
VERTEX
  8
MSgnd
 10
18.380749
 20
5.122381
  0
VERTEX
  8
MSgnd
 10
18.374092
 20
5.125139
  0
VERTEX
  8
MSgnd
 10
18.367700
 20
5.128466
  0
VERTEX
  8
MSgnd
 10
18.361623
 20
5.132338
  0
VERTEX
  8
MSgnd
 10
18.355906
 20
5.136725
  0
VERTEX
  8
MSgnd
 10
18.350593
 20
5.141593
  0
VERTEX
  8
MSgnd
 10
18.345725
 20
5.146906
  0
VERTEX
  8
MSgnd
 10
18.341338
 20
5.152623
  0
VERTEX
  8
MSgnd
 10
18.337466
 20
5.158700
  0
VERTEX
  8
MSgnd
 10
18.334139
 20
5.165092
  0
VERTEX
  8
MSgnd
 10
18.331381
 20
5.171749
  0
VERTEX
  8
MSgnd
 10
18.329215
 20
5.178622
  0
VERTEX
  8
MSgnd
 10
18.327655
 20
5.185657
  0
VERTEX
  8
MSgnd
 10
18.326714
 20
5.192801
  0
VERTEX
  8
MSgnd
 10
18.326400
 20
5.200000
  0
VERTEX
  8
MSgnd
 10
18.318600
 20
5.200000
  0
VERTEX
  8
MSgnd
 10
18.318944
 20
5.192121
  0
VERTEX
  8
MSgnd
 10
18.319973
 20
5.184302
  0
VERTEX
  8
MSgnd
 10
18.321680
 20
5.176603
  0
VERTEX
  8
MSgnd
 10
18.324052
 20
5.169081
  0
VERTEX
  8
MSgnd
 10
18.327070
 20
5.161795
  0
VERTEX
  8
MSgnd
 10
18.330711
 20
5.154800
  0
VERTEX
  8
MSgnd
 10
18.334949
 20
5.148149
  0
VERTEX
  8
MSgnd
 10
18.339750
 20
5.141892
  0
VERTEX
  8
MSgnd
 10
18.345078
 20
5.136078
  0
VERTEX
  8
MSgnd
 10
18.350892
 20
5.130750
  0
VERTEX
  8
MSgnd
 10
18.357149
 20
5.125949
  0
VERTEX
  8
MSgnd
 10
18.363800
 20
5.121711
  0
VERTEX
  8
MSgnd
 10
18.370795
 20
5.118070
  0
VERTEX
  8
MSgnd
 10
18.378081
 20
5.115052
  0
VERTEX
  8
MSgnd
 10
18.385603
 20
5.112680
  0
VERTEX
  8
MSgnd
 10
18.393302
 20
5.110973
  0
VERTEX
  8
MSgnd
 10
18.401121
 20
5.109944
  0
VERTEX
  8
MSgnd
 10
18.409000
 20
5.109600
  0
VERTEX
  8
MSgnd
 10
18.409000
 20
5.117400
  0
SEQEND
  0
POLYLINE
  8
MSgnd
  6
CONTINUOUS
 66
1
 10
0.0
 20
0.0
 70
1
  0
VERTEX
  8
MSgnd
 10
18.409000
 20
5.090400
  0
VERTEX
  8
MSgnd
 10
18.399448
 20
5.090817
  0
VERTEX
  8
MSgnd
 10
18.389968
 20
5.092065
  0
VERTEX
  8
MSgnd
 10
18.380633
 20
5.094135
  0
VERTEX
  8
MSgnd
 10
18.371515
 20
5.097010
  0
VERTEX
  8
MSgnd
 10
18.362681
 20
5.100669
  0
VERTEX
  8
MSgnd
 10
18.354200
 20
5.105084
  0
VERTEX
  8
MSgnd
 10
18.346136
 20
5.110221
  0
VERTEX
  8
MSgnd
 10
18.338550
 20
5.116042
  0
VERTEX
  8
MSgnd
 10
18.331501
 20
5.122501
  0
VERTEX
  8
MSgnd
 10
18.325042
 20
5.129550
  0
VERTEX
  8
MSgnd
 10
18.319221
 20
5.137136
  0
VERTEX
  8
MSgnd
 10
18.314084
 20
5.145200
  0
VERTEX
  8
MSgnd
 10
18.309669
 20
5.153681
  0
VERTEX
  8
MSgnd
 10
18.306010
 20
5.162515
  0
VERTEX
  8
MSgnd
 10
18.303135
 20
5.171633
  0
VERTEX
  8
MSgnd
 10
18.301065
 20
5.180968
  0
VERTEX
  8
MSgnd
 10
18.299817
 20
5.190448
  0
VERTEX
  8
MSgnd
 10
18.299400
 20
5.200000
  0
VERTEX
  8
MSgnd
 10
18.291600
 20
5.200000
  0
VERTEX
  8
MSgnd
 10
18.292047
 20
5.189768
  0
VERTEX
  8
MSgnd
 10
18.293384
 20
5.179614
  0
VERTEX
  8
MSgnd
 10
18.295600
 20
5.169615
  0
VERTEX
  8
MSgnd
 10
18.298680
 20
5.159847
  0
VERTEX
  8
MSgnd
 10
18.302599
 20
5.150385
  0
VERTEX
  8
MSgnd
 10
18.307329
 20
5.141300
  0
VERTEX
  8
MSgnd
 10
18.312832
 20
5.132662
  0
VERTEX
  8
MSgnd
 10
18.319066
 20
5.124537
  0
VERTEX
  8
MSgnd
 10
18.325986
 20
5.116986
  0
VERTEX
  8
MSgnd
 10
18.333537
 20
5.110066
  0
VERTEX
  8
MSgnd
 10
18.341662
 20
5.103832
  0
VERTEX
  8
MSgnd
 10
18.350300
 20
5.098329
  0
VERTEX
  8
MSgnd
 10
18.359385
 20
5.093599
  0
VERTEX
  8
MSgnd
 10
18.368847
 20
5.089680
  0
VERTEX
  8
MSgnd
 10
18.378615
 20
5.086600
  0
VERTEX
  8
MSgnd
 10
18.388614
 20
5.084384
  0
VERTEX
  8
MSgnd
 10
18.398768
 20
5.083047
  0
VERTEX
  8
MSgnd
 10
18.409000
 20
5.082600
  0
VERTEX
  8
MSgnd
 10
18.409000
 20
5.090400
  0
SEQEND
  0
POLYLINE
  8
MSgnd
  6
CONTINUOUS
 66
1
 10
0.0
 20
0.0
 70
1
  0
VERTEX
  8
MSgnd
 10
18.399000
 20
5.035100
  0
VERTEX
  8
MSgnd
 10
18.419000
 20
5.035100
  0
VERTEX
  8
MSgnd
 10
18.419000
 20
5.164900
  0
VERTEX
  8
MSgnd
 10
18.399000
 20
5.164900
  0
VERTEX
  8
MSgnd
 10
18.399000
 20
5.035100
  0
SEQEND
  0
POLYLINE
  8
MSgnd
  6
CONTINUOUS
 66
1
 10
0.0
 20
0.0
 70
1
  0
VERTEX
  8
MSgnd
 10
18.409000
 20
5.109600
  0
VERTEX
  8
MSgnd
 10
19.009000
 20
5.109600
  0
VERTEX
  8
MSgnd
 10
19.009000
 20
5.117400
  0
VERTEX
  8
MSgnd
 10
18.409000
 20
5.117400
  0
VERTEX
  8
MSgnd
 10
18.409000
 20
5.109600
  0
SEQEND
  0
POLYLINE
  8
MSgnd
  6
CONTINUOUS
 66
1
 10
0.0
 20
0.0
 70
1
  0
VERTEX
  8
MSgnd
 10
18.409000
 20
5.082600
  0
VERTEX
  8
MSgnd
 10
19.009000
 20
5.082600
  0
VERTEX
  8
MSgnd
 10
19.009000
 20
5.090400
  0
VERTEX
  8
MSgnd
 10
18.409000
 20
5.090400
  0
VERTEX
  8
MSgnd
 10
18.409000
 20
5.082600
  0
SEQEND
  0
POLYLINE
  8
MSgnd
  6
CONTINUOUS
 66
1
 10
0.0
 20
0.0
 70
1
  0
VERTEX
  8
MSgnd
 10
18.118600
 20
6.302999
  0
VERTEX
  8
MSgnd
 10
18.118600
 20
6.202999
  0
VERTEX
  8
MSgnd
 10
18.126400
 20
6.202999
  0
VERTEX
  8
MSgnd
 10
18.126400
 20
6.302999
  0
VERTEX
  8
MSgnd
 10
18.118600
 20
6.302999
  0
SEQEND
  0
POLYLINE
  8
MSgnd
  6
CONTINUOUS
 66
1
 10
0.0
 20
0.0
 70
1
  0
VERTEX
  8
MSgnd
 10
18.091600
 20
6.302999
  0
VERTEX
  8
MSgnd
 10
18.091600
 20
6.202999
  0
VERTEX
  8
MSgnd
 10
18.099400
 20
6.202999
  0
VERTEX
  8
MSgnd
 10
18.099400
 20
6.302999
  0
VERTEX
  8
MSgnd
 10
18.091600
 20
6.302999
  0
SEQEND
  0
POLYLINE
  8
MSgnd
  6
CONTINUOUS
 66
1
 10
0.0
 20
0.0
 70
1
  0
VERTEX
  8
MSgnd
 10
18.044100
 20
6.212999
  0
VERTEX
  8
MSgnd
 10
18.044100
 20
6.192999
  0
VERTEX
  8
MSgnd
 10
18.173900
 20
6.192999
  0
VERTEX
  8
MSgnd
 10
18.173900
 20
6.212999
  0
VERTEX
  8
MSgnd
 10
18.044100
 20
6.212999
  0
SEQEND
  0
POLYLINE
  8
MSgnd
  6
CONTINUOUS
 66
1
 10
0.0
 20
0.0
 70
1
  0
VERTEX
  8
MSgnd
 10
18.118600
 20
6.202999
  0
VERTEX
  8
MSgnd
 10
18.118600
 20
5.200000
  0
VERTEX
  8
MSgnd
 10
18.126400
 20
5.200000
  0
VERTEX
  8
MSgnd
 10
18.126400
 20
6.202999
  0
VERTEX
  8
MSgnd
 10
18.118600
 20
6.202999
  0
SEQEND
  0
POLYLINE
  8
MSgnd
  6
CONTINUOUS
 66
1
 10
0.0
 20
0.0
 70
1
  0
VERTEX
  8
MSgnd
 10
18.091600
 20
6.202999
  0
VERTEX
  8
MSgnd
 10
18.091600
 20
5.200000
  0
VERTEX
  8
MSgnd
 10
18.099400
 20
5.200000
  0
VERTEX
  8
MSgnd
 10
18.099400
 20
6.202999
  0
VERTEX
  8
MSgnd
 10
18.091600
 20
6.202999
  0
SEQEND
  0
POLYLINE
  8
MSgnd
  6
CONTINUOUS
 66
1
 10
0.0
 20
0.0
 70
1
  0
VERTEX
  8
MSgnd
 10
18.044100
 20
5.210000
  0
VERTEX
  8
MSgnd
 10
18.044100
 20
5.190000
  0
VERTEX
  8
MSgnd
 10
18.173900
 20
5.190000
  0
VERTEX
  8
MSgnd
 10
18.173900
 20
5.210000
  0
VERTEX
  8
MSgnd
 10
18.044100
 20
5.210000
  0
SEQEND
  0
POLYLINE
  8
MSgnd
  6
CONTINUOUS
 66
1
 10
0.0
 20
0.0
 70
1
  0
VERTEX
  8
MSgnd
 10
18.009000
 20
5.117400
  0
VERTEX
  8
MSgnd
 10
18.016199
 20
5.117714
  0
VERTEX
  8
MSgnd
 10
18.023343
 20
5.118655
  0
VERTEX
  8
MSgnd
 10
18.030378
 20
5.120215
  0
VERTEX
  8
MSgnd
 10
18.037251
 20
5.122381
  0
VERTEX
  8
MSgnd
 10
18.043908
 20
5.125139
  0
VERTEX
  8
MSgnd
 10
18.050300
 20
5.128466
  0
VERTEX
  8
MSgnd
 10
18.056377
 20
5.132338
  0
VERTEX
  8
MSgnd
 10
18.062094
 20
5.136725
  0
VERTEX
  8
MSgnd
 10
18.067407
 20
5.141593
  0
VERTEX
  8
MSgnd
 10
18.072275
 20
5.146906
  0
VERTEX
  8
MSgnd
 10
18.076662
 20
5.152623
  0
VERTEX
  8
MSgnd
 10
18.080534
 20
5.158700
  0
VERTEX
  8
MSgnd
 10
18.083861
 20
5.165092
  0
VERTEX
  8
MSgnd
 10
18.086619
 20
5.171749
  0
VERTEX
  8
MSgnd
 10
18.088785
 20
5.178622
  0
VERTEX
  8
MSgnd
 10
18.090345
 20
5.185657
  0
VERTEX
  8
MSgnd
 10
18.091286
 20
5.192801
  0
VERTEX
  8
MSgnd
 10
18.091600
 20
5.200000
  0
VERTEX
  8
MSgnd
 10
18.099400
 20
5.200000
  0
VERTEX
  8
MSgnd
 10
18.099056
 20
5.192121
  0
VERTEX
  8
MSgnd
 10
18.098027
 20
5.184302
  0
VERTEX
  8
MSgnd
 10
18.096320
 20
5.176603
  0
VERTEX
  8
MSgnd
 10
18.093948
 20
5.169081
  0
VERTEX
  8
MSgnd
 10
18.090930
 20
5.161795
  0
VERTEX
  8
MSgnd
 10
18.087289
 20
5.154800
  0
VERTEX
  8
MSgnd
 10
18.083051
 20
5.148149
  0
VERTEX
  8
MSgnd
 10
18.078250
 20
5.141892
  0
VERTEX
  8
MSgnd
 10
18.072922
 20
5.136078
  0
VERTEX
  8
MSgnd
 10
18.067108
 20
5.130750
  0
VERTEX
  8
MSgnd
 10
18.060851
 20
5.125949
  0
VERTEX
  8
MSgnd
 10
18.054200
 20
5.121711
  0
VERTEX
  8
MSgnd
 10
18.047205
 20
5.118070
  0
VERTEX
  8
MSgnd
 10
18.039919
 20
5.115052
  0
VERTEX
  8
MSgnd
 10
18.032397
 20
5.112680
  0
VERTEX
  8
MSgnd
 10
18.024698
 20
5.110973
  0
VERTEX
  8
MSgnd
 10
18.016879
 20
5.109944
  0
VERTEX
  8
MSgnd
 10
18.009000
 20
5.109600
  0
VERTEX
  8
MSgnd
 10
18.009000
 20
5.117400
  0
SEQEND
  0
POLYLINE
  8
MSgnd
  6
CONTINUOUS
 66
1
 10
0.0
 20
0.0
 70
1
  0
VERTEX
  8
MSgnd
 10
18.009000
 20
5.090400
  0
VERTEX
  8
MSgnd
 10
18.018552
 20
5.090817
  0
VERTEX
  8
MSgnd
 10
18.028032
 20
5.092065
  0
VERTEX
  8
MSgnd
 10
18.037367
 20
5.094135
  0
VERTEX
  8
MSgnd
 10
18.046485
 20
5.097010
  0
VERTEX
  8
MSgnd
 10
18.055319
 20
5.100669
  0
VERTEX
  8
MSgnd
 10
18.063800
 20
5.105084
  0
VERTEX
  8
MSgnd
 10
18.071864
 20
5.110221
  0
VERTEX
  8
MSgnd
 10
18.079450
 20
5.116042
  0
VERTEX
  8
MSgnd
 10
18.086499
 20
5.122501
  0
VERTEX
  8
MSgnd
 10
18.092958
 20
5.129550
  0
VERTEX
  8
MSgnd
 10
18.098779
 20
5.137136
  0
VERTEX
  8
MSgnd
 10
18.103916
 20
5.145200
  0
VERTEX
  8
MSgnd
 10
18.108331
 20
5.153681
  0
VERTEX
  8
MSgnd
 10
18.111990
 20
5.162515
  0
VERTEX
  8
MSgnd
 10
18.114865
 20
5.171633
  0
VERTEX
  8
MSgnd
 10
18.116935
 20
5.180968
  0
VERTEX
  8
MSgnd
 10
18.118183
 20
5.190448
  0
VERTEX
  8
MSgnd
 10
18.118600
 20
5.200000
  0
VERTEX
  8
MSgnd
 10
18.126400
 20
5.200000
  0
VERTEX
  8
MSgnd
 10
18.125953
 20
5.189768
  0
VERTEX
  8
MSgnd
 10
18.124616
 20
5.179614
  0
VERTEX
  8
MSgnd
 10
18.122400
 20
5.169615
  0
VERTEX
  8
MSgnd
 10
18.119320
 20
5.159847
  0
VERTEX
  8
MSgnd
 10
18.115401
 20
5.150385
  0
VERTEX
  8
MSgnd
 10
18.110671
 20
5.141300
  0
VERTEX
  8
MSgnd
 10
18.105168
 20
5.132662
  0
VERTEX
  8
MSgnd
 10
18.098934
 20
5.124537
  0
VERTEX
  8
MSgnd
 10
18.092014
 20
5.116986
  0
VERTEX
  8
MSgnd
 10
18.084463
 20
5.110066
  0
VERTEX
  8
MSgnd
 10
18.076338
 20
5.103832
  0
VERTEX
  8
MSgnd
 10
18.067700
 20
5.098329
  0
VERTEX
  8
MSgnd
 10
18.058615
 20
5.093599
  0
VERTEX
  8
MSgnd
 10
18.049153
 20
5.089680
  0
VERTEX
  8
MSgnd
 10
18.039385
 20
5.086600
  0
VERTEX
  8
MSgnd
 10
18.029386
 20
5.084384
  0
VERTEX
  8
MSgnd
 10
18.019232
 20
5.083047
  0
VERTEX
  8
MSgnd
 10
18.009000
 20
5.082600
  0
VERTEX
  8
MSgnd
 10
18.009000
 20
5.090400
  0
SEQEND
  0
POLYLINE
  8
MSgnd
  6
CONTINUOUS
 66
1
 10
0.0
 20
0.0
 70
1
  0
VERTEX
  8
MSgnd
 10
18.019000
 20
5.164900
  0
VERTEX
  8
MSgnd
 10
17.999000
 20
5.164900
  0
VERTEX
  8
MSgnd
 10
17.999000
 20
5.035100
  0
VERTEX
  8
MSgnd
 10
18.019000
 20
5.035100
  0
VERTEX
  8
MSgnd
 10
18.019000
 20
5.164900
  0
SEQEND
  0
POLYLINE
  8
MSgnd
  6
CONTINUOUS
 66
1
 10
0.0
 20
0.0
 70
1
  0
VERTEX
  8
MSgnd
 10
41.000000
 20
1.909600
  0
VERTEX
  8
MSgnd
 10
41.000000
 20
1.917400
  0
VERTEX
  8
MSgnd
 10
41.500000
 20
2.425000
  0
VERTEX
  8
MSgnd
 10
41.500000
 20
2.200000
  0
VERTEX
  8
MSgnd
 10
41.000000
 20
1.909600
  0
SEQEND
  0
POLYLINE
  8
MSgnd
  6
CONTINUOUS
 66
1
 10
0.0
 20
0.0
 70
1
  0
VERTEX
  8
MSgnd
 10
41.000000
 20
1.890400
  0
VERTEX
  8
MSgnd
 10
41.000000
 20
1.882600
  0
VERTEX
  8
MSgnd
 10
41.500000
 20
1.375000
  0
VERTEX
  8
MSgnd
 10
41.500000
 20
1.600000
  0
VERTEX
  8
MSgnd
 10
41.000000
 20
1.890400
  0
SEQEND
  0
POLYLINE
  8
MSgnd
  6
CONTINUOUS
 66
1
 10
0.0
 20
0.0
 70
1
  0
VERTEX
  8
MSgnd
 10
41.500000
 20
2.200000
  0
VERTEX
  8
MSgnd
 10
41.900000
 20
2.200000
  0
VERTEX
  8
MSgnd
 10
41.900000
 20
2.425000
  0
VERTEX
  8
MSgnd
 10
41.500000
 20
2.425000
  0
VERTEX
  8
MSgnd
 10
41.500000
 20
2.200000
  0
SEQEND
  0
POLYLINE
  8
MSgnd
  6
CONTINUOUS
 66
1
 10
0.0
 20
0.0
 70
1
  0
VERTEX
  8
MSgnd
 10
41.500000
 20
1.375000
  0
VERTEX
  8
MSgnd
 10
41.900000
 20
1.375000
  0
VERTEX
  8
MSgnd
 10
41.900000
 20
1.600000
  0
VERTEX
  8
MSgnd
 10
41.500000
 20
1.600000
  0
VERTEX
  8
MSgnd
 10
41.500000
 20
1.375000
  0
SEQEND
  0
POLYLINE
  8
MSgnd
  6
CONTINUOUS
 66
1
 10
0.0
 20
0.0
 70
1
  0
VERTEX
  8
MSgnd
 10
41.900000
 20
2.425000
  0
VERTEX
  8
MSgnd
 10
41.850000
 20
2.425000
  0
VERTEX
  8
MSgnd
 10
41.850000
 20
1.375000
  0
VERTEX
  8
MSgnd
 10
41.900000
 20
1.375000
  0
VERTEX
  8
MSgnd
 10
41.900000
 20
2.425000
  0
SEQEND
  0
ENDSEC
  0
EOF
