  0
SECTION
  2
HEADER
  9
$ACADVER
  1
AC1006
  9
$INSBASE
 10
0.0
 20
0.0
  9
$EXTMIN
 10
-150
 20
-150
  9
$EXTMAX
 10
150
 20
150
  9
$LIMMIN
 10
0.0
 20
0.0
  9
$LIMMAX
 10
300.0
 20
225.0
  9
$VIEWCTR
 10
7.378144
 20
4.5
  9
$VIEWSIZE
 40
9.0
  9
$SNAPMODE
 70
0
  9
$SNAPUNIT
 10
1.0
 20
1.0
  9
$SNAPBASE
 10
0.0
 20
0.0
  9
$SNAPANG
 50
0.0
  9
$SNAPSTYLE
 70
     0
  9
$SNAPISOPAIR
 70
     0
  9
$GRIDMODE
 70
     0
  9
$GRIDUNIT
 10
0.0
 20
0.0
  9
$ORTHOMODE
 70
     0
  9
$REGENMODE
 70
     1
  9
$FILLMODE
 70
     1
  9
$QTEXTMODE
 70
     0
  9
$DRAGMODE
 70
     2
  9
$LTSCALE
 40
1.0
  9
$OSMODE
 70
     0
  9
$ATTMODE
 70
     1
  9
$TEXTSIZE
 40
0.2
  9
$TRACEWID
 40
0.05
  9
$TEXTSTYLE
  7
STANDARD
  9
$CLAYER
  8
0
  9
$CELTYPE
  6
BYLAYER
  9
$CECOLOR
 62
   256
  9
$DIMSCALE
 40
1.0
  9
$DIMASZ
 40
0.18
  9
$DIMEXO
 40
0.0625
  9
$DIMDLI
 40
0.38
  9
$DIMRND
 40
0.0
  9
$DIMDLE
 40
0.0
  9
$DIMEXE
 40
0.18
  9
$DIMTP
 40
0.0
  9
$DIMTM
 40
0.0
  9
$DIMTXT
 40
0.18
  9
$DIMCEN
 40
0.09
  9
$DIMTSZ
 40
0.0
  9
$DIMTOL
 70
     0
  9
$DIMLIM
 70
     0
  9
$DIMTIH
 70
     1
  9
$DIMTOH
 70
     1
  9
$DIMSE1
 70
     0
  9
$DIMSE2
 70
     0
  9
$DIMTAD
 70
     0
  9
$DIMZIN
 70
     0
  9
$DIMBLK
  1

  9
$DIMASO
 70
     1
  9
$DIMSHO
 70
     0
  9
$DIMPOST
  1

  9
$DIMAPOST
  1

  9
$DIMALT
 70
     0
  9
$DIMALTD
 70
     2
  9
$DIMALTF
 40
25.4
  9
$DIMLFAC
 40
1.0
  9
$LUNITS
 70
     2
  9
$LUPREC
 70
     4
  9
$AXISMODE
 70
     0
  9
$AXISUNIT
 10
0.0
 20
0.0
  9
$SKETCHINC
 40
0.1
  9
$FILLETRAD
 40
0.0
  9
$AUNITS
 70
     0
  9
$AUPREC
 70
     0
  9
$MENU
  1
ACAD
  9
$ELEVATION
 40
0.0
  9
$THICKNESS
 40
0.0
  9
$VIEWDIR
 10
0.0
 20
0.0
 30
0.0
  9
$LIMCHECK
 70
     0
  9
$BLIPMODE
 70
     1
  9
$CHAMFERA
 40
0.0
  9
$CHAMFERB
 40
0.0
  9
$FASTZOOM
 70
     1
  9
$SKPOLY
 70
     0
  9
$TDCREATE
 40
2447732.6512363921
  9
$TDUPDATE
 40
2447732.6512363921
  9
$TDINDWG
 40
0.0000000000
  9
$TDUSRTIMER
 40
0.0000000000
  9
$USRTIMER
 70
     1
  9
$ANGBASE
 50
0.0
  9
$ANGDIR
 70
     0
  9
$PDMODE
 70
     0
  9
$PDSIZE
 40
0.0
  9
$PLINEWID
 40
0.0
  9
$COORDS
 70
     0
  9
$USERI1
 70
     0
  9
$USERI2
 70
     0
  9
$USERI3
 70
     0
  9
$USERI4
 70
     0
  9
$USERI5
 70
     0
  9
$USERR1
 40
0.0
  9
$USERR2
 40
0.0
  9
$USERR3
 40
0.0
  9
$USERR4
 40
0.0
  9
$USERR5
 40
0.0
  0
ENDSEC
  0
SECTION
  2
TABLES
  0
TABLE
  2
LAYER
 70
9
  0
LAYER
  2
SiNwafer
 70
0
 62
2
  6
CONTINUOUS
  0
LAYER
  2
MSgnd
 70
0
 62
3
  6
CONTINUOUS
  0
LAYER
  2
SiNdiel
 70
0
 62
4
  6
CONTINUOUS
  0
LAYER
  2
MSline
 70
0
 62
5
  6
CONTINUOUS
  0
LAYER
  2
Hybrids
 70
0
 62
6
  6
CONTINUOUS
  0
LAYER
  2
TantalumFront
 70
0
 62
7
  6
CONTINUOUS
  0
LAYER
  2
TantalumBack
 70
0
 62
1
  6
CONTINUOUS
  0
LAYER
  2
SiNbackside
 70
0
 62
2
  6
CONTINUOUS
  0
LAYER
  2
text
 70
0
 62
3
  6
CONTINUOUS
  0
ENDTAB
  0
ENDSEC
  0
SECTION
  2
BLOCKS
  0
BLOCK
  8
0
  2
*MODEL_SPACE
 70
0
 10
0.0
 20
0.0
 30
0.0
  3
*MODEL_SPACE
  1

  0
ENDBLK
  8
0
  0
BLOCK
 67
1
  8
0
  2
*PAPER_SPACE
 70
0
 10
0.0
 20
0.0
 30
0.0
  3
*PAPER_SPACE
  1

  0
ENDBLK
  8
0
  0
BLOCK
  8
0
  2
leaky_cpw
 70
0
 10
0.0
 20
0.0
 30
0.0
  3
leaky_cpw
  1

  0
POLYLINE
  8
text
  6
CONTINUOUS
 66
1
 10
0.0
 20
0.0
 70
1
  0
VERTEX
  8
text
 10
0.000000
 20
0.000000
  0
VERTEX
  8
text
 10
2.000000
 20
0.000000
  0
VERTEX
  8
text
 10
2.000000
 20
0.050000
  0
VERTEX
  8
text
 10
0.000000
 20
0.050000
  0
VERTEX
  8
text
 10
0.000000
 20
0.000000
  0
SEQEND
  0
POLYLINE
  8
text
  6
CONTINUOUS
 66
1
 10
0.0
 20
0.0
 70
1
  0
VERTEX
  8
text
 10
0.050000
 20
0.000000
  0
VERTEX
  8
text
 10
0.050000
 20
2.000000
  0
VERTEX
  8
text
 10
0.000000
 20
2.000000
  0
VERTEX
  8
text
 10
0.000000
 20
0.000000
  0
VERTEX
  8
text
 10
0.050000
 20
0.000000
  0
SEQEND
  0
POLYLINE
  8
text
  6
CONTINUOUS
 66
1
 10
0.0
 20
0.0
 70
1
  0
VERTEX
  8
text
 10
20.000000
 20
0.000000
  0
VERTEX
  8
text
 10
20.000000
 20
2.000000
  0
VERTEX
  8
text
 10
19.950000
 20
2.000000
  0
VERTEX
  8
text
 10
19.950000
 20
0.000000
  0
VERTEX
  8
text
 10
20.000000
 20
0.000000
  0
SEQEND
  0
POLYLINE
  8
text
  6
CONTINUOUS
 66
1
 10
0.0
 20
0.0
 70
1
  0
VERTEX
  8
text
 10
20.000000
 20
0.050000
  0
VERTEX
  8
text
 10
18.000000
 20
0.050000
  0
VERTEX
  8
text
 10
18.000000
 20
0.000000
  0
VERTEX
  8
text
 10
20.000000
 20
0.000000
  0
VERTEX
  8
text
 10
20.000000
 20
0.050000
  0
SEQEND
  0
POLYLINE
  8
text
  6
CONTINUOUS
 66
1
 10
0.0
 20
0.0
 70
1
  0
VERTEX
  8
text
 10
20.000000
 20
20.000000
  0
VERTEX
  8
text
 10
18.000000
 20
20.000000
  0
VERTEX
  8
text
 10
18.000000
 20
19.950000
  0
VERTEX
  8
text
 10
20.000000
 20
19.950000
  0
VERTEX
  8
text
 10
20.000000
 20
20.000000
  0
SEQEND
  0
POLYLINE
  8
text
  6
CONTINUOUS
 66
1
 10
0.0
 20
0.0
 70
1
  0
VERTEX
  8
text
 10
19.950000
 20
20.000000
  0
VERTEX
  8
text
 10
19.950000
 20
18.000000
  0
VERTEX
  8
text
 10
20.000000
 20
18.000000
  0
VERTEX
  8
text
 10
20.000000
 20
20.000000
  0
VERTEX
  8
text
 10
19.950000
 20
20.000000
  0
SEQEND
  0
POLYLINE
  8
text
  6
CONTINUOUS
 66
1
 10
0.0
 20
0.0
 70
1
  0
VERTEX
  8
text
 10
0.000000
 20
20.000000
  0
VERTEX
  8
text
 10
0.000000
 20
18.000000
  0
VERTEX
  8
text
 10
0.050000
 20
18.000000
  0
VERTEX
  8
text
 10
0.050000
 20
20.000000
  0
VERTEX
  8
text
 10
0.000000
 20
20.000000
  0
SEQEND
  0
POLYLINE
  8
text
  6
CONTINUOUS
 66
1
 10
0.0
 20
0.0
 70
1
  0
VERTEX
  8
text
 10
0.000000
 20
19.950000
  0
VERTEX
  8
text
 10
2.000000
 20
19.950000
  0
VERTEX
  8
text
 10
2.000000
 20
20.000000
  0
VERTEX
  8
text
 10
0.000000
 20
20.000000
  0
VERTEX
  8
text
 10
0.000000
 20
19.950000
  0
SEQEND
  0
POLYLINE
  8
MSgnd
  6
CONTINUOUS
 66
1
 10
0.0
 20
0.0
 70
1
  0
VERTEX
  8
MSgnd
 10
9.998500
 20
10.001000
  0
VERTEX
  8
MSgnd
 10
9.998500
 20
9.999000
  0
VERTEX
  8
MSgnd
 10
10.001500
 20
9.999000
  0
VERTEX
  8
MSgnd
 10
10.001500
 20
10.001000
  0
VERTEX
  8
MSgnd
 10
9.998500
 20
10.001000
  0
SEQEND
  0
POLYLINE
  8
MSgnd
  6
CONTINUOUS
 66
1
 10
0.0
 20
0.0
 70
1
  0
VERTEX
  8
MSgnd
 10
10.001500
 20
9.999000
  0
VERTEX
  8
MSgnd
 10
11.389000
 20
9.604500
  0
VERTEX
  8
MSgnd
 10
11.389000
 20
10.395500
  0
VERTEX
  8
MSgnd
 10
10.001500
 20
10.001000
  0
VERTEX
  8
MSgnd
 10
10.001500
 20
9.999000
  0
SEQEND
  0
POLYLINE
  8
MSgnd
  6
CONTINUOUS
 66
1
 10
0.0
 20
0.0
 70
1
  0
VERTEX
  8
MSgnd
 10
9.998500
 20
10.001000
  0
VERTEX
  8
MSgnd
 10
8.611000
 20
10.395500
  0
VERTEX
  8
MSgnd
 10
8.611000
 20
9.604500
  0
VERTEX
  8
MSgnd
 10
9.998500
 20
9.999000
  0
VERTEX
  8
MSgnd
 10
9.998500
 20
10.001000
  0
SEQEND
  0
POLYLINE
  8
SiNbackside
  6
CONTINUOUS
 66
1
 10
0.0
 20
0.0
 70
1
  0
VERTEX
  8
SiNbackside
 10
8.252186
 20
11.747814
  0
VERTEX
  8
SiNbackside
 10
8.252186
 20
8.252186
  0
VERTEX
  8
SiNbackside
 10
11.747814
 20
8.252186
  0
VERTEX
  8
SiNbackside
 10
11.747814
 20
11.747814
  0
VERTEX
  8
SiNbackside
 10
8.252186
 20
11.747814
  0
SEQEND
  0
POLYLINE
  8
Hybrids
  6
CONTINUOUS
 66
1
 10
0.0
 20
0.0
 70
1
  0
VERTEX
  8
Hybrids
 10
10.001300
 20
9.999000
  0
VERTEX
  8
Hybrids
 10
10.001300
 20
10.006000
  0
VERTEX
  8
Hybrids
 10
9.998700
 20
10.006000
  0
VERTEX
  8
Hybrids
 10
9.998700
 20
9.999000
  0
VERTEX
  8
Hybrids
 10
10.001300
 20
9.999000
  0
SEQEND
  0
POLYLINE
  8
Hybrids
  6
CONTINUOUS
 66
1
 10
0.0
 20
0.0
 70
1
  0
VERTEX
  8
Hybrids
 10
9.998700
 20
9.999000
  0
VERTEX
  8
Hybrids
 10
9.998700
 20
9.999000
  0
VERTEX
  8
Hybrids
 10
10.001300
 20
9.999000
  0
VERTEX
  8
Hybrids
 10
10.001300
 20
9.999000
  0
VERTEX
  8
Hybrids
 10
9.998700
 20
9.999000
  0
SEQEND
  0
POLYLINE
  8
MSgnd
  6
CONTINUOUS
 66
1
 10
0.0
 20
0.0
 70
1
  0
VERTEX
  8
MSgnd
 10
9.996700
 20
9.999000
  0
VERTEX
  8
MSgnd
 10
9.996700
 20
9.999000
  0
VERTEX
  8
MSgnd
 10
10.003300
 20
9.999000
  0
VERTEX
  8
MSgnd
 10
10.003300
 20
9.999000
  0
VERTEX
  8
MSgnd
 10
9.996700
 20
9.999000
  0
SEQEND
  0
POLYLINE
  8
Hybrids
  6
CONTINUOUS
 66
1
 10
0.0
 20
0.0
 70
1
  0
VERTEX
  8
Hybrids
 10
9.998700
 20
9.999000
  0
VERTEX
  8
Hybrids
 10
9.998700
 20
8.499000
  0
VERTEX
  8
Hybrids
 10
10.001300
 20
8.499000
  0
VERTEX
  8
Hybrids
 10
10.001300
 20
9.999000
  0
VERTEX
  8
Hybrids
 10
9.998700
 20
9.999000
  0
SEQEND
  0
POLYLINE
  8
MSgnd
  6
CONTINUOUS
 66
1
 10
0.0
 20
0.0
 70
1
  0
VERTEX
  8
MSgnd
 10
9.996700
 20
9.999000
  0
VERTEX
  8
MSgnd
 10
9.996700
 20
8.499000
  0
VERTEX
  8
MSgnd
 10
10.003300
 20
8.499000
  0
VERTEX
  8
MSgnd
 10
10.003300
 20
9.999000
  0
VERTEX
  8
MSgnd
 10
9.996700
 20
9.999000
  0
SEQEND
  0
POLYLINE
  8
Hybrids
  6
CONTINUOUS
 66
1
 10
0.0
 20
0.0
 70
1
  0
VERTEX
  8
Hybrids
 10
9.998700
 20
8.499000
  0
VERTEX
  8
Hybrids
 10
9.998700
 20
8.485000
  0
VERTEX
  8
Hybrids
 10
10.001300
 20
8.485000
  0
VERTEX
  8
Hybrids
 10
10.001300
 20
8.499000
  0
VERTEX
  8
Hybrids
 10
9.998700
 20
8.499000
  0
SEQEND
  0
POLYLINE
  8
MSgnd
  6
CONTINUOUS
 66
1
 10
0.0
 20
0.0
 70
1
  0
VERTEX
  8
MSgnd
 10
9.998700
 20
8.499000
  0
VERTEX
  8
MSgnd
 10
9.998450
 20
8.492000
  0
VERTEX
  8
MSgnd
 10
10.001550
 20
8.492000
  0
VERTEX
  8
MSgnd
 10
10.001300
 20
8.499000
  0
VERTEX
  8
MSgnd
 10
9.998700
 20
8.499000
  0
SEQEND
  0
POLYLINE
  8
MSgnd
  6
CONTINUOUS
 66
1
 10
0.0
 20
0.0
 70
1
  0
VERTEX
  8
MSgnd
 10
10.000000
 20
8.499000
  0
VERTEX
  8
MSgnd
 10
10.003300
 20
8.499000
  0
VERTEX
  8
MSgnd
 10
10.018900
 20
8.478000
  0
VERTEX
  8
MSgnd
 10
10.003100
 20
8.478000
  0
VERTEX
  8
MSgnd
 10
10.000000
 20
8.499000
  0
SEQEND
  0
POLYLINE
  8
MSgnd
  6
CONTINUOUS
 66
1
 10
0.0
 20
0.0
 70
1
  0
VERTEX
  8
MSgnd
 10
10.000000
 20
8.499000
  0
VERTEX
  8
MSgnd
 10
9.996700
 20
8.499000
  0
VERTEX
  8
MSgnd
 10
9.981100
 20
8.478000
  0
VERTEX
  8
MSgnd
 10
9.996900
 20
8.478000
  0
VERTEX
  8
MSgnd
 10
10.000000
 20
8.499000
  0
SEQEND
  0
POLYLINE
  8
MSgnd
  6
CONTINUOUS
 66
1
 10
0.0
 20
0.0
 70
1
  0
VERTEX
  8
MSgnd
 10
10.003100
 20
8.478000
  0
VERTEX
  8
MSgnd
 10
10.003100
 20
8.457000
  0
VERTEX
  8
MSgnd
 10
10.018900
 20
8.457000
  0
VERTEX
  8
MSgnd
 10
10.018900
 20
8.478000
  0
VERTEX
  8
MSgnd
 10
10.003100
 20
8.478000
  0
SEQEND
  0
POLYLINE
  8
MSgnd
  6
CONTINUOUS
 66
1
 10
0.0
 20
0.0
 70
1
  0
VERTEX
  8
MSgnd
 10
9.981100
 20
8.478000
  0
VERTEX
  8
MSgnd
 10
9.981100
 20
8.457000
  0
VERTEX
  8
MSgnd
 10
9.996900
 20
8.457000
  0
VERTEX
  8
MSgnd
 10
9.996900
 20
8.478000
  0
VERTEX
  8
MSgnd
 10
9.981100
 20
8.478000
  0
SEQEND
  0
POLYLINE
  8
MSgnd
  6
CONTINUOUS
 66
1
 10
0.0
 20
0.0
 70
1
  0
VERTEX
  8
MSgnd
 10
10.003100
 20
8.457000
  0
VERTEX
  8
MSgnd
 10
10.003100
 20
4.751012
  0
VERTEX
  8
MSgnd
 10
10.018900
 20
4.751012
  0
VERTEX
  8
MSgnd
 10
10.018900
 20
8.457000
  0
VERTEX
  8
MSgnd
 10
10.003100
 20
8.457000
  0
SEQEND
  0
POLYLINE
  8
MSgnd
  6
CONTINUOUS
 66
1
 10
0.0
 20
0.0
 70
1
  0
VERTEX
  8
MSgnd
 10
9.981100
 20
8.457000
  0
VERTEX
  8
MSgnd
 10
9.981100
 20
4.751012
  0
VERTEX
  8
MSgnd
 10
9.996900
 20
4.751012
  0
VERTEX
  8
MSgnd
 10
9.996900
 20
8.457000
  0
VERTEX
  8
MSgnd
 10
9.981100
 20
8.457000
  0
SEQEND
  0
POLYLINE
  8
MSgnd
  6
CONTINUOUS
 66
1
 10
0.0
 20
0.0
 70
1
  0
VERTEX
  8
MSgnd
 10
9.981100
 20
4.751012
  0
VERTEX
  8
MSgnd
 10
9.981100
 20
4.735212
  0
VERTEX
  8
MSgnd
 10
10.018900
 20
4.735212
  0
VERTEX
  8
MSgnd
 10
10.018900
 20
4.751012
  0
VERTEX
  8
MSgnd
 10
9.981100
 20
4.751012
  0
SEQEND
  0
POLYLINE
  8
SiNwafer
  6
CONTINUOUS
 66
1
 10
0.0
 20
0.0
 70
1
  0
VERTEX
  8
SiNwafer
 10
1.000000
 20
9.415000
  0
VERTEX
  8
SiNwafer
 10
0.100000
 20
9.415000
  0
VERTEX
  8
SiNwafer
 10
0.100000
 20
10.585000
  0
VERTEX
  8
SiNwafer
 10
1.000000
 20
10.585000
  0
VERTEX
  8
SiNwafer
 10
1.000000
 20
9.415000
  0
SEQEND
  0
POLYLINE
  8
MSgnd
  6
CONTINUOUS
 66
1
 10
0.0
 20
0.0
 70
1
  0
VERTEX
  8
MSgnd
 10
1.000000
 20
10.009600
  0
VERTEX
  8
MSgnd
 10
1.000000
 20
10.017400
  0
VERTEX
  8
MSgnd
 10
0.500000
 20
10.525000
  0
VERTEX
  8
MSgnd
 10
0.500000
 20
10.300000
  0
VERTEX
  8
MSgnd
 10
1.000000
 20
10.009600
  0
SEQEND
  0
POLYLINE
  8
MSgnd
  6
CONTINUOUS
 66
1
 10
0.0
 20
0.0
 70
1
  0
VERTEX
  8
MSgnd
 10
1.000000
 20
9.990400
  0
VERTEX
  8
MSgnd
 10
1.000000
 20
9.982600
  0
VERTEX
  8
MSgnd
 10
0.500000
 20
9.475000
  0
VERTEX
  8
MSgnd
 10
0.500000
 20
9.700000
  0
VERTEX
  8
MSgnd
 10
1.000000
 20
9.990400
  0
SEQEND
  0
POLYLINE
  8
MSgnd
  6
CONTINUOUS
 66
1
 10
0.0
 20
0.0
 70
1
  0
VERTEX
  8
MSgnd
 10
0.500000
 20
10.300000
  0
VERTEX
  8
MSgnd
 10
0.100000
 20
10.300000
  0
VERTEX
  8
MSgnd
 10
0.100000
 20
10.525000
  0
VERTEX
  8
MSgnd
 10
0.500000
 20
10.525000
  0
VERTEX
  8
MSgnd
 10
0.500000
 20
10.300000
  0
SEQEND
  0
POLYLINE
  8
MSgnd
  6
CONTINUOUS
 66
1
 10
0.0
 20
0.0
 70
1
  0
VERTEX
  8
MSgnd
 10
0.500000
 20
9.475000
  0
VERTEX
  8
MSgnd
 10
0.100000
 20
9.475000
  0
VERTEX
  8
MSgnd
 10
0.100000
 20
9.700000
  0
VERTEX
  8
MSgnd
 10
0.500000
 20
9.700000
  0
VERTEX
  8
MSgnd
 10
0.500000
 20
9.475000
  0
SEQEND
  0
POLYLINE
  8
MSgnd
  6
CONTINUOUS
 66
1
 10
0.0
 20
0.0
 70
1
  0
VERTEX
  8
MSgnd
 10
0.100000
 20
10.525000
  0
VERTEX
  8
MSgnd
 10
0.150000
 20
10.525000
  0
VERTEX
  8
MSgnd
 10
0.150000
 20
9.475000
  0
VERTEX
  8
MSgnd
 10
0.100000
 20
9.475000
  0
VERTEX
  8
MSgnd
 10
0.100000
 20
10.525000
  0
SEQEND
  0
POLYLINE
  8
SiNwafer
  6
CONTINUOUS
 66
1
 10
0.0
 20
0.0
 70
1
  0
VERTEX
  8
SiNwafer
 10
1.000000
 20
9.986500
  0
VERTEX
  8
SiNwafer
 10
2.500000
 20
9.986500
  0
VERTEX
  8
SiNwafer
 10
2.500000
 20
10.013500
  0
VERTEX
  8
SiNwafer
 10
1.000000
 20
10.013500
  0
VERTEX
  8
SiNwafer
 10
1.000000
 20
9.986500
  0
SEQEND
  0
POLYLINE
  8
MSgnd
  6
CONTINUOUS
 66
1
 10
0.0
 20
0.0
 70
1
  0
VERTEX
  8
MSgnd
 10
1.000000
 20
10.009600
  0
VERTEX
  8
MSgnd
 10
2.500000
 20
10.009600
  0
VERTEX
  8
MSgnd
 10
2.500000
 20
10.017400
  0
VERTEX
  8
MSgnd
 10
1.000000
 20
10.017400
  0
VERTEX
  8
MSgnd
 10
1.000000
 20
10.009600
  0
SEQEND
  0
POLYLINE
  8
MSgnd
  6
CONTINUOUS
 66
1
 10
0.0
 20
0.0
 70
1
  0
VERTEX
  8
MSgnd
 10
1.000000
 20
9.982600
  0
VERTEX
  8
MSgnd
 10
2.500000
 20
9.982600
  0
VERTEX
  8
MSgnd
 10
2.500000
 20
9.990400
  0
VERTEX
  8
MSgnd
 10
1.000000
 20
9.990400
  0
VERTEX
  8
MSgnd
 10
1.000000
 20
9.982600
  0
SEQEND
  0
POLYLINE
  8
SiNdiel
  6
CONTINUOUS
 66
1
 10
0.0
 20
0.0
 70
1
  0
VERTEX
  8
SiNdiel
 10
2.480000
 20
9.967600
  0
VERTEX
  8
SiNdiel
 10
2.520000
 20
9.967600
  0
VERTEX
  8
SiNdiel
 10
2.520000
 20
10.032400
  0
VERTEX
  8
SiNdiel
 10
2.480000
 20
10.032400
  0
VERTEX
  8
SiNdiel
 10
2.480000
 20
9.967600
  0
SEQEND
  0
POLYLINE
  8
Hybrids
  6
CONTINUOUS
 66
1
 10
0.0
 20
0.0
 70
1
  0
VERTEX
  8
Hybrids
 10
2.490000
 20
9.935100
  0
VERTEX
  8
Hybrids
 10
2.510000
 20
9.935100
  0
VERTEX
  8
Hybrids
 10
2.510000
 20
10.064900
  0
VERTEX
  8
Hybrids
 10
2.490000
 20
10.064900
  0
VERTEX
  8
Hybrids
 10
2.490000
 20
9.935100
  0
SEQEND
  0
POLYLINE
  8
SiNwafer
  6
CONTINUOUS
 66
1
 10
0.0
 20
0.0
 70
1
  0
VERTEX
  8
SiNwafer
 10
2.586500
 20
9.900000
  0
VERTEX
  8
SiNwafer
 10
2.586171
 20
9.907539
  0
VERTEX
  8
SiNwafer
 10
2.585186
 20
9.915021
  0
VERTEX
  8
SiNwafer
 10
2.583553
 20
9.922388
  0
VERTEX
  8
SiNwafer
 10
2.581283
 20
9.929585
  0
VERTEX
  8
SiNwafer
 10
2.578396
 20
9.936556
  0
VERTEX
  8
SiNwafer
 10
2.574911
 20
9.943250
  0
VERTEX
  8
SiNwafer
 10
2.570857
 20
9.949614
  0
VERTEX
  8
SiNwafer
 10
2.566263
 20
9.955601
  0
VERTEX
  8
SiNwafer
 10
2.561165
 20
9.961165
  0
VERTEX
  8
SiNwafer
 10
2.555601
 20
9.966263
  0
VERTEX
  8
SiNwafer
 10
2.549614
 20
9.970857
  0
VERTEX
  8
SiNwafer
 10
2.543250
 20
9.974911
  0
VERTEX
  8
SiNwafer
 10
2.536556
 20
9.978396
  0
VERTEX
  8
SiNwafer
 10
2.529585
 20
9.981283
  0
VERTEX
  8
SiNwafer
 10
2.522388
 20
9.983553
  0
VERTEX
  8
SiNwafer
 10
2.515021
 20
9.985186
  0
VERTEX
  8
SiNwafer
 10
2.507539
 20
9.986171
  0
VERTEX
  8
SiNwafer
 10
2.500000
 20
9.986500
  0
VERTEX
  8
SiNwafer
 10
2.500000
 20
10.013500
  0
VERTEX
  8
SiNwafer
 10
2.509892
 20
10.013068
  0
VERTEX
  8
SiNwafer
 10
2.519709
 20
10.011776
  0
VERTEX
  8
SiNwafer
 10
2.529376
 20
10.009633
  0
VERTEX
  8
SiNwafer
 10
2.538819
 20
10.006655
  0
VERTEX
  8
SiNwafer
 10
2.547967
 20
10.002866
  0
VERTEX
  8
SiNwafer
 10
2.556750
 20
9.998294
  0
VERTEX
  8
SiNwafer
 10
2.565101
 20
9.992974
  0
VERTEX
  8
SiNwafer
 10
2.572956
 20
9.986946
  0
VERTEX
  8
SiNwafer
 10
2.580257
 20
9.980257
  0
VERTEX
  8
SiNwafer
 10
2.586946
 20
9.972956
  0
VERTEX
  8
SiNwafer
 10
2.592974
 20
9.965101
  0
VERTEX
  8
SiNwafer
 10
2.598294
 20
9.956750
  0
VERTEX
  8
SiNwafer
 10
2.602866
 20
9.947967
  0
VERTEX
  8
SiNwafer
 10
2.606655
 20
9.938819
  0
VERTEX
  8
SiNwafer
 10
2.609633
 20
9.929376
  0
VERTEX
  8
SiNwafer
 10
2.611776
 20
9.919709
  0
VERTEX
  8
SiNwafer
 10
2.613068
 20
9.909892
  0
VERTEX
  8
SiNwafer
 10
2.613500
 20
9.900000
  0
VERTEX
  8
SiNwafer
 10
2.586500
 20
9.900000
  0
SEQEND
  0
POLYLINE
  8
MSgnd
  6
CONTINUOUS
 66
1
 10
0.0
 20
0.0
 70
1
  0
VERTEX
  8
MSgnd
 10
2.582600
 20
9.900000
  0
VERTEX
  8
MSgnd
 10
2.582286
 20
9.907199
  0
VERTEX
  8
MSgnd
 10
2.581345
 20
9.914343
  0
VERTEX
  8
MSgnd
 10
2.579785
 20
9.921378
  0
VERTEX
  8
MSgnd
 10
2.577619
 20
9.928251
  0
VERTEX
  8
MSgnd
 10
2.574861
 20
9.934908
  0
VERTEX
  8
MSgnd
 10
2.571534
 20
9.941300
  0
VERTEX
  8
MSgnd
 10
2.567662
 20
9.947377
  0
VERTEX
  8
MSgnd
 10
2.563275
 20
9.953094
  0
VERTEX
  8
MSgnd
 10
2.558407
 20
9.958407
  0
VERTEX
  8
MSgnd
 10
2.553094
 20
9.963275
  0
VERTEX
  8
MSgnd
 10
2.547377
 20
9.967662
  0
VERTEX
  8
MSgnd
 10
2.541300
 20
9.971534
  0
VERTEX
  8
MSgnd
 10
2.534908
 20
9.974861
  0
VERTEX
  8
MSgnd
 10
2.528251
 20
9.977619
  0
VERTEX
  8
MSgnd
 10
2.521378
 20
9.979785
  0
VERTEX
  8
MSgnd
 10
2.514343
 20
9.981345
  0
VERTEX
  8
MSgnd
 10
2.507199
 20
9.982286
  0
VERTEX
  8
MSgnd
 10
2.500000
 20
9.982600
  0
VERTEX
  8
MSgnd
 10
2.500000
 20
9.990400
  0
VERTEX
  8
MSgnd
 10
2.507879
 20
9.990056
  0
VERTEX
  8
MSgnd
 10
2.515698
 20
9.989027
  0
VERTEX
  8
MSgnd
 10
2.523397
 20
9.987320
  0
VERTEX
  8
MSgnd
 10
2.530919
 20
9.984948
  0
VERTEX
  8
MSgnd
 10
2.538205
 20
9.981930
  0
VERTEX
  8
MSgnd
 10
2.545200
 20
9.978289
  0
VERTEX
  8
MSgnd
 10
2.551851
 20
9.974051
  0
VERTEX
  8
MSgnd
 10
2.558108
 20
9.969250
  0
VERTEX
  8
MSgnd
 10
2.563922
 20
9.963922
  0
VERTEX
  8
MSgnd
 10
2.569250
 20
9.958108
  0
VERTEX
  8
MSgnd
 10
2.574051
 20
9.951851
  0
VERTEX
  8
MSgnd
 10
2.578289
 20
9.945200
  0
VERTEX
  8
MSgnd
 10
2.581930
 20
9.938205
  0
VERTEX
  8
MSgnd
 10
2.584948
 20
9.930919
  0
VERTEX
  8
MSgnd
 10
2.587320
 20
9.923397
  0
VERTEX
  8
MSgnd
 10
2.589027
 20
9.915698
  0
VERTEX
  8
MSgnd
 10
2.590056
 20
9.907879
  0
VERTEX
  8
MSgnd
 10
2.590400
 20
9.900000
  0
VERTEX
  8
MSgnd
 10
2.582600
 20
9.900000
  0
SEQEND
  0
POLYLINE
  8
MSgnd
  6
CONTINUOUS
 66
1
 10
0.0
 20
0.0
 70
1
  0
VERTEX
  8
MSgnd
 10
2.609600
 20
9.900000
  0
VERTEX
  8
MSgnd
 10
2.609183
 20
9.909552
  0
VERTEX
  8
MSgnd
 10
2.607935
 20
9.919032
  0
VERTEX
  8
MSgnd
 10
2.605865
 20
9.928367
  0
VERTEX
  8
MSgnd
 10
2.602990
 20
9.937485
  0
VERTEX
  8
MSgnd
 10
2.599331
 20
9.946319
  0
VERTEX
  8
MSgnd
 10
2.594916
 20
9.954800
  0
VERTEX
  8
MSgnd
 10
2.589779
 20
9.962864
  0
VERTEX
  8
MSgnd
 10
2.583958
 20
9.970450
  0
VERTEX
  8
MSgnd
 10
2.577499
 20
9.977499
  0
VERTEX
  8
MSgnd
 10
2.570450
 20
9.983958
  0
VERTEX
  8
MSgnd
 10
2.562864
 20
9.989779
  0
VERTEX
  8
MSgnd
 10
2.554800
 20
9.994916
  0
VERTEX
  8
MSgnd
 10
2.546319
 20
9.999331
  0
VERTEX
  8
MSgnd
 10
2.537485
 20
10.002990
  0
VERTEX
  8
MSgnd
 10
2.528367
 20
10.005865
  0
VERTEX
  8
MSgnd
 10
2.519032
 20
10.007935
  0
VERTEX
  8
MSgnd
 10
2.509552
 20
10.009183
  0
VERTEX
  8
MSgnd
 10
2.500000
 20
10.009600
  0
VERTEX
  8
MSgnd
 10
2.500000
 20
10.017400
  0
VERTEX
  8
MSgnd
 10
2.510232
 20
10.016953
  0
VERTEX
  8
MSgnd
 10
2.520386
 20
10.015616
  0
VERTEX
  8
MSgnd
 10
2.530385
 20
10.013400
  0
VERTEX
  8
MSgnd
 10
2.540153
 20
10.010320
  0
VERTEX
  8
MSgnd
 10
2.549615
 20
10.006401
  0
VERTEX
  8
MSgnd
 10
2.558700
 20
10.001671
  0
VERTEX
  8
MSgnd
 10
2.567338
 20
9.996168
  0
VERTEX
  8
MSgnd
 10
2.575463
 20
9.989934
  0
VERTEX
  8
MSgnd
 10
2.583014
 20
9.983014
  0
VERTEX
  8
MSgnd
 10
2.589934
 20
9.975463
  0
VERTEX
  8
MSgnd
 10
2.596168
 20
9.967338
  0
VERTEX
  8
MSgnd
 10
2.601671
 20
9.958700
  0
VERTEX
  8
MSgnd
 10
2.606401
 20
9.949615
  0
VERTEX
  8
MSgnd
 10
2.610320
 20
9.940153
  0
VERTEX
  8
MSgnd
 10
2.613400
 20
9.930385
  0
VERTEX
  8
MSgnd
 10
2.615616
 20
9.920386
  0
VERTEX
  8
MSgnd
 10
2.616953
 20
9.910232
  0
VERTEX
  8
MSgnd
 10
2.617400
 20
9.900000
  0
VERTEX
  8
MSgnd
 10
2.609600
 20
9.900000
  0
SEQEND
  0
POLYLINE
  8
SiNdiel
  6
CONTINUOUS
 66
1
 10
0.0
 20
0.0
 70
1
  0
VERTEX
  8
SiNdiel
 10
2.567600
 20
9.920000
  0
VERTEX
  8
SiNdiel
 10
2.567600
 20
9.880000
  0
VERTEX
  8
SiNdiel
 10
2.632400
 20
9.880000
  0
VERTEX
  8
SiNdiel
 10
2.632400
 20
9.920000
  0
VERTEX
  8
SiNdiel
 10
2.567600
 20
9.920000
  0
SEQEND
  0
POLYLINE
  8
Hybrids
  6
CONTINUOUS
 66
1
 10
0.0
 20
0.0
 70
1
  0
VERTEX
  8
Hybrids
 10
2.535100
 20
9.910000
  0
VERTEX
  8
Hybrids
 10
2.535100
 20
9.890000
  0
VERTEX
  8
Hybrids
 10
2.664900
 20
9.890000
  0
VERTEX
  8
Hybrids
 10
2.664900
 20
9.910000
  0
VERTEX
  8
Hybrids
 10
2.535100
 20
9.910000
  0
SEQEND
  0
POLYLINE
  8
SiNwafer
  6
CONTINUOUS
 66
1
 10
0.0
 20
0.0
 70
1
  0
VERTEX
  8
SiNwafer
 10
2.586500
 20
9.900000
  0
VERTEX
  8
SiNwafer
 10
2.586500
 20
3.000000
  0
VERTEX
  8
SiNwafer
 10
2.613500
 20
3.000000
  0
VERTEX
  8
SiNwafer
 10
2.613500
 20
9.900000
  0
VERTEX
  8
SiNwafer
 10
2.586500
 20
9.900000
  0
SEQEND
  0
POLYLINE
  8
MSgnd
  6
CONTINUOUS
 66
1
 10
0.0
 20
0.0
 70
1
  0
VERTEX
  8
MSgnd
 10
2.609600
 20
9.900000
  0
VERTEX
  8
MSgnd
 10
2.609600
 20
7.900000
  0
VERTEX
  8
MSgnd
 10
2.617400
 20
7.900000
  0
VERTEX
  8
MSgnd
 10
2.617400
 20
9.900000
  0
VERTEX
  8
MSgnd
 10
2.609600
 20
9.900000
  0
SEQEND
  0
POLYLINE
  8
MSgnd
  6
CONTINUOUS
 66
1
 10
0.0
 20
0.0
 70
1
  0
VERTEX
  8
MSgnd
 10
2.582600
 20
9.900000
  0
VERTEX
  8
MSgnd
 10
2.582600
 20
7.900000
  0
VERTEX
  8
MSgnd
 10
2.590400
 20
7.900000
  0
VERTEX
  8
MSgnd
 10
2.590400
 20
9.900000
  0
VERTEX
  8
MSgnd
 10
2.582600
 20
9.900000
  0
SEQEND
  0
POLYLINE
  8
SiNdiel
  6
CONTINUOUS
 66
1
 10
0.0
 20
0.0
 70
1
  0
VERTEX
  8
SiNdiel
 10
2.567600
 20
7.920000
  0
VERTEX
  8
SiNdiel
 10
2.567600
 20
7.880000
  0
VERTEX
  8
SiNdiel
 10
2.632400
 20
7.880000
  0
VERTEX
  8
SiNdiel
 10
2.632400
 20
7.920000
  0
VERTEX
  8
SiNdiel
 10
2.567600
 20
7.920000
  0
SEQEND
  0
POLYLINE
  8
Hybrids
  6
CONTINUOUS
 66
1
 10
0.0
 20
0.0
 70
1
  0
VERTEX
  8
Hybrids
 10
2.535100
 20
7.910000
  0
VERTEX
  8
Hybrids
 10
2.535100
 20
7.890000
  0
VERTEX
  8
Hybrids
 10
2.664900
 20
7.890000
  0
VERTEX
  8
Hybrids
 10
2.664900
 20
7.910000
  0
VERTEX
  8
Hybrids
 10
2.535100
 20
7.910000
  0
SEQEND
  0
POLYLINE
  8
MSgnd
  6
CONTINUOUS
 66
1
 10
0.0
 20
0.0
 70
1
  0
VERTEX
  8
MSgnd
 10
2.609600
 20
7.900000
  0
VERTEX
  8
MSgnd
 10
2.609600
 20
5.900000
  0
VERTEX
  8
MSgnd
 10
2.617400
 20
5.900000
  0
VERTEX
  8
MSgnd
 10
2.617400
 20
7.900000
  0
VERTEX
  8
MSgnd
 10
2.609600
 20
7.900000
  0
SEQEND
  0
POLYLINE
  8
MSgnd
  6
CONTINUOUS
 66
1
 10
0.0
 20
0.0
 70
1
  0
VERTEX
  8
MSgnd
 10
2.582600
 20
7.900000
  0
VERTEX
  8
MSgnd
 10
2.582600
 20
5.900000
  0
VERTEX
  8
MSgnd
 10
2.590400
 20
5.900000
  0
VERTEX
  8
MSgnd
 10
2.590400
 20
7.900000
  0
VERTEX
  8
MSgnd
 10
2.582600
 20
7.900000
  0
SEQEND
  0
POLYLINE
  8
SiNdiel
  6
CONTINUOUS
 66
1
 10
0.0
 20
0.0
 70
1
  0
VERTEX
  8
SiNdiel
 10
2.567600
 20
5.920000
  0
VERTEX
  8
SiNdiel
 10
2.567600
 20
5.880000
  0
VERTEX
  8
SiNdiel
 10
2.632400
 20
5.880000
  0
VERTEX
  8
SiNdiel
 10
2.632400
 20
5.920000
  0
VERTEX
  8
SiNdiel
 10
2.567600
 20
5.920000
  0
SEQEND
  0
POLYLINE
  8
Hybrids
  6
CONTINUOUS
 66
1
 10
0.0
 20
0.0
 70
1
  0
VERTEX
  8
Hybrids
 10
2.535100
 20
5.910000
  0
VERTEX
  8
Hybrids
 10
2.535100
 20
5.890000
  0
VERTEX
  8
Hybrids
 10
2.664900
 20
5.890000
  0
VERTEX
  8
Hybrids
 10
2.664900
 20
5.910000
  0
VERTEX
  8
Hybrids
 10
2.535100
 20
5.910000
  0
SEQEND
  0
POLYLINE
  8
MSgnd
  6
CONTINUOUS
 66
1
 10
0.0
 20
0.0
 70
1
  0
VERTEX
  8
MSgnd
 10
2.609600
 20
5.900000
  0
VERTEX
  8
MSgnd
 10
2.609600
 20
3.900000
  0
VERTEX
  8
MSgnd
 10
2.617400
 20
3.900000
  0
VERTEX
  8
MSgnd
 10
2.617400
 20
5.900000
  0
VERTEX
  8
MSgnd
 10
2.609600
 20
5.900000
  0
SEQEND
  0
POLYLINE
  8
MSgnd
  6
CONTINUOUS
 66
1
 10
0.0
 20
0.0
 70
1
  0
VERTEX
  8
MSgnd
 10
2.582600
 20
5.900000
  0
VERTEX
  8
MSgnd
 10
2.582600
 20
3.900000
  0
VERTEX
  8
MSgnd
 10
2.590400
 20
3.900000
  0
VERTEX
  8
MSgnd
 10
2.590400
 20
5.900000
  0
VERTEX
  8
MSgnd
 10
2.582600
 20
5.900000
  0
SEQEND
  0
POLYLINE
  8
SiNdiel
  6
CONTINUOUS
 66
1
 10
0.0
 20
0.0
 70
1
  0
VERTEX
  8
SiNdiel
 10
2.567600
 20
3.920000
  0
VERTEX
  8
SiNdiel
 10
2.567600
 20
3.880000
  0
VERTEX
  8
SiNdiel
 10
2.632400
 20
3.880000
  0
VERTEX
  8
SiNdiel
 10
2.632400
 20
3.920000
  0
VERTEX
  8
SiNdiel
 10
2.567600
 20
3.920000
  0
SEQEND
  0
POLYLINE
  8
Hybrids
  6
CONTINUOUS
 66
1
 10
0.0
 20
0.0
 70
1
  0
VERTEX
  8
Hybrids
 10
2.535100
 20
3.910000
  0
VERTEX
  8
Hybrids
 10
2.535100
 20
3.890000
  0
VERTEX
  8
Hybrids
 10
2.664900
 20
3.890000
  0
VERTEX
  8
Hybrids
 10
2.664900
 20
3.910000
  0
VERTEX
  8
Hybrids
 10
2.535100
 20
3.910000
  0
SEQEND
  0
POLYLINE
  8
MSgnd
  6
CONTINUOUS
 66
1
 10
0.0
 20
0.0
 70
1
  0
VERTEX
  8
MSgnd
 10
2.609600
 20
3.900000
  0
VERTEX
  8
MSgnd
 10
2.609600
 20
3.000000
  0
VERTEX
  8
MSgnd
 10
2.617400
 20
3.000000
  0
VERTEX
  8
MSgnd
 10
2.617400
 20
3.900000
  0
VERTEX
  8
MSgnd
 10
2.609600
 20
3.900000
  0
SEQEND
  0
POLYLINE
  8
MSgnd
  6
CONTINUOUS
 66
1
 10
0.0
 20
0.0
 70
1
  0
VERTEX
  8
MSgnd
 10
2.582600
 20
3.900000
  0
VERTEX
  8
MSgnd
 10
2.582600
 20
3.000000
  0
VERTEX
  8
MSgnd
 10
2.590400
 20
3.000000
  0
VERTEX
  8
MSgnd
 10
2.590400
 20
3.900000
  0
VERTEX
  8
MSgnd
 10
2.582600
 20
3.900000
  0
SEQEND
  0
POLYLINE
  8
SiNdiel
  6
CONTINUOUS
 66
1
 10
0.0
 20
0.0
 70
1
  0
VERTEX
  8
SiNdiel
 10
2.567600
 20
3.020000
  0
VERTEX
  8
SiNdiel
 10
2.567600
 20
2.980000
  0
VERTEX
  8
SiNdiel
 10
2.632400
 20
2.980000
  0
VERTEX
  8
SiNdiel
 10
2.632400
 20
3.020000
  0
VERTEX
  8
SiNdiel
 10
2.567600
 20
3.020000
  0
SEQEND
  0
POLYLINE
  8
Hybrids
  6
CONTINUOUS
 66
1
 10
0.0
 20
0.0
 70
1
  0
VERTEX
  8
Hybrids
 10
2.535100
 20
3.010000
  0
VERTEX
  8
Hybrids
 10
2.535100
 20
2.990000
  0
VERTEX
  8
Hybrids
 10
2.664900
 20
2.990000
  0
VERTEX
  8
Hybrids
 10
2.664900
 20
3.010000
  0
VERTEX
  8
Hybrids
 10
2.535100
 20
3.010000
  0
SEQEND
  0
POLYLINE
  8
SiNwafer
  6
CONTINUOUS
 66
1
 10
0.0
 20
0.0
 70
1
  0
VERTEX
  8
SiNwafer
 10
2.700000
 20
2.913500
  0
VERTEX
  8
SiNwafer
 10
2.692461
 20
2.913829
  0
VERTEX
  8
SiNwafer
 10
2.684979
 20
2.914814
  0
VERTEX
  8
SiNwafer
 10
2.677612
 20
2.916447
  0
VERTEX
  8
SiNwafer
 10
2.670415
 20
2.918717
  0
VERTEX
  8
SiNwafer
 10
2.663444
 20
2.921604
  0
VERTEX
  8
SiNwafer
 10
2.656750
 20
2.925089
  0
VERTEX
  8
SiNwafer
 10
2.650386
 20
2.929143
  0
VERTEX
  8
SiNwafer
 10
2.644399
 20
2.933737
  0
VERTEX
  8
SiNwafer
 10
2.638835
 20
2.938835
  0
VERTEX
  8
SiNwafer
 10
2.633737
 20
2.944399
  0
VERTEX
  8
SiNwafer
 10
2.629143
 20
2.950386
  0
VERTEX
  8
SiNwafer
 10
2.625089
 20
2.956750
  0
VERTEX
  8
SiNwafer
 10
2.621604
 20
2.963444
  0
VERTEX
  8
SiNwafer
 10
2.618717
 20
2.970415
  0
VERTEX
  8
SiNwafer
 10
2.616447
 20
2.977612
  0
VERTEX
  8
SiNwafer
 10
2.614814
 20
2.984979
  0
VERTEX
  8
SiNwafer
 10
2.613829
 20
2.992461
  0
VERTEX
  8
SiNwafer
 10
2.613500
 20
3.000000
  0
VERTEX
  8
SiNwafer
 10
2.586500
 20
3.000000
  0
VERTEX
  8
SiNwafer
 10
2.586932
 20
2.990108
  0
VERTEX
  8
SiNwafer
 10
2.588224
 20
2.980291
  0
VERTEX
  8
SiNwafer
 10
2.590367
 20
2.970624
  0
VERTEX
  8
SiNwafer
 10
2.593345
 20
2.961181
  0
VERTEX
  8
SiNwafer
 10
2.597134
 20
2.952033
  0
VERTEX
  8
SiNwafer
 10
2.601706
 20
2.943250
  0
VERTEX
  8
SiNwafer
 10
2.607026
 20
2.934899
  0
VERTEX
  8
SiNwafer
 10
2.613054
 20
2.927044
  0
VERTEX
  8
SiNwafer
 10
2.619743
 20
2.919743
  0
VERTEX
  8
SiNwafer
 10
2.627044
 20
2.913054
  0
VERTEX
  8
SiNwafer
 10
2.634899
 20
2.907026
  0
VERTEX
  8
SiNwafer
 10
2.643250
 20
2.901706
  0
VERTEX
  8
SiNwafer
 10
2.652033
 20
2.897134
  0
VERTEX
  8
SiNwafer
 10
2.661181
 20
2.893345
  0
VERTEX
  8
SiNwafer
 10
2.670624
 20
2.890367
  0
VERTEX
  8
SiNwafer
 10
2.680291
 20
2.888224
  0
VERTEX
  8
SiNwafer
 10
2.690108
 20
2.886932
  0
VERTEX
  8
SiNwafer
 10
2.700000
 20
2.886500
  0
VERTEX
  8
SiNwafer
 10
2.700000
 20
2.913500
  0
SEQEND
  0
POLYLINE
  8
MSgnd
  6
CONTINUOUS
 66
1
 10
0.0
 20
0.0
 70
1
  0
VERTEX
  8
MSgnd
 10
2.700000
 20
2.917400
  0
VERTEX
  8
MSgnd
 10
2.692801
 20
2.917714
  0
VERTEX
  8
MSgnd
 10
2.685657
 20
2.918655
  0
VERTEX
  8
MSgnd
 10
2.678622
 20
2.920215
  0
VERTEX
  8
MSgnd
 10
2.671749
 20
2.922381
  0
VERTEX
  8
MSgnd
 10
2.665092
 20
2.925139
  0
VERTEX
  8
MSgnd
 10
2.658700
 20
2.928466
  0
VERTEX
  8
MSgnd
 10
2.652623
 20
2.932338
  0
VERTEX
  8
MSgnd
 10
2.646906
 20
2.936725
  0
VERTEX
  8
MSgnd
 10
2.641593
 20
2.941593
  0
VERTEX
  8
MSgnd
 10
2.636725
 20
2.946906
  0
VERTEX
  8
MSgnd
 10
2.632338
 20
2.952623
  0
VERTEX
  8
MSgnd
 10
2.628466
 20
2.958700
  0
VERTEX
  8
MSgnd
 10
2.625139
 20
2.965092
  0
VERTEX
  8
MSgnd
 10
2.622381
 20
2.971749
  0
VERTEX
  8
MSgnd
 10
2.620215
 20
2.978622
  0
VERTEX
  8
MSgnd
 10
2.618655
 20
2.985657
  0
VERTEX
  8
MSgnd
 10
2.617714
 20
2.992801
  0
VERTEX
  8
MSgnd
 10
2.617400
 20
3.000000
  0
VERTEX
  8
MSgnd
 10
2.609600
 20
3.000000
  0
VERTEX
  8
MSgnd
 10
2.609944
 20
2.992121
  0
VERTEX
  8
MSgnd
 10
2.610973
 20
2.984302
  0
VERTEX
  8
MSgnd
 10
2.612680
 20
2.976603
  0
VERTEX
  8
MSgnd
 10
2.615052
 20
2.969081
  0
VERTEX
  8
MSgnd
 10
2.618070
 20
2.961795
  0
VERTEX
  8
MSgnd
 10
2.621711
 20
2.954800
  0
VERTEX
  8
MSgnd
 10
2.625949
 20
2.948149
  0
VERTEX
  8
MSgnd
 10
2.630750
 20
2.941892
  0
VERTEX
  8
MSgnd
 10
2.636078
 20
2.936078
  0
VERTEX
  8
MSgnd
 10
2.641892
 20
2.930750
  0
VERTEX
  8
MSgnd
 10
2.648149
 20
2.925949
  0
VERTEX
  8
MSgnd
 10
2.654800
 20
2.921711
  0
VERTEX
  8
MSgnd
 10
2.661795
 20
2.918070
  0
VERTEX
  8
MSgnd
 10
2.669081
 20
2.915052
  0
VERTEX
  8
MSgnd
 10
2.676603
 20
2.912680
  0
VERTEX
  8
MSgnd
 10
2.684302
 20
2.910973
  0
VERTEX
  8
MSgnd
 10
2.692121
 20
2.909944
  0
VERTEX
  8
MSgnd
 10
2.700000
 20
2.909600
  0
VERTEX
  8
MSgnd
 10
2.700000
 20
2.917400
  0
SEQEND
  0
POLYLINE
  8
MSgnd
  6
CONTINUOUS
 66
1
 10
0.0
 20
0.0
 70
1
  0
VERTEX
  8
MSgnd
 10
2.700000
 20
2.890400
  0
VERTEX
  8
MSgnd
 10
2.690448
 20
2.890817
  0
VERTEX
  8
MSgnd
 10
2.680968
 20
2.892065
  0
VERTEX
  8
MSgnd
 10
2.671633
 20
2.894135
  0
VERTEX
  8
MSgnd
 10
2.662515
 20
2.897010
  0
VERTEX
  8
MSgnd
 10
2.653681
 20
2.900669
  0
VERTEX
  8
MSgnd
 10
2.645200
 20
2.905084
  0
VERTEX
  8
MSgnd
 10
2.637136
 20
2.910221
  0
VERTEX
  8
MSgnd
 10
2.629550
 20
2.916042
  0
VERTEX
  8
MSgnd
 10
2.622501
 20
2.922501
  0
VERTEX
  8
MSgnd
 10
2.616042
 20
2.929550
  0
VERTEX
  8
MSgnd
 10
2.610221
 20
2.937136
  0
VERTEX
  8
MSgnd
 10
2.605084
 20
2.945200
  0
VERTEX
  8
MSgnd
 10
2.600669
 20
2.953681
  0
VERTEX
  8
MSgnd
 10
2.597010
 20
2.962515
  0
VERTEX
  8
MSgnd
 10
2.594135
 20
2.971633
  0
VERTEX
  8
MSgnd
 10
2.592065
 20
2.980968
  0
VERTEX
  8
MSgnd
 10
2.590817
 20
2.990448
  0
VERTEX
  8
MSgnd
 10
2.590400
 20
3.000000
  0
VERTEX
  8
MSgnd
 10
2.582600
 20
3.000000
  0
VERTEX
  8
MSgnd
 10
2.583047
 20
2.989768
  0
VERTEX
  8
MSgnd
 10
2.584384
 20
2.979614
  0
VERTEX
  8
MSgnd
 10
2.586600
 20
2.969615
  0
VERTEX
  8
MSgnd
 10
2.589680
 20
2.959847
  0
VERTEX
  8
MSgnd
 10
2.593599
 20
2.950385
  0
VERTEX
  8
MSgnd
 10
2.598329
 20
2.941300
  0
VERTEX
  8
MSgnd
 10
2.603832
 20
2.932662
  0
VERTEX
  8
MSgnd
 10
2.610066
 20
2.924537
  0
VERTEX
  8
MSgnd
 10
2.616986
 20
2.916986
  0
VERTEX
  8
MSgnd
 10
2.624537
 20
2.910066
  0
VERTEX
  8
MSgnd
 10
2.632662
 20
2.903832
  0
VERTEX
  8
MSgnd
 10
2.641300
 20
2.898329
  0
VERTEX
  8
MSgnd
 10
2.650385
 20
2.893599
  0
VERTEX
  8
MSgnd
 10
2.659847
 20
2.889680
  0
VERTEX
  8
MSgnd
 10
2.669615
 20
2.886600
  0
VERTEX
  8
MSgnd
 10
2.679614
 20
2.884384
  0
VERTEX
  8
MSgnd
 10
2.689768
 20
2.883047
  0
VERTEX
  8
MSgnd
 10
2.700000
 20
2.882600
  0
VERTEX
  8
MSgnd
 10
2.700000
 20
2.890400
  0
SEQEND
  0
POLYLINE
  8
SiNdiel
  6
CONTINUOUS
 66
1
 10
0.0
 20
0.0
 70
1
  0
VERTEX
  8
SiNdiel
 10
2.680000
 20
2.867600
  0
VERTEX
  8
SiNdiel
 10
2.720000
 20
2.867600
  0
VERTEX
  8
SiNdiel
 10
2.720000
 20
2.932400
  0
VERTEX
  8
SiNdiel
 10
2.680000
 20
2.932400
  0
VERTEX
  8
SiNdiel
 10
2.680000
 20
2.867600
  0
SEQEND
  0
POLYLINE
  8
Hybrids
  6
CONTINUOUS
 66
1
 10
0.0
 20
0.0
 70
1
  0
VERTEX
  8
Hybrids
 10
2.690000
 20
2.835100
  0
VERTEX
  8
Hybrids
 10
2.710000
 20
2.835100
  0
VERTEX
  8
Hybrids
 10
2.710000
 20
2.964900
  0
VERTEX
  8
Hybrids
 10
2.690000
 20
2.964900
  0
VERTEX
  8
Hybrids
 10
2.690000
 20
2.835100
  0
SEQEND
  0
POLYLINE
  8
SiNwafer
  6
CONTINUOUS
 66
1
 10
0.0
 20
0.0
 70
1
  0
VERTEX
  8
SiNwafer
 10
19.000000
 20
9.415000
  0
VERTEX
  8
SiNwafer
 10
19.900000
 20
9.415000
  0
VERTEX
  8
SiNwafer
 10
19.900000
 20
10.585000
  0
VERTEX
  8
SiNwafer
 10
19.000000
 20
10.585000
  0
VERTEX
  8
SiNwafer
 10
19.000000
 20
9.415000
  0
SEQEND
  0
POLYLINE
  8
MSgnd
  6
CONTINUOUS
 66
1
 10
0.0
 20
0.0
 70
1
  0
VERTEX
  8
MSgnd
 10
19.000000
 20
10.009600
  0
VERTEX
  8
MSgnd
 10
19.000000
 20
10.017400
  0
VERTEX
  8
MSgnd
 10
19.500000
 20
10.525000
  0
VERTEX
  8
MSgnd
 10
19.500000
 20
10.300000
  0
VERTEX
  8
MSgnd
 10
19.000000
 20
10.009600
  0
SEQEND
  0
POLYLINE
  8
MSgnd
  6
CONTINUOUS
 66
1
 10
0.0
 20
0.0
 70
1
  0
VERTEX
  8
MSgnd
 10
19.000000
 20
9.990400
  0
VERTEX
  8
MSgnd
 10
19.000000
 20
9.982600
  0
VERTEX
  8
MSgnd
 10
19.500000
 20
9.475000
  0
VERTEX
  8
MSgnd
 10
19.500000
 20
9.700000
  0
VERTEX
  8
MSgnd
 10
19.000000
 20
9.990400
  0
SEQEND
  0
POLYLINE
  8
MSgnd
  6
CONTINUOUS
 66
1
 10
0.0
 20
0.0
 70
1
  0
VERTEX
  8
MSgnd
 10
19.500000
 20
10.300000
  0
VERTEX
  8
MSgnd
 10
19.900000
 20
10.300000
  0
VERTEX
  8
MSgnd
 10
19.900000
 20
10.525000
  0
VERTEX
  8
MSgnd
 10
19.500000
 20
10.525000
  0
VERTEX
  8
MSgnd
 10
19.500000
 20
10.300000
  0
SEQEND
  0
POLYLINE
  8
MSgnd
  6
CONTINUOUS
 66
1
 10
0.0
 20
0.0
 70
1
  0
VERTEX
  8
MSgnd
 10
19.500000
 20
9.475000
  0
VERTEX
  8
MSgnd
 10
19.900000
 20
9.475000
  0
VERTEX
  8
MSgnd
 10
19.900000
 20
9.700000
  0
VERTEX
  8
MSgnd
 10
19.500000
 20
9.700000
  0
VERTEX
  8
MSgnd
 10
19.500000
 20
9.475000
  0
SEQEND
  0
POLYLINE
  8
MSgnd
  6
CONTINUOUS
 66
1
 10
0.0
 20
0.0
 70
1
  0
VERTEX
  8
MSgnd
 10
19.900000
 20
10.525000
  0
VERTEX
  8
MSgnd
 10
19.850000
 20
10.525000
  0
VERTEX
  8
MSgnd
 10
19.850000
 20
9.475000
  0
VERTEX
  8
MSgnd
 10
19.900000
 20
9.475000
  0
VERTEX
  8
MSgnd
 10
19.900000
 20
10.525000
  0
SEQEND
  0
POLYLINE
  8
SiNwafer
  6
CONTINUOUS
 66
1
 10
0.0
 20
0.0
 70
1
  0
VERTEX
  8
SiNwafer
 10
19.000000
 20
10.013500
  0
VERTEX
  8
SiNwafer
 10
17.500000
 20
10.013500
  0
VERTEX
  8
SiNwafer
 10
17.500000
 20
9.986500
  0
VERTEX
  8
SiNwafer
 10
19.000000
 20
9.986500
  0
VERTEX
  8
SiNwafer
 10
19.000000
 20
10.013500
  0
SEQEND
  0
POLYLINE
  8
MSgnd
  6
CONTINUOUS
 66
1
 10
0.0
 20
0.0
 70
1
  0
VERTEX
  8
MSgnd
 10
19.000000
 20
9.990400
  0
VERTEX
  8
MSgnd
 10
17.500000
 20
9.990400
  0
VERTEX
  8
MSgnd
 10
17.500000
 20
9.982600
  0
VERTEX
  8
MSgnd
 10
19.000000
 20
9.982600
  0
VERTEX
  8
MSgnd
 10
19.000000
 20
9.990400
  0
SEQEND
  0
POLYLINE
  8
MSgnd
  6
CONTINUOUS
 66
1
 10
0.0
 20
0.0
 70
1
  0
VERTEX
  8
MSgnd
 10
19.000000
 20
10.017400
  0
VERTEX
  8
MSgnd
 10
17.500000
 20
10.017400
  0
VERTEX
  8
MSgnd
 10
17.500000
 20
10.009600
  0
VERTEX
  8
MSgnd
 10
19.000000
 20
10.009600
  0
VERTEX
  8
MSgnd
 10
19.000000
 20
10.017400
  0
SEQEND
  0
POLYLINE
  8
SiNdiel
  6
CONTINUOUS
 66
1
 10
0.0
 20
0.0
 70
1
  0
VERTEX
  8
SiNdiel
 10
17.520000
 20
10.032400
  0
VERTEX
  8
SiNdiel
 10
17.480000
 20
10.032400
  0
VERTEX
  8
SiNdiel
 10
17.480000
 20
9.967600
  0
VERTEX
  8
SiNdiel
 10
17.520000
 20
9.967600
  0
VERTEX
  8
SiNdiel
 10
17.520000
 20
10.032400
  0
SEQEND
  0
POLYLINE
  8
Hybrids
  6
CONTINUOUS
 66
1
 10
0.0
 20
0.0
 70
1
  0
VERTEX
  8
Hybrids
 10
17.510000
 20
10.064900
  0
VERTEX
  8
Hybrids
 10
17.490000
 20
10.064900
  0
VERTEX
  8
Hybrids
 10
17.490000
 20
9.935100
  0
VERTEX
  8
Hybrids
 10
17.510000
 20
9.935100
  0
VERTEX
  8
Hybrids
 10
17.510000
 20
10.064900
  0
SEQEND
  0
POLYLINE
  8
SiNwafer
  6
CONTINUOUS
 66
1
 10
0.0
 20
0.0
 70
1
  0
VERTEX
  8
SiNwafer
 10
17.413500
 20
9.900000
  0
VERTEX
  8
SiNwafer
 10
17.413829
 20
9.907539
  0
VERTEX
  8
SiNwafer
 10
17.414814
 20
9.915021
  0
VERTEX
  8
SiNwafer
 10
17.416447
 20
9.922388
  0
VERTEX
  8
SiNwafer
 10
17.418717
 20
9.929585
  0
VERTEX
  8
SiNwafer
 10
17.421604
 20
9.936556
  0
VERTEX
  8
SiNwafer
 10
17.425089
 20
9.943250
  0
VERTEX
  8
SiNwafer
 10
17.429143
 20
9.949614
  0
VERTEX
  8
SiNwafer
 10
17.433737
 20
9.955601
  0
VERTEX
  8
SiNwafer
 10
17.438835
 20
9.961165
  0
VERTEX
  8
SiNwafer
 10
17.444399
 20
9.966263
  0
VERTEX
  8
SiNwafer
 10
17.450386
 20
9.970857
  0
VERTEX
  8
SiNwafer
 10
17.456750
 20
9.974911
  0
VERTEX
  8
SiNwafer
 10
17.463444
 20
9.978396
  0
VERTEX
  8
SiNwafer
 10
17.470415
 20
9.981283
  0
VERTEX
  8
SiNwafer
 10
17.477612
 20
9.983553
  0
VERTEX
  8
SiNwafer
 10
17.484979
 20
9.985186
  0
VERTEX
  8
SiNwafer
 10
17.492461
 20
9.986171
  0
VERTEX
  8
SiNwafer
 10
17.500000
 20
9.986500
  0
VERTEX
  8
SiNwafer
 10
17.500000
 20
10.013500
  0
VERTEX
  8
SiNwafer
 10
17.490108
 20
10.013068
  0
VERTEX
  8
SiNwafer
 10
17.480291
 20
10.011776
  0
VERTEX
  8
SiNwafer
 10
17.470624
 20
10.009633
  0
VERTEX
  8
SiNwafer
 10
17.461181
 20
10.006655
  0
VERTEX
  8
SiNwafer
 10
17.452033
 20
10.002866
  0
VERTEX
  8
SiNwafer
 10
17.443250
 20
9.998294
  0
VERTEX
  8
SiNwafer
 10
17.434899
 20
9.992974
  0
VERTEX
  8
SiNwafer
 10
17.427044
 20
9.986946
  0
VERTEX
  8
SiNwafer
 10
17.419743
 20
9.980257
  0
VERTEX
  8
SiNwafer
 10
17.413054
 20
9.972956
  0
VERTEX
  8
SiNwafer
 10
17.407026
 20
9.965101
  0
VERTEX
  8
SiNwafer
 10
17.401706
 20
9.956750
  0
VERTEX
  8
SiNwafer
 10
17.397134
 20
9.947967
  0
VERTEX
  8
SiNwafer
 10
17.393345
 20
9.938819
  0
VERTEX
  8
SiNwafer
 10
17.390367
 20
9.929376
  0
VERTEX
  8
SiNwafer
 10
17.388224
 20
9.919709
  0
VERTEX
  8
SiNwafer
 10
17.386932
 20
9.909892
  0
VERTEX
  8
SiNwafer
 10
17.386500
 20
9.900000
  0
VERTEX
  8
SiNwafer
 10
17.413500
 20
9.900000
  0
SEQEND
  0
POLYLINE
  8
MSgnd
  6
CONTINUOUS
 66
1
 10
0.0
 20
0.0
 70
1
  0
VERTEX
  8
MSgnd
 10
17.417400
 20
9.900000
  0
VERTEX
  8
MSgnd
 10
17.417714
 20
9.907199
  0
VERTEX
  8
MSgnd
 10
17.418655
 20
9.914343
  0
VERTEX
  8
MSgnd
 10
17.420215
 20
9.921378
  0
VERTEX
  8
MSgnd
 10
17.422381
 20
9.928251
  0
VERTEX
  8
MSgnd
 10
17.425139
 20
9.934908
  0
VERTEX
  8
MSgnd
 10
17.428466
 20
9.941300
  0
VERTEX
  8
MSgnd
 10
17.432338
 20
9.947377
  0
VERTEX
  8
MSgnd
 10
17.436725
 20
9.953094
  0
VERTEX
  8
MSgnd
 10
17.441593
 20
9.958407
  0
VERTEX
  8
MSgnd
 10
17.446906
 20
9.963275
  0
VERTEX
  8
MSgnd
 10
17.452623
 20
9.967662
  0
VERTEX
  8
MSgnd
 10
17.458700
 20
9.971534
  0
VERTEX
  8
MSgnd
 10
17.465092
 20
9.974861
  0
VERTEX
  8
MSgnd
 10
17.471749
 20
9.977619
  0
VERTEX
  8
MSgnd
 10
17.478622
 20
9.979785
  0
VERTEX
  8
MSgnd
 10
17.485657
 20
9.981345
  0
VERTEX
  8
MSgnd
 10
17.492801
 20
9.982286
  0
VERTEX
  8
MSgnd
 10
17.500000
 20
9.982600
  0
VERTEX
  8
MSgnd
 10
17.500000
 20
9.990400
  0
VERTEX
  8
MSgnd
 10
17.492121
 20
9.990056
  0
VERTEX
  8
MSgnd
 10
17.484302
 20
9.989027
  0
VERTEX
  8
MSgnd
 10
17.476603
 20
9.987320
  0
VERTEX
  8
MSgnd
 10
17.469081
 20
9.984948
  0
VERTEX
  8
MSgnd
 10
17.461795
 20
9.981930
  0
VERTEX
  8
MSgnd
 10
17.454800
 20
9.978289
  0
VERTEX
  8
MSgnd
 10
17.448149
 20
9.974051
  0
VERTEX
  8
MSgnd
 10
17.441892
 20
9.969250
  0
VERTEX
  8
MSgnd
 10
17.436078
 20
9.963922
  0
VERTEX
  8
MSgnd
 10
17.430750
 20
9.958108
  0
VERTEX
  8
MSgnd
 10
17.425949
 20
9.951851
  0
VERTEX
  8
MSgnd
 10
17.421711
 20
9.945200
  0
VERTEX
  8
MSgnd
 10
17.418070
 20
9.938205
  0
VERTEX
  8
MSgnd
 10
17.415052
 20
9.930919
  0
VERTEX
  8
MSgnd
 10
17.412680
 20
9.923397
  0
VERTEX
  8
MSgnd
 10
17.410973
 20
9.915698
  0
VERTEX
  8
MSgnd
 10
17.409944
 20
9.907879
  0
VERTEX
  8
MSgnd
 10
17.409600
 20
9.900000
  0
VERTEX
  8
MSgnd
 10
17.417400
 20
9.900000
  0
SEQEND
  0
POLYLINE
  8
MSgnd
  6
CONTINUOUS
 66
1
 10
0.0
 20
0.0
 70
1
  0
VERTEX
  8
MSgnd
 10
17.390400
 20
9.900000
  0
VERTEX
  8
MSgnd
 10
17.390817
 20
9.909552
  0
VERTEX
  8
MSgnd
 10
17.392065
 20
9.919032
  0
VERTEX
  8
MSgnd
 10
17.394135
 20
9.928367
  0
VERTEX
  8
MSgnd
 10
17.397010
 20
9.937485
  0
VERTEX
  8
MSgnd
 10
17.400669
 20
9.946319
  0
VERTEX
  8
MSgnd
 10
17.405084
 20
9.954800
  0
VERTEX
  8
MSgnd
 10
17.410221
 20
9.962864
  0
VERTEX
  8
MSgnd
 10
17.416042
 20
9.970450
  0
VERTEX
  8
MSgnd
 10
17.422501
 20
9.977499
  0
VERTEX
  8
MSgnd
 10
17.429550
 20
9.983958
  0
VERTEX
  8
MSgnd
 10
17.437136
 20
9.989779
  0
VERTEX
  8
MSgnd
 10
17.445200
 20
9.994916
  0
VERTEX
  8
MSgnd
 10
17.453681
 20
9.999331
  0
VERTEX
  8
MSgnd
 10
17.462515
 20
10.002990
  0
VERTEX
  8
MSgnd
 10
17.471633
 20
10.005865
  0
VERTEX
  8
MSgnd
 10
17.480968
 20
10.007935
  0
VERTEX
  8
MSgnd
 10
17.490448
 20
10.009183
  0
VERTEX
  8
MSgnd
 10
17.500000
 20
10.009600
  0
VERTEX
  8
MSgnd
 10
17.500000
 20
10.017400
  0
VERTEX
  8
MSgnd
 10
17.489768
 20
10.016953
  0
VERTEX
  8
MSgnd
 10
17.479614
 20
10.015616
  0
VERTEX
  8
MSgnd
 10
17.469615
 20
10.013400
  0
VERTEX
  8
MSgnd
 10
17.459847
 20
10.010320
  0
VERTEX
  8
MSgnd
 10
17.450385
 20
10.006401
  0
VERTEX
  8
MSgnd
 10
17.441300
 20
10.001671
  0
VERTEX
  8
MSgnd
 10
17.432662
 20
9.996168
  0
VERTEX
  8
MSgnd
 10
17.424537
 20
9.989934
  0
VERTEX
  8
MSgnd
 10
17.416986
 20
9.983014
  0
VERTEX
  8
MSgnd
 10
17.410066
 20
9.975463
  0
VERTEX
  8
MSgnd
 10
17.403832
 20
9.967338
  0
VERTEX
  8
MSgnd
 10
17.398329
 20
9.958700
  0
VERTEX
  8
MSgnd
 10
17.393599
 20
9.949615
  0
VERTEX
  8
MSgnd
 10
17.389680
 20
9.940153
  0
VERTEX
  8
MSgnd
 10
17.386600
 20
9.930385
  0
VERTEX
  8
MSgnd
 10
17.384384
 20
9.920386
  0
VERTEX
  8
MSgnd
 10
17.383047
 20
9.910232
  0
VERTEX
  8
MSgnd
 10
17.382600
 20
9.900000
  0
VERTEX
  8
MSgnd
 10
17.390400
 20
9.900000
  0
SEQEND
  0
POLYLINE
  8
SiNdiel
  6
CONTINUOUS
 66
1
 10
0.0
 20
0.0
 70
1
  0
VERTEX
  8
SiNdiel
 10
17.367600
 20
9.920000
  0
VERTEX
  8
SiNdiel
 10
17.367600
 20
9.880000
  0
VERTEX
  8
SiNdiel
 10
17.432400
 20
9.880000
  0
VERTEX
  8
SiNdiel
 10
17.432400
 20
9.920000
  0
VERTEX
  8
SiNdiel
 10
17.367600
 20
9.920000
  0
SEQEND
  0
POLYLINE
  8
Hybrids
  6
CONTINUOUS
 66
1
 10
0.0
 20
0.0
 70
1
  0
VERTEX
  8
Hybrids
 10
17.335100
 20
9.910000
  0
VERTEX
  8
Hybrids
 10
17.335100
 20
9.890000
  0
VERTEX
  8
Hybrids
 10
17.464900
 20
9.890000
  0
VERTEX
  8
Hybrids
 10
17.464900
 20
9.910000
  0
VERTEX
  8
Hybrids
 10
17.335100
 20
9.910000
  0
SEQEND
  0
POLYLINE
  8
SiNwafer
  6
CONTINUOUS
 66
1
 10
0.0
 20
0.0
 70
1
  0
VERTEX
  8
SiNwafer
 10
17.386500
 20
9.900000
  0
VERTEX
  8
SiNwafer
 10
17.386500
 20
3.000000
  0
VERTEX
  8
SiNwafer
 10
17.413500
 20
3.000000
  0
VERTEX
  8
SiNwafer
 10
17.413500
 20
9.900000
  0
VERTEX
  8
SiNwafer
 10
17.386500
 20
9.900000
  0
SEQEND
  0
POLYLINE
  8
MSgnd
  6
CONTINUOUS
 66
1
 10
0.0
 20
0.0
 70
1
  0
VERTEX
  8
MSgnd
 10
17.409600
 20
9.900000
  0
VERTEX
  8
MSgnd
 10
17.409600
 20
7.900000
  0
VERTEX
  8
MSgnd
 10
17.417400
 20
7.900000
  0
VERTEX
  8
MSgnd
 10
17.417400
 20
9.900000
  0
VERTEX
  8
MSgnd
 10
17.409600
 20
9.900000
  0
SEQEND
  0
POLYLINE
  8
MSgnd
  6
CONTINUOUS
 66
1
 10
0.0
 20
0.0
 70
1
  0
VERTEX
  8
MSgnd
 10
17.382600
 20
9.900000
  0
VERTEX
  8
MSgnd
 10
17.382600
 20
7.900000
  0
VERTEX
  8
MSgnd
 10
17.390400
 20
7.900000
  0
VERTEX
  8
MSgnd
 10
17.390400
 20
9.900000
  0
VERTEX
  8
MSgnd
 10
17.382600
 20
9.900000
  0
SEQEND
  0
POLYLINE
  8
SiNdiel
  6
CONTINUOUS
 66
1
 10
0.0
 20
0.0
 70
1
  0
VERTEX
  8
SiNdiel
 10
17.367600
 20
7.920000
  0
VERTEX
  8
SiNdiel
 10
17.367600
 20
7.880000
  0
VERTEX
  8
SiNdiel
 10
17.432400
 20
7.880000
  0
VERTEX
  8
SiNdiel
 10
17.432400
 20
7.920000
  0
VERTEX
  8
SiNdiel
 10
17.367600
 20
7.920000
  0
SEQEND
  0
POLYLINE
  8
Hybrids
  6
CONTINUOUS
 66
1
 10
0.0
 20
0.0
 70
1
  0
VERTEX
  8
Hybrids
 10
17.335100
 20
7.910000
  0
VERTEX
  8
Hybrids
 10
17.335100
 20
7.890000
  0
VERTEX
  8
Hybrids
 10
17.464900
 20
7.890000
  0
VERTEX
  8
Hybrids
 10
17.464900
 20
7.910000
  0
VERTEX
  8
Hybrids
 10
17.335100
 20
7.910000
  0
SEQEND
  0
POLYLINE
  8
MSgnd
  6
CONTINUOUS
 66
1
 10
0.0
 20
0.0
 70
1
  0
VERTEX
  8
MSgnd
 10
17.409600
 20
7.900000
  0
VERTEX
  8
MSgnd
 10
17.409600
 20
5.900000
  0
VERTEX
  8
MSgnd
 10
17.417400
 20
5.900000
  0
VERTEX
  8
MSgnd
 10
17.417400
 20
7.900000
  0
VERTEX
  8
MSgnd
 10
17.409600
 20
7.900000
  0
SEQEND
  0
POLYLINE
  8
MSgnd
  6
CONTINUOUS
 66
1
 10
0.0
 20
0.0
 70
1
  0
VERTEX
  8
MSgnd
 10
17.382600
 20
7.900000
  0
VERTEX
  8
MSgnd
 10
17.382600
 20
5.900000
  0
VERTEX
  8
MSgnd
 10
17.390400
 20
5.900000
  0
VERTEX
  8
MSgnd
 10
17.390400
 20
7.900000
  0
VERTEX
  8
MSgnd
 10
17.382600
 20
7.900000
  0
SEQEND
  0
POLYLINE
  8
SiNdiel
  6
CONTINUOUS
 66
1
 10
0.0
 20
0.0
 70
1
  0
VERTEX
  8
SiNdiel
 10
17.367600
 20
5.920000
  0
VERTEX
  8
SiNdiel
 10
17.367600
 20
5.880000
  0
VERTEX
  8
SiNdiel
 10
17.432400
 20
5.880000
  0
VERTEX
  8
SiNdiel
 10
17.432400
 20
5.920000
  0
VERTEX
  8
SiNdiel
 10
17.367600
 20
5.920000
  0
SEQEND
  0
POLYLINE
  8
Hybrids
  6
CONTINUOUS
 66
1
 10
0.0
 20
0.0
 70
1
  0
VERTEX
  8
Hybrids
 10
17.335100
 20
5.910000
  0
VERTEX
  8
Hybrids
 10
17.335100
 20
5.890000
  0
VERTEX
  8
Hybrids
 10
17.464900
 20
5.890000
  0
VERTEX
  8
Hybrids
 10
17.464900
 20
5.910000
  0
VERTEX
  8
Hybrids
 10
17.335100
 20
5.910000
  0
SEQEND
  0
POLYLINE
  8
MSgnd
  6
CONTINUOUS
 66
1
 10
0.0
 20
0.0
 70
1
  0
VERTEX
  8
MSgnd
 10
17.409600
 20
5.900000
  0
VERTEX
  8
MSgnd
 10
17.409600
 20
3.900000
  0
VERTEX
  8
MSgnd
 10
17.417400
 20
3.900000
  0
VERTEX
  8
MSgnd
 10
17.417400
 20
5.900000
  0
VERTEX
  8
MSgnd
 10
17.409600
 20
5.900000
  0
SEQEND
  0
POLYLINE
  8
MSgnd
  6
CONTINUOUS
 66
1
 10
0.0
 20
0.0
 70
1
  0
VERTEX
  8
MSgnd
 10
17.382600
 20
5.900000
  0
VERTEX
  8
MSgnd
 10
17.382600
 20
3.900000
  0
VERTEX
  8
MSgnd
 10
17.390400
 20
3.900000
  0
VERTEX
  8
MSgnd
 10
17.390400
 20
5.900000
  0
VERTEX
  8
MSgnd
 10
17.382600
 20
5.900000
  0
SEQEND
  0
POLYLINE
  8
SiNdiel
  6
CONTINUOUS
 66
1
 10
0.0
 20
0.0
 70
1
  0
VERTEX
  8
SiNdiel
 10
17.367600
 20
3.920000
  0
VERTEX
  8
SiNdiel
 10
17.367600
 20
3.880000
  0
VERTEX
  8
SiNdiel
 10
17.432400
 20
3.880000
  0
VERTEX
  8
SiNdiel
 10
17.432400
 20
3.920000
  0
VERTEX
  8
SiNdiel
 10
17.367600
 20
3.920000
  0
SEQEND
  0
POLYLINE
  8
Hybrids
  6
CONTINUOUS
 66
1
 10
0.0
 20
0.0
 70
1
  0
VERTEX
  8
Hybrids
 10
17.335100
 20
3.910000
  0
VERTEX
  8
Hybrids
 10
17.335100
 20
3.890000
  0
VERTEX
  8
Hybrids
 10
17.464900
 20
3.890000
  0
VERTEX
  8
Hybrids
 10
17.464900
 20
3.910000
  0
VERTEX
  8
Hybrids
 10
17.335100
 20
3.910000
  0
SEQEND
  0
POLYLINE
  8
MSgnd
  6
CONTINUOUS
 66
1
 10
0.0
 20
0.0
 70
1
  0
VERTEX
  8
MSgnd
 10
17.409600
 20
3.900000
  0
VERTEX
  8
MSgnd
 10
17.409600
 20
3.000000
  0
VERTEX
  8
MSgnd
 10
17.417400
 20
3.000000
  0
VERTEX
  8
MSgnd
 10
17.417400
 20
3.900000
  0
VERTEX
  8
MSgnd
 10
17.409600
 20
3.900000
  0
SEQEND
  0
POLYLINE
  8
MSgnd
  6
CONTINUOUS
 66
1
 10
0.0
 20
0.0
 70
1
  0
VERTEX
  8
MSgnd
 10
17.382600
 20
3.900000
  0
VERTEX
  8
MSgnd
 10
17.382600
 20
3.000000
  0
VERTEX
  8
MSgnd
 10
17.390400
 20
3.000000
  0
VERTEX
  8
MSgnd
 10
17.390400
 20
3.900000
  0
VERTEX
  8
MSgnd
 10
17.382600
 20
3.900000
  0
SEQEND
  0
POLYLINE
  8
SiNdiel
  6
CONTINUOUS
 66
1
 10
0.0
 20
0.0
 70
1
  0
VERTEX
  8
SiNdiel
 10
17.367600
 20
3.020000
  0
VERTEX
  8
SiNdiel
 10
17.367600
 20
2.980000
  0
VERTEX
  8
SiNdiel
 10
17.432400
 20
2.980000
  0
VERTEX
  8
SiNdiel
 10
17.432400
 20
3.020000
  0
VERTEX
  8
SiNdiel
 10
17.367600
 20
3.020000
  0
SEQEND
  0
POLYLINE
  8
Hybrids
  6
CONTINUOUS
 66
1
 10
0.0
 20
0.0
 70
1
  0
VERTEX
  8
Hybrids
 10
17.335100
 20
3.010000
  0
VERTEX
  8
Hybrids
 10
17.335100
 20
2.990000
  0
VERTEX
  8
Hybrids
 10
17.464900
 20
2.990000
  0
VERTEX
  8
Hybrids
 10
17.464900
 20
3.010000
  0
VERTEX
  8
Hybrids
 10
17.335100
 20
3.010000
  0
SEQEND
  0
POLYLINE
  8
SiNwafer
  6
CONTINUOUS
 66
1
 10
0.0
 20
0.0
 70
1
  0
VERTEX
  8
SiNwafer
 10
17.300000
 20
2.913500
  0
VERTEX
  8
SiNwafer
 10
17.307539
 20
2.913829
  0
VERTEX
  8
SiNwafer
 10
17.315021
 20
2.914814
  0
VERTEX
  8
SiNwafer
 10
17.322388
 20
2.916447
  0
VERTEX
  8
SiNwafer
 10
17.329585
 20
2.918717
  0
VERTEX
  8
SiNwafer
 10
17.336556
 20
2.921604
  0
VERTEX
  8
SiNwafer
 10
17.343250
 20
2.925089
  0
VERTEX
  8
SiNwafer
 10
17.349614
 20
2.929143
  0
VERTEX
  8
SiNwafer
 10
17.355601
 20
2.933737
  0
VERTEX
  8
SiNwafer
 10
17.361165
 20
2.938835
  0
VERTEX
  8
SiNwafer
 10
17.366263
 20
2.944399
  0
VERTEX
  8
SiNwafer
 10
17.370857
 20
2.950386
  0
VERTEX
  8
SiNwafer
 10
17.374911
 20
2.956750
  0
VERTEX
  8
SiNwafer
 10
17.378396
 20
2.963444
  0
VERTEX
  8
SiNwafer
 10
17.381283
 20
2.970415
  0
VERTEX
  8
SiNwafer
 10
17.383553
 20
2.977612
  0
VERTEX
  8
SiNwafer
 10
17.385186
 20
2.984979
  0
VERTEX
  8
SiNwafer
 10
17.386171
 20
2.992461
  0
VERTEX
  8
SiNwafer
 10
17.386500
 20
3.000000
  0
VERTEX
  8
SiNwafer
 10
17.413500
 20
3.000000
  0
VERTEX
  8
SiNwafer
 10
17.413068
 20
2.990108
  0
VERTEX
  8
SiNwafer
 10
17.411776
 20
2.980291
  0
VERTEX
  8
SiNwafer
 10
17.409633
 20
2.970624
  0
VERTEX
  8
SiNwafer
 10
17.406655
 20
2.961181
  0
VERTEX
  8
SiNwafer
 10
17.402866
 20
2.952033
  0
VERTEX
  8
SiNwafer
 10
17.398294
 20
2.943250
  0
VERTEX
  8
SiNwafer
 10
17.392974
 20
2.934899
  0
VERTEX
  8
SiNwafer
 10
17.386946
 20
2.927044
  0
VERTEX
  8
SiNwafer
 10
17.380257
 20
2.919743
  0
VERTEX
  8
SiNwafer
 10
17.372956
 20
2.913054
  0
VERTEX
  8
SiNwafer
 10
17.365101
 20
2.907026
  0
VERTEX
  8
SiNwafer
 10
17.356750
 20
2.901706
  0
VERTEX
  8
SiNwafer
 10
17.347967
 20
2.897134
  0
VERTEX
  8
SiNwafer
 10
17.338819
 20
2.893345
  0
VERTEX
  8
SiNwafer
 10
17.329376
 20
2.890367
  0
VERTEX
  8
SiNwafer
 10
17.319709
 20
2.888224
  0
VERTEX
  8
SiNwafer
 10
17.309892
 20
2.886932
  0
VERTEX
  8
SiNwafer
 10
17.300000
 20
2.886500
  0
VERTEX
  8
SiNwafer
 10
17.300000
 20
2.913500
  0
SEQEND
  0
POLYLINE
  8
MSgnd
  6
CONTINUOUS
 66
1
 10
0.0
 20
0.0
 70
1
  0
VERTEX
  8
MSgnd
 10
17.300000
 20
2.917400
  0
VERTEX
  8
MSgnd
 10
17.307199
 20
2.917714
  0
VERTEX
  8
MSgnd
 10
17.314343
 20
2.918655
  0
VERTEX
  8
MSgnd
 10
17.321378
 20
2.920215
  0
VERTEX
  8
MSgnd
 10
17.328251
 20
2.922381
  0
VERTEX
  8
MSgnd
 10
17.334908
 20
2.925139
  0
VERTEX
  8
MSgnd
 10
17.341300
 20
2.928466
  0
VERTEX
  8
MSgnd
 10
17.347377
 20
2.932338
  0
VERTEX
  8
MSgnd
 10
17.353094
 20
2.936725
  0
VERTEX
  8
MSgnd
 10
17.358407
 20
2.941593
  0
VERTEX
  8
MSgnd
 10
17.363275
 20
2.946906
  0
VERTEX
  8
MSgnd
 10
17.367662
 20
2.952623
  0
VERTEX
  8
MSgnd
 10
17.371534
 20
2.958700
  0
VERTEX
  8
MSgnd
 10
17.374861
 20
2.965092
  0
VERTEX
  8
MSgnd
 10
17.377619
 20
2.971749
  0
VERTEX
  8
MSgnd
 10
17.379785
 20
2.978622
  0
VERTEX
  8
MSgnd
 10
17.381345
 20
2.985657
  0
VERTEX
  8
MSgnd
 10
17.382286
 20
2.992801
  0
VERTEX
  8
MSgnd
 10
17.382600
 20
3.000000
  0
VERTEX
  8
MSgnd
 10
17.390400
 20
3.000000
  0
VERTEX
  8
MSgnd
 10
17.390056
 20
2.992121
  0
VERTEX
  8
MSgnd
 10
17.389027
 20
2.984302
  0
VERTEX
  8
MSgnd
 10
17.387320
 20
2.976603
  0
VERTEX
  8
MSgnd
 10
17.384948
 20
2.969081
  0
VERTEX
  8
MSgnd
 10
17.381930
 20
2.961795
  0
VERTEX
  8
MSgnd
 10
17.378289
 20
2.954800
  0
VERTEX
  8
MSgnd
 10
17.374051
 20
2.948149
  0
VERTEX
  8
MSgnd
 10
17.369250
 20
2.941892
  0
VERTEX
  8
MSgnd
 10
17.363922
 20
2.936078
  0
VERTEX
  8
MSgnd
 10
17.358108
 20
2.930750
  0
VERTEX
  8
MSgnd
 10
17.351851
 20
2.925949
  0
VERTEX
  8
MSgnd
 10
17.345200
 20
2.921711
  0
VERTEX
  8
MSgnd
 10
17.338205
 20
2.918070
  0
VERTEX
  8
MSgnd
 10
17.330919
 20
2.915052
  0
VERTEX
  8
MSgnd
 10
17.323397
 20
2.912680
  0
VERTEX
  8
MSgnd
 10
17.315698
 20
2.910973
  0
VERTEX
  8
MSgnd
 10
17.307879
 20
2.909944
  0
VERTEX
  8
MSgnd
 10
17.300000
 20
2.909600
  0
VERTEX
  8
MSgnd
 10
17.300000
 20
2.917400
  0
SEQEND
  0
POLYLINE
  8
MSgnd
  6
CONTINUOUS
 66
1
 10
0.0
 20
0.0
 70
1
  0
VERTEX
  8
MSgnd
 10
17.300000
 20
2.890400
  0
VERTEX
  8
MSgnd
 10
17.309552
 20
2.890817
  0
VERTEX
  8
MSgnd
 10
17.319032
 20
2.892065
  0
VERTEX
  8
MSgnd
 10
17.328367
 20
2.894135
  0
VERTEX
  8
MSgnd
 10
17.337485
 20
2.897010
  0
VERTEX
  8
MSgnd
 10
17.346319
 20
2.900669
  0
VERTEX
  8
MSgnd
 10
17.354800
 20
2.905084
  0
VERTEX
  8
MSgnd
 10
17.362864
 20
2.910221
  0
VERTEX
  8
MSgnd
 10
17.370450
 20
2.916042
  0
VERTEX
  8
MSgnd
 10
17.377499
 20
2.922501
  0
VERTEX
  8
MSgnd
 10
17.383958
 20
2.929550
  0
VERTEX
  8
MSgnd
 10
17.389779
 20
2.937136
  0
VERTEX
  8
MSgnd
 10
17.394916
 20
2.945200
  0
VERTEX
  8
MSgnd
 10
17.399331
 20
2.953681
  0
VERTEX
  8
MSgnd
 10
17.402990
 20
2.962515
  0
VERTEX
  8
MSgnd
 10
17.405865
 20
2.971633
  0
VERTEX
  8
MSgnd
 10
17.407935
 20
2.980968
  0
VERTEX
  8
MSgnd
 10
17.409183
 20
2.990448
  0
VERTEX
  8
MSgnd
 10
17.409600
 20
3.000000
  0
VERTEX
  8
MSgnd
 10
17.417400
 20
3.000000
  0
VERTEX
  8
MSgnd
 10
17.416953
 20
2.989768
  0
VERTEX
  8
MSgnd
 10
17.415616
 20
2.979614
  0
VERTEX
  8
MSgnd
 10
17.413400
 20
2.969615
  0
VERTEX
  8
MSgnd
 10
17.410320
 20
2.959847
  0
VERTEX
  8
MSgnd
 10
17.406401
 20
2.950385
  0
VERTEX
  8
MSgnd
 10
17.401671
 20
2.941300
  0
VERTEX
  8
MSgnd
 10
17.396168
 20
2.932662
  0
VERTEX
  8
MSgnd
 10
17.389934
 20
2.924537
  0
VERTEX
  8
MSgnd
 10
17.383014
 20
2.916986
  0
VERTEX
  8
MSgnd
 10
17.375463
 20
2.910066
  0
VERTEX
  8
MSgnd
 10
17.367338
 20
2.903832
  0
VERTEX
  8
MSgnd
 10
17.358700
 20
2.898329
  0
VERTEX
  8
MSgnd
 10
17.349615
 20
2.893599
  0
VERTEX
  8
MSgnd
 10
17.340153
 20
2.889680
  0
VERTEX
  8
MSgnd
 10
17.330385
 20
2.886600
  0
VERTEX
  8
MSgnd
 10
17.320386
 20
2.884384
  0
VERTEX
  8
MSgnd
 10
17.310232
 20
2.883047
  0
VERTEX
  8
MSgnd
 10
17.300000
 20
2.882600
  0
VERTEX
  8
MSgnd
 10
17.300000
 20
2.890400
  0
SEQEND
  0
POLYLINE
  8
SiNdiel
  6
CONTINUOUS
 66
1
 10
0.0
 20
0.0
 70
1
  0
VERTEX
  8
SiNdiel
 10
17.320000
 20
2.932400
  0
VERTEX
  8
SiNdiel
 10
17.280000
 20
2.932400
  0
VERTEX
  8
SiNdiel
 10
17.280000
 20
2.867600
  0
VERTEX
  8
SiNdiel
 10
17.320000
 20
2.867600
  0
VERTEX
  8
SiNdiel
 10
17.320000
 20
2.932400
  0
SEQEND
  0
POLYLINE
  8
Hybrids
  6
CONTINUOUS
 66
1
 10
0.0
 20
0.0
 70
1
  0
VERTEX
  8
Hybrids
 10
17.310000
 20
2.964900
  0
VERTEX
  8
Hybrids
 10
17.290000
 20
2.964900
  0
VERTEX
  8
Hybrids
 10
17.290000
 20
2.835100
  0
VERTEX
  8
Hybrids
 10
17.310000
 20
2.835100
  0
VERTEX
  8
Hybrids
 10
17.310000
 20
2.964900
  0
SEQEND
  0
POLYLINE
  8
MSgnd
  6
CONTINUOUS
 66
1
 10
0.0
 20
0.0
 70
1
  0
VERTEX
  8
MSgnd
 10
10.032700
 20
4.735212
  0
VERTEX
  8
MSgnd
 10
10.032700
 20
4.871831
  0
VERTEX
  8
MSgnd
 10
10.024900
 20
4.871831
  0
VERTEX
  8
MSgnd
 10
10.024900
 20
4.735212
  0
VERTEX
  8
MSgnd
 10
10.032700
 20
4.735212
  0
SEQEND
  0
POLYLINE
  8
MSgnd
  6
CONTINUOUS
 66
1
 10
0.0
 20
0.0
 70
1
  0
VERTEX
  8
MSgnd
 10
10.059700
 20
4.735212
  0
VERTEX
  8
MSgnd
 10
10.059700
 20
4.871831
  0
VERTEX
  8
MSgnd
 10
10.051900
 20
4.871831
  0
VERTEX
  8
MSgnd
 10
10.051900
 20
4.735212
  0
VERTEX
  8
MSgnd
 10
10.059700
 20
4.735212
  0
SEQEND
  0
POLYLINE
  8
MSgnd
  6
CONTINUOUS
 66
1
 10
0.0
 20
0.0
 70
1
  0
VERTEX
  8
MSgnd
 10
10.142300
 20
4.954431
  0
VERTEX
  8
MSgnd
 10
10.135101
 20
4.954116
  0
VERTEX
  8
MSgnd
 10
10.127957
 20
4.953176
  0
VERTEX
  8
MSgnd
 10
10.120922
 20
4.951616
  0
VERTEX
  8
MSgnd
 10
10.114049
 20
4.949449
  0
VERTEX
  8
MSgnd
 10
10.107392
 20
4.946692
  0
VERTEX
  8
MSgnd
 10
10.101000
 20
4.943364
  0
VERTEX
  8
MSgnd
 10
10.094923
 20
4.939493
  0
VERTEX
  8
MSgnd
 10
10.089206
 20
4.935106
  0
VERTEX
  8
MSgnd
 10
10.083893
 20
4.930238
  0
VERTEX
  8
MSgnd
 10
10.079025
 20
4.924925
  0
VERTEX
  8
MSgnd
 10
10.074638
 20
4.919208
  0
VERTEX
  8
MSgnd
 10
10.070766
 20
4.913131
  0
VERTEX
  8
MSgnd
 10
10.067439
 20
4.906739
  0
VERTEX
  8
MSgnd
 10
10.064681
 20
4.900082
  0
VERTEX
  8
MSgnd
 10
10.062515
 20
4.893209
  0
VERTEX
  8
MSgnd
 10
10.060955
 20
4.886174
  0
VERTEX
  8
MSgnd
 10
10.060014
 20
4.879030
  0
VERTEX
  8
MSgnd
 10
10.059700
 20
4.871831
  0
VERTEX
  8
MSgnd
 10
10.051900
 20
4.871831
  0
VERTEX
  8
MSgnd
 10
10.052244
 20
4.879710
  0
VERTEX
  8
MSgnd
 10
10.053273
 20
4.887529
  0
VERTEX
  8
MSgnd
 10
10.054980
 20
4.895228
  0
VERTEX
  8
MSgnd
 10
10.057352
 20
4.902749
  0
VERTEX
  8
MSgnd
 10
10.060370
 20
4.910035
  0
VERTEX
  8
MSgnd
 10
10.064011
 20
4.917031
  0
VERTEX
  8
MSgnd
 10
10.068249
 20
4.923682
  0
VERTEX
  8
MSgnd
 10
10.073050
 20
4.929939
  0
VERTEX
  8
MSgnd
 10
10.078378
 20
4.935753
  0
VERTEX
  8
MSgnd
 10
10.084192
 20
4.941081
  0
VERTEX
  8
MSgnd
 10
10.090449
 20
4.945882
  0
VERTEX
  8
MSgnd
 10
10.097100
 20
4.950119
  0
VERTEX
  8
MSgnd
 10
10.104095
 20
4.953761
  0
VERTEX
  8
MSgnd
 10
10.111381
 20
4.956779
  0
VERTEX
  8
MSgnd
 10
10.118903
 20
4.959150
  0
VERTEX
  8
MSgnd
 10
10.126602
 20
4.960857
  0
VERTEX
  8
MSgnd
 10
10.134421
 20
4.961887
  0
VERTEX
  8
MSgnd
 10
10.142300
 20
4.962231
  0
VERTEX
  8
MSgnd
 10
10.142300
 20
4.954431
  0
SEQEND
  0
POLYLINE
  8
MSgnd
  6
CONTINUOUS
 66
1
 10
0.0
 20
0.0
 70
1
  0
VERTEX
  8
MSgnd
 10
10.142300
 20
4.981431
  0
VERTEX
  8
MSgnd
 10
10.132748
 20
4.981014
  0
VERTEX
  8
MSgnd
 10
10.123268
 20
4.979766
  0
VERTEX
  8
MSgnd
 10
10.113933
 20
4.977696
  0
VERTEX
  8
MSgnd
 10
10.104815
 20
4.974821
  0
VERTEX
  8
MSgnd
 10
10.095981
 20
4.971162
  0
VERTEX
  8
MSgnd
 10
10.087500
 20
4.966747
  0
VERTEX
  8
MSgnd
 10
10.079436
 20
4.961610
  0
VERTEX
  8
MSgnd
 10
10.071850
 20
4.955789
  0
VERTEX
  8
MSgnd
 10
10.064801
 20
4.949330
  0
VERTEX
  8
MSgnd
 10
10.058342
 20
4.942280
  0
VERTEX
  8
MSgnd
 10
10.052521
 20
4.934695
  0
VERTEX
  8
MSgnd
 10
10.047384
 20
4.926631
  0
VERTEX
  8
MSgnd
 10
10.042969
 20
4.918150
  0
VERTEX
  8
MSgnd
 10
10.039310
 20
4.909316
  0
VERTEX
  8
MSgnd
 10
10.036435
 20
4.900197
  0
VERTEX
  8
MSgnd
 10
10.034365
 20
4.890863
  0
VERTEX
  8
MSgnd
 10
10.033117
 20
4.881383
  0
VERTEX
  8
MSgnd
 10
10.032700
 20
4.871831
  0
VERTEX
  8
MSgnd
 10
10.024900
 20
4.871831
  0
VERTEX
  8
MSgnd
 10
10.025347
 20
4.882063
  0
VERTEX
  8
MSgnd
 10
10.026684
 20
4.892217
  0
VERTEX
  8
MSgnd
 10
10.028900
 20
4.902216
  0
VERTEX
  8
MSgnd
 10
10.031980
 20
4.911984
  0
VERTEX
  8
MSgnd
 10
10.035899
 20
4.921446
  0
VERTEX
  8
MSgnd
 10
10.040629
 20
4.930531
  0
VERTEX
  8
MSgnd
 10
10.046132
 20
4.939169
  0
VERTEX
  8
MSgnd
 10
10.052366
 20
4.947294
  0
VERTEX
  8
MSgnd
 10
10.059286
 20
4.954845
  0
VERTEX
  8
MSgnd
 10
10.066837
 20
4.961764
  0
VERTEX
  8
MSgnd
 10
10.074962
 20
4.967999
  0
VERTEX
  8
MSgnd
 10
10.083600
 20
4.973502
  0
VERTEX
  8
MSgnd
 10
10.092685
 20
4.978231
  0
VERTEX
  8
MSgnd
 10
10.102147
 20
4.982151
  0
VERTEX
  8
MSgnd
 10
10.111915
 20
4.985230
  0
VERTEX
  8
MSgnd
 10
10.121914
 20
4.987447
  0
VERTEX
  8
MSgnd
 10
10.132068
 20
4.988784
  0
VERTEX
  8
MSgnd
 10
10.142300
 20
4.989231
  0
VERTEX
  8
MSgnd
 10
10.142300
 20
4.981431
  0
SEQEND
  0
POLYLINE
  8
SiNdiel
  6
CONTINUOUS
 66
1
 10
0.0
 20
0.0
 70
1
  0
VERTEX
  8
SiNdiel
 10
10.122300
 20
4.939431
  0
VERTEX
  8
SiNdiel
 10
10.162300
 20
4.939431
  0
VERTEX
  8
SiNdiel
 10
10.162300
 20
5.004231
  0
VERTEX
  8
SiNdiel
 10
10.122300
 20
5.004231
  0
VERTEX
  8
SiNdiel
 10
10.122300
 20
4.939431
  0
SEQEND
  0
POLYLINE
  8
Hybrids
  6
CONTINUOUS
 66
1
 10
0.0
 20
0.0
 70
1
  0
VERTEX
  8
Hybrids
 10
10.132300
 20
4.906931
  0
VERTEX
  8
Hybrids
 10
10.152300
 20
4.906931
  0
VERTEX
  8
Hybrids
 10
10.152300
 20
5.036731
  0
VERTEX
  8
Hybrids
 10
10.132300
 20
5.036731
  0
VERTEX
  8
Hybrids
 10
10.132300
 20
4.906931
  0
SEQEND
  0
POLYLINE
  8
MSgnd
  6
CONTINUOUS
 66
1
 10
0.0
 20
0.0
 70
1
  0
VERTEX
  8
MSgnd
 10
10.224900
 20
4.871831
  0
VERTEX
  8
MSgnd
 10
10.224586
 20
4.879030
  0
VERTEX
  8
MSgnd
 10
10.223645
 20
4.886174
  0
VERTEX
  8
MSgnd
 10
10.222085
 20
4.893209
  0
VERTEX
  8
MSgnd
 10
10.219919
 20
4.900082
  0
VERTEX
  8
MSgnd
 10
10.217161
 20
4.906739
  0
VERTEX
  8
MSgnd
 10
10.213834
 20
4.913131
  0
VERTEX
  8
MSgnd
 10
10.209962
 20
4.919208
  0
VERTEX
  8
MSgnd
 10
10.205575
 20
4.924925
  0
VERTEX
  8
MSgnd
 10
10.200707
 20
4.930238
  0
VERTEX
  8
MSgnd
 10
10.195394
 20
4.935106
  0
VERTEX
  8
MSgnd
 10
10.189677
 20
4.939493
  0
VERTEX
  8
MSgnd
 10
10.183600
 20
4.943364
  0
VERTEX
  8
MSgnd
 10
10.177208
 20
4.946692
  0
VERTEX
  8
MSgnd
 10
10.170551
 20
4.949449
  0
VERTEX
  8
MSgnd
 10
10.163678
 20
4.951616
  0
VERTEX
  8
MSgnd
 10
10.156643
 20
4.953176
  0
VERTEX
  8
MSgnd
 10
10.149499
 20
4.954116
  0
VERTEX
  8
MSgnd
 10
10.142300
 20
4.954431
  0
VERTEX
  8
MSgnd
 10
10.142300
 20
4.962231
  0
VERTEX
  8
MSgnd
 10
10.150179
 20
4.961887
  0
VERTEX
  8
MSgnd
 10
10.157998
 20
4.960857
  0
VERTEX
  8
MSgnd
 10
10.165697
 20
4.959150
  0
VERTEX
  8
MSgnd
 10
10.173219
 20
4.956779
  0
VERTEX
  8
MSgnd
 10
10.180505
 20
4.953761
  0
VERTEX
  8
MSgnd
 10
10.187500
 20
4.950119
  0
VERTEX
  8
MSgnd
 10
10.194151
 20
4.945882
  0
VERTEX
  8
MSgnd
 10
10.200408
 20
4.941081
  0
VERTEX
  8
MSgnd
 10
10.206222
 20
4.935753
  0
VERTEX
  8
MSgnd
 10
10.211550
 20
4.929939
  0
VERTEX
  8
MSgnd
 10
10.216351
 20
4.923682
  0
VERTEX
  8
MSgnd
 10
10.220589
 20
4.917031
  0
VERTEX
  8
MSgnd
 10
10.224230
 20
4.910035
  0
VERTEX
  8
MSgnd
 10
10.227248
 20
4.902749
  0
VERTEX
  8
MSgnd
 10
10.229620
 20
4.895228
  0
VERTEX
  8
MSgnd
 10
10.231327
 20
4.887529
  0
VERTEX
  8
MSgnd
 10
10.232356
 20
4.879710
  0
VERTEX
  8
MSgnd
 10
10.232700
 20
4.871831
  0
VERTEX
  8
MSgnd
 10
10.224900
 20
4.871831
  0
SEQEND
  0
POLYLINE
  8
MSgnd
  6
CONTINUOUS
 66
1
 10
0.0
 20
0.0
 70
1
  0
VERTEX
  8
MSgnd
 10
10.251900
 20
4.871831
  0
VERTEX
  8
MSgnd
 10
10.251483
 20
4.881383
  0
VERTEX
  8
MSgnd
 10
10.250235
 20
4.890863
  0
VERTEX
  8
MSgnd
 10
10.248165
 20
4.900197
  0
VERTEX
  8
MSgnd
 10
10.245290
 20
4.909316
  0
VERTEX
  8
MSgnd
 10
10.241631
 20
4.918150
  0
VERTEX
  8
MSgnd
 10
10.237216
 20
4.926631
  0
VERTEX
  8
MSgnd
 10
10.232079
 20
4.934695
  0
VERTEX
  8
MSgnd
 10
10.226258
 20
4.942280
  0
VERTEX
  8
MSgnd
 10
10.219799
 20
4.949330
  0
VERTEX
  8
MSgnd
 10
10.212750
 20
4.955789
  0
VERTEX
  8
MSgnd
 10
10.205164
 20
4.961610
  0
VERTEX
  8
MSgnd
 10
10.197100
 20
4.966747
  0
VERTEX
  8
MSgnd
 10
10.188619
 20
4.971162
  0
VERTEX
  8
MSgnd
 10
10.179785
 20
4.974821
  0
VERTEX
  8
MSgnd
 10
10.170667
 20
4.977696
  0
VERTEX
  8
MSgnd
 10
10.161332
 20
4.979766
  0
VERTEX
  8
MSgnd
 10
10.151852
 20
4.981014
  0
VERTEX
  8
MSgnd
 10
10.142300
 20
4.981431
  0
VERTEX
  8
MSgnd
 10
10.142300
 20
4.989231
  0
VERTEX
  8
MSgnd
 10
10.152532
 20
4.988784
  0
VERTEX
  8
MSgnd
 10
10.162686
 20
4.987447
  0
VERTEX
  8
MSgnd
 10
10.172685
 20
4.985230
  0
VERTEX
  8
MSgnd
 10
10.182453
 20
4.982151
  0
VERTEX
  8
MSgnd
 10
10.191915
 20
4.978231
  0
VERTEX
  8
MSgnd
 10
10.201000
 20
4.973502
  0
VERTEX
  8
MSgnd
 10
10.209638
 20
4.967999
  0
VERTEX
  8
MSgnd
 10
10.217763
 20
4.961764
  0
VERTEX
  8
MSgnd
 10
10.225314
 20
4.954845
  0
VERTEX
  8
MSgnd
 10
10.232234
 20
4.947294
  0
VERTEX
  8
MSgnd
 10
10.238468
 20
4.939169
  0
VERTEX
  8
MSgnd
 10
10.243971
 20
4.930531
  0
VERTEX
  8
MSgnd
 10
10.248701
 20
4.921446
  0
VERTEX
  8
MSgnd
 10
10.252620
 20
4.911984
  0
VERTEX
  8
MSgnd
 10
10.255700
 20
4.902216
  0
VERTEX
  8
MSgnd
 10
10.257916
 20
4.892217
  0
VERTEX
  8
MSgnd
 10
10.259253
 20
4.882063
  0
VERTEX
  8
MSgnd
 10
10.259700
 20
4.871831
  0
VERTEX
  8
MSgnd
 10
10.251900
 20
4.871831
  0
SEQEND
  0
POLYLINE
  8
SiNdiel
  6
CONTINUOUS
 66
1
 10
0.0
 20
0.0
 70
1
  0
VERTEX
  8
SiNdiel
 10
10.209900
 20
4.891831
  0
VERTEX
  8
SiNdiel
 10
10.209900
 20
4.851831
  0
VERTEX
  8
SiNdiel
 10
10.274700
 20
4.851831
  0
VERTEX
  8
SiNdiel
 10
10.274700
 20
4.891831
  0
VERTEX
  8
SiNdiel
 10
10.209900
 20
4.891831
  0
SEQEND
  0
POLYLINE
  8
Hybrids
  6
CONTINUOUS
 66
1
 10
0.0
 20
0.0
 70
1
  0
VERTEX
  8
Hybrids
 10
10.177400
 20
4.881831
  0
VERTEX
  8
Hybrids
 10
10.177400
 20
4.861831
  0
VERTEX
  8
Hybrids
 10
10.307200
 20
4.861831
  0
VERTEX
  8
Hybrids
 10
10.307200
 20
4.881831
  0
VERTEX
  8
Hybrids
 10
10.177400
 20
4.881831
  0
SEQEND
  0
POLYLINE
  8
MSgnd
  6
CONTINUOUS
 66
1
 10
0.0
 20
0.0
 70
1
  0
VERTEX
  8
MSgnd
 10
10.251900
 20
4.871831
  0
VERTEX
  8
MSgnd
 10
10.251900
 20
4.735212
  0
VERTEX
  8
MSgnd
 10
10.259700
 20
4.735212
  0
VERTEX
  8
MSgnd
 10
10.259700
 20
4.871831
  0
VERTEX
  8
MSgnd
 10
10.251900
 20
4.871831
  0
SEQEND
  0
POLYLINE
  8
MSgnd
  6
CONTINUOUS
 66
1
 10
0.0
 20
0.0
 70
1
  0
VERTEX
  8
MSgnd
 10
10.224900
 20
4.871831
  0
VERTEX
  8
MSgnd
 10
10.224900
 20
4.735212
  0
VERTEX
  8
MSgnd
 10
10.232700
 20
4.735212
  0
VERTEX
  8
MSgnd
 10
10.232700
 20
4.871831
  0
VERTEX
  8
MSgnd
 10
10.224900
 20
4.871831
  0
SEQEND
  0
POLYLINE
  8
SiNwafer
  6
CONTINUOUS
 66
1
 10
0.0
 20
0.0
 70
1
  0
VERTEX
  8
SiNwafer
 10
10.228800
 20
4.735212
  0
VERTEX
  8
SiNwafer
 10
10.228800
 20
3.000000
  0
VERTEX
  8
SiNwafer
 10
10.255800
 20
3.000000
  0
VERTEX
  8
SiNwafer
 10
10.255800
 20
4.735212
  0
VERTEX
  8
SiNwafer
 10
10.228800
 20
4.735212
  0
SEQEND
  0
POLYLINE
  8
MSgnd
  6
CONTINUOUS
 66
1
 10
0.0
 20
0.0
 70
1
  0
VERTEX
  8
MSgnd
 10
10.251900
 20
4.735212
  0
VERTEX
  8
MSgnd
 10
10.251900
 20
4.635212
  0
VERTEX
  8
MSgnd
 10
10.259700
 20
4.635212
  0
VERTEX
  8
MSgnd
 10
10.259700
 20
4.735212
  0
VERTEX
  8
MSgnd
 10
10.251900
 20
4.735212
  0
SEQEND
  0
POLYLINE
  8
MSgnd
  6
CONTINUOUS
 66
1
 10
0.0
 20
0.0
 70
1
  0
VERTEX
  8
MSgnd
 10
10.224900
 20
4.735212
  0
VERTEX
  8
MSgnd
 10
10.224900
 20
4.635212
  0
VERTEX
  8
MSgnd
 10
10.232700
 20
4.635212
  0
VERTEX
  8
MSgnd
 10
10.232700
 20
4.735212
  0
VERTEX
  8
MSgnd
 10
10.224900
 20
4.735212
  0
SEQEND
  0
POLYLINE
  8
SiNdiel
  6
CONTINUOUS
 66
1
 10
0.0
 20
0.0
 70
1
  0
VERTEX
  8
SiNdiel
 10
10.209900
 20
4.655212
  0
VERTEX
  8
SiNdiel
 10
10.209900
 20
4.615212
  0
VERTEX
  8
SiNdiel
 10
10.274700
 20
4.615212
  0
VERTEX
  8
SiNdiel
 10
10.274700
 20
4.655212
  0
VERTEX
  8
SiNdiel
 10
10.209900
 20
4.655212
  0
SEQEND
  0
POLYLINE
  8
Hybrids
  6
CONTINUOUS
 66
1
 10
0.0
 20
0.0
 70
1
  0
VERTEX
  8
Hybrids
 10
10.177400
 20
4.645212
  0
VERTEX
  8
Hybrids
 10
10.177400
 20
4.625212
  0
VERTEX
  8
Hybrids
 10
10.307200
 20
4.625212
  0
VERTEX
  8
Hybrids
 10
10.307200
 20
4.645212
  0
VERTEX
  8
Hybrids
 10
10.177400
 20
4.645212
  0
SEQEND
  0
POLYLINE
  8
MSgnd
  6
CONTINUOUS
 66
1
 10
0.0
 20
0.0
 70
1
  0
VERTEX
  8
MSgnd
 10
10.251900
 20
4.635212
  0
VERTEX
  8
MSgnd
 10
10.251900
 20
3.000000
  0
VERTEX
  8
MSgnd
 10
10.259700
 20
3.000000
  0
VERTEX
  8
MSgnd
 10
10.259700
 20
4.635212
  0
VERTEX
  8
MSgnd
 10
10.251900
 20
4.635212
  0
SEQEND
  0
POLYLINE
  8
MSgnd
  6
CONTINUOUS
 66
1
 10
0.0
 20
0.0
 70
1
  0
VERTEX
  8
MSgnd
 10
10.224900
 20
4.635212
  0
VERTEX
  8
MSgnd
 10
10.224900
 20
3.000000
  0
VERTEX
  8
MSgnd
 10
10.232700
 20
3.000000
  0
VERTEX
  8
MSgnd
 10
10.232700
 20
4.635212
  0
VERTEX
  8
MSgnd
 10
10.224900
 20
4.635212
  0
SEQEND
  0
POLYLINE
  8
SiNdiel
  6
CONTINUOUS
 66
1
 10
0.0
 20
0.0
 70
1
  0
VERTEX
  8
SiNdiel
 10
10.209900
 20
3.020000
  0
VERTEX
  8
SiNdiel
 10
10.209900
 20
2.980000
  0
VERTEX
  8
SiNdiel
 10
10.274700
 20
2.980000
  0
VERTEX
  8
SiNdiel
 10
10.274700
 20
3.020000
  0
VERTEX
  8
SiNdiel
 10
10.209900
 20
3.020000
  0
SEQEND
  0
POLYLINE
  8
Hybrids
  6
CONTINUOUS
 66
1
 10
0.0
 20
0.0
 70
1
  0
VERTEX
  8
Hybrids
 10
10.177400
 20
3.010000
  0
VERTEX
  8
Hybrids
 10
10.177400
 20
2.990000
  0
VERTEX
  8
Hybrids
 10
10.307200
 20
2.990000
  0
VERTEX
  8
Hybrids
 10
10.307200
 20
3.010000
  0
VERTEX
  8
Hybrids
 10
10.177400
 20
3.010000
  0
SEQEND
  0
POLYLINE
  8
SiNwafer
  6
CONTINUOUS
 66
1
 10
0.0
 20
0.0
 70
1
  0
VERTEX
  8
SiNwafer
 10
10.342300
 20
2.913500
  0
VERTEX
  8
SiNwafer
 10
10.334761
 20
2.913829
  0
VERTEX
  8
SiNwafer
 10
10.327279
 20
2.914814
  0
VERTEX
  8
SiNwafer
 10
10.319912
 20
2.916447
  0
VERTEX
  8
SiNwafer
 10
10.312715
 20
2.918717
  0
VERTEX
  8
SiNwafer
 10
10.305744
 20
2.921604
  0
VERTEX
  8
SiNwafer
 10
10.299050
 20
2.925089
  0
VERTEX
  8
SiNwafer
 10
10.292686
 20
2.929143
  0
VERTEX
  8
SiNwafer
 10
10.286699
 20
2.933737
  0
VERTEX
  8
SiNwafer
 10
10.281135
 20
2.938835
  0
VERTEX
  8
SiNwafer
 10
10.276037
 20
2.944399
  0
VERTEX
  8
SiNwafer
 10
10.271443
 20
2.950386
  0
VERTEX
  8
SiNwafer
 10
10.267389
 20
2.956750
  0
VERTEX
  8
SiNwafer
 10
10.263904
 20
2.963444
  0
VERTEX
  8
SiNwafer
 10
10.261017
 20
2.970415
  0
VERTEX
  8
SiNwafer
 10
10.258747
 20
2.977612
  0
VERTEX
  8
SiNwafer
 10
10.257114
 20
2.984979
  0
VERTEX
  8
SiNwafer
 10
10.256129
 20
2.992461
  0
VERTEX
  8
SiNwafer
 10
10.255800
 20
3.000000
  0
VERTEX
  8
SiNwafer
 10
10.228800
 20
3.000000
  0
VERTEX
  8
SiNwafer
 10
10.229232
 20
2.990108
  0
VERTEX
  8
SiNwafer
 10
10.230524
 20
2.980291
  0
VERTEX
  8
SiNwafer
 10
10.232667
 20
2.970624
  0
VERTEX
  8
SiNwafer
 10
10.235645
 20
2.961181
  0
VERTEX
  8
SiNwafer
 10
10.239434
 20
2.952033
  0
VERTEX
  8
SiNwafer
 10
10.244006
 20
2.943250
  0
VERTEX
  8
SiNwafer
 10
10.249326
 20
2.934899
  0
VERTEX
  8
SiNwafer
 10
10.255354
 20
2.927044
  0
VERTEX
  8
SiNwafer
 10
10.262043
 20
2.919743
  0
VERTEX
  8
SiNwafer
 10
10.269344
 20
2.913054
  0
VERTEX
  8
SiNwafer
 10
10.277199
 20
2.907026
  0
VERTEX
  8
SiNwafer
 10
10.285550
 20
2.901706
  0
VERTEX
  8
SiNwafer
 10
10.294333
 20
2.897134
  0
VERTEX
  8
SiNwafer
 10
10.303481
 20
2.893345
  0
VERTEX
  8
SiNwafer
 10
10.312924
 20
2.890367
  0
VERTEX
  8
SiNwafer
 10
10.322591
 20
2.888224
  0
VERTEX
  8
SiNwafer
 10
10.332408
 20
2.886932
  0
VERTEX
  8
SiNwafer
 10
10.342300
 20
2.886500
  0
VERTEX
  8
SiNwafer
 10
10.342300
 20
2.913500
  0
SEQEND
  0
POLYLINE
  8
MSgnd
  6
CONTINUOUS
 66
1
 10
0.0
 20
0.0
 70
1
  0
VERTEX
  8
MSgnd
 10
10.342300
 20
2.917400
  0
VERTEX
  8
MSgnd
 10
10.335101
 20
2.917714
  0
VERTEX
  8
MSgnd
 10
10.327957
 20
2.918655
  0
VERTEX
  8
MSgnd
 10
10.320922
 20
2.920215
  0
VERTEX
  8
MSgnd
 10
10.314049
 20
2.922381
  0
VERTEX
  8
MSgnd
 10
10.307392
 20
2.925139
  0
VERTEX
  8
MSgnd
 10
10.301000
 20
2.928466
  0
VERTEX
  8
MSgnd
 10
10.294923
 20
2.932338
  0
VERTEX
  8
MSgnd
 10
10.289206
 20
2.936725
  0
VERTEX
  8
MSgnd
 10
10.283893
 20
2.941593
  0
VERTEX
  8
MSgnd
 10
10.279025
 20
2.946906
  0
VERTEX
  8
MSgnd
 10
10.274638
 20
2.952623
  0
VERTEX
  8
MSgnd
 10
10.270766
 20
2.958700
  0
VERTEX
  8
MSgnd
 10
10.267439
 20
2.965092
  0
VERTEX
  8
MSgnd
 10
10.264681
 20
2.971749
  0
VERTEX
  8
MSgnd
 10
10.262515
 20
2.978622
  0
VERTEX
  8
MSgnd
 10
10.260955
 20
2.985657
  0
VERTEX
  8
MSgnd
 10
10.260014
 20
2.992801
  0
VERTEX
  8
MSgnd
 10
10.259700
 20
3.000000
  0
VERTEX
  8
MSgnd
 10
10.251900
 20
3.000000
  0
VERTEX
  8
MSgnd
 10
10.252244
 20
2.992121
  0
VERTEX
  8
MSgnd
 10
10.253273
 20
2.984302
  0
VERTEX
  8
MSgnd
 10
10.254980
 20
2.976603
  0
VERTEX
  8
MSgnd
 10
10.257352
 20
2.969081
  0
VERTEX
  8
MSgnd
 10
10.260370
 20
2.961795
  0
VERTEX
  8
MSgnd
 10
10.264011
 20
2.954800
  0
VERTEX
  8
MSgnd
 10
10.268249
 20
2.948149
  0
VERTEX
  8
MSgnd
 10
10.273050
 20
2.941892
  0
VERTEX
  8
MSgnd
 10
10.278378
 20
2.936078
  0
VERTEX
  8
MSgnd
 10
10.284192
 20
2.930750
  0
VERTEX
  8
MSgnd
 10
10.290449
 20
2.925949
  0
VERTEX
  8
MSgnd
 10
10.297100
 20
2.921711
  0
VERTEX
  8
MSgnd
 10
10.304095
 20
2.918070
  0
VERTEX
  8
MSgnd
 10
10.311381
 20
2.915052
  0
VERTEX
  8
MSgnd
 10
10.318903
 20
2.912680
  0
VERTEX
  8
MSgnd
 10
10.326602
 20
2.910973
  0
VERTEX
  8
MSgnd
 10
10.334421
 20
2.909944
  0
VERTEX
  8
MSgnd
 10
10.342300
 20
2.909600
  0
VERTEX
  8
MSgnd
 10
10.342300
 20
2.917400
  0
SEQEND
  0
POLYLINE
  8
MSgnd
  6
CONTINUOUS
 66
1
 10
0.0
 20
0.0
 70
1
  0
VERTEX
  8
MSgnd
 10
10.342300
 20
2.890400
  0
VERTEX
  8
MSgnd
 10
10.332748
 20
2.890817
  0
VERTEX
  8
MSgnd
 10
10.323268
 20
2.892065
  0
VERTEX
  8
MSgnd
 10
10.313933
 20
2.894135
  0
VERTEX
  8
MSgnd
 10
10.304815
 20
2.897010
  0
VERTEX
  8
MSgnd
 10
10.295981
 20
2.900669
  0
VERTEX
  8
MSgnd
 10
10.287500
 20
2.905084
  0
VERTEX
  8
MSgnd
 10
10.279436
 20
2.910221
  0
VERTEX
  8
MSgnd
 10
10.271850
 20
2.916042
  0
VERTEX
  8
MSgnd
 10
10.264801
 20
2.922501
  0
VERTEX
  8
MSgnd
 10
10.258342
 20
2.929550
  0
VERTEX
  8
MSgnd
 10
10.252521
 20
2.937136
  0
VERTEX
  8
MSgnd
 10
10.247384
 20
2.945200
  0
VERTEX
  8
MSgnd
 10
10.242969
 20
2.953681
  0
VERTEX
  8
MSgnd
 10
10.239310
 20
2.962515
  0
VERTEX
  8
MSgnd
 10
10.236435
 20
2.971633
  0
VERTEX
  8
MSgnd
 10
10.234365
 20
2.980968
  0
VERTEX
  8
MSgnd
 10
10.233117
 20
2.990448
  0
VERTEX
  8
MSgnd
 10
10.232700
 20
3.000000
  0
VERTEX
  8
MSgnd
 10
10.224900
 20
3.000000
  0
VERTEX
  8
MSgnd
 10
10.225347
 20
2.989768
  0
VERTEX
  8
MSgnd
 10
10.226684
 20
2.979614
  0
VERTEX
  8
MSgnd
 10
10.228900
 20
2.969615
  0
VERTEX
  8
MSgnd
 10
10.231980
 20
2.959847
  0
VERTEX
  8
MSgnd
 10
10.235899
 20
2.950385
  0
VERTEX
  8
MSgnd
 10
10.240629
 20
2.941300
  0
VERTEX
  8
MSgnd
 10
10.246132
 20
2.932662
  0
VERTEX
  8
MSgnd
 10
10.252366
 20
2.924537
  0
VERTEX
  8
MSgnd
 10
10.259286
 20
2.916986
  0
VERTEX
  8
MSgnd
 10
10.266837
 20
2.910066
  0
VERTEX
  8
MSgnd
 10
10.274962
 20
2.903832
  0
VERTEX
  8
MSgnd
 10
10.283600
 20
2.898329
  0
VERTEX
  8
MSgnd
 10
10.292685
 20
2.893599
  0
VERTEX
  8
MSgnd
 10
10.302147
 20
2.889680
  0
VERTEX
  8
MSgnd
 10
10.311915
 20
2.886600
  0
VERTEX
  8
MSgnd
 10
10.321914
 20
2.884384
  0
VERTEX
  8
MSgnd
 10
10.332068
 20
2.883047
  0
VERTEX
  8
MSgnd
 10
10.342300
 20
2.882600
  0
VERTEX
  8
MSgnd
 10
10.342300
 20
2.890400
  0
SEQEND
  0
POLYLINE
  8
SiNdiel
  6
CONTINUOUS
 66
1
 10
0.0
 20
0.0
 70
1
  0
VERTEX
  8
SiNdiel
 10
10.322300
 20
2.867600
  0
VERTEX
  8
SiNdiel
 10
10.362300
 20
2.867600
  0
VERTEX
  8
SiNdiel
 10
10.362300
 20
2.932400
  0
VERTEX
  8
SiNdiel
 10
10.322300
 20
2.932400
  0
VERTEX
  8
SiNdiel
 10
10.322300
 20
2.867600
  0
SEQEND
  0
POLYLINE
  8
Hybrids
  6
CONTINUOUS
 66
1
 10
0.0
 20
0.0
 70
1
  0
VERTEX
  8
Hybrids
 10
10.332300
 20
2.835100
  0
VERTEX
  8
Hybrids
 10
10.352300
 20
2.835100
  0
VERTEX
  8
Hybrids
 10
10.352300
 20
2.964900
  0
VERTEX
  8
Hybrids
 10
10.332300
 20
2.964900
  0
VERTEX
  8
Hybrids
 10
10.332300
 20
2.835100
  0
SEQEND
  0
POLYLINE
  8
SiNwafer
  6
CONTINUOUS
 66
1
 10
0.0
 20
0.0
 70
1
  0
VERTEX
  8
SiNwafer
 10
10.342300
 20
2.886500
  0
VERTEX
  8
SiNwafer
 10
17.300000
 20
2.886500
  0
VERTEX
  8
SiNwafer
 10
17.300000
 20
2.913500
  0
VERTEX
  8
SiNwafer
 10
10.342300
 20
2.913500
  0
VERTEX
  8
SiNwafer
 10
10.342300
 20
2.886500
  0
SEQEND
  0
POLYLINE
  8
MSgnd
  6
CONTINUOUS
 66
1
 10
0.0
 20
0.0
 70
1
  0
VERTEX
  8
MSgnd
 10
10.342300
 20
2.909600
  0
VERTEX
  8
MSgnd
 10
12.342300
 20
2.909600
  0
VERTEX
  8
MSgnd
 10
12.342300
 20
2.917400
  0
VERTEX
  8
MSgnd
 10
10.342300
 20
2.917400
  0
VERTEX
  8
MSgnd
 10
10.342300
 20
2.909600
  0
SEQEND
  0
POLYLINE
  8
MSgnd
  6
CONTINUOUS
 66
1
 10
0.0
 20
0.0
 70
1
  0
VERTEX
  8
MSgnd
 10
10.342300
 20
2.882600
  0
VERTEX
  8
MSgnd
 10
12.342300
 20
2.882600
  0
VERTEX
  8
MSgnd
 10
12.342300
 20
2.890400
  0
VERTEX
  8
MSgnd
 10
10.342300
 20
2.890400
  0
VERTEX
  8
MSgnd
 10
10.342300
 20
2.882600
  0
SEQEND
  0
POLYLINE
  8
SiNdiel
  6
CONTINUOUS
 66
1
 10
0.0
 20
0.0
 70
1
  0
VERTEX
  8
SiNdiel
 10
12.322300
 20
2.867600
  0
VERTEX
  8
SiNdiel
 10
12.362300
 20
2.867600
  0
VERTEX
  8
SiNdiel
 10
12.362300
 20
2.932400
  0
VERTEX
  8
SiNdiel
 10
12.322300
 20
2.932400
  0
VERTEX
  8
SiNdiel
 10
12.322300
 20
2.867600
  0
SEQEND
  0
POLYLINE
  8
Hybrids
  6
CONTINUOUS
 66
1
 10
0.0
 20
0.0
 70
1
  0
VERTEX
  8
Hybrids
 10
12.332300
 20
2.835100
  0
VERTEX
  8
Hybrids
 10
12.352300
 20
2.835100
  0
VERTEX
  8
Hybrids
 10
12.352300
 20
2.964900
  0
VERTEX
  8
Hybrids
 10
12.332300
 20
2.964900
  0
VERTEX
  8
Hybrids
 10
12.332300
 20
2.835100
  0
SEQEND
  0
POLYLINE
  8
MSgnd
  6
CONTINUOUS
 66
1
 10
0.0
 20
0.0
 70
1
  0
VERTEX
  8
MSgnd
 10
12.342300
 20
2.909600
  0
VERTEX
  8
MSgnd
 10
14.342300
 20
2.909600
  0
VERTEX
  8
MSgnd
 10
14.342300
 20
2.917400
  0
VERTEX
  8
MSgnd
 10
12.342300
 20
2.917400
  0
VERTEX
  8
MSgnd
 10
12.342300
 20
2.909600
  0
SEQEND
  0
POLYLINE
  8
MSgnd
  6
CONTINUOUS
 66
1
 10
0.0
 20
0.0
 70
1
  0
VERTEX
  8
MSgnd
 10
12.342300
 20
2.882600
  0
VERTEX
  8
MSgnd
 10
14.342300
 20
2.882600
  0
VERTEX
  8
MSgnd
 10
14.342300
 20
2.890400
  0
VERTEX
  8
MSgnd
 10
12.342300
 20
2.890400
  0
VERTEX
  8
MSgnd
 10
12.342300
 20
2.882600
  0
SEQEND
  0
POLYLINE
  8
SiNdiel
  6
CONTINUOUS
 66
1
 10
0.0
 20
0.0
 70
1
  0
VERTEX
  8
SiNdiel
 10
14.322300
 20
2.867600
  0
VERTEX
  8
SiNdiel
 10
14.362300
 20
2.867600
  0
VERTEX
  8
SiNdiel
 10
14.362300
 20
2.932400
  0
VERTEX
  8
SiNdiel
 10
14.322300
 20
2.932400
  0
VERTEX
  8
SiNdiel
 10
14.322300
 20
2.867600
  0
SEQEND
  0
POLYLINE
  8
Hybrids
  6
CONTINUOUS
 66
1
 10
0.0
 20
0.0
 70
1
  0
VERTEX
  8
Hybrids
 10
14.332300
 20
2.835100
  0
VERTEX
  8
Hybrids
 10
14.352300
 20
2.835100
  0
VERTEX
  8
Hybrids
 10
14.352300
 20
2.964900
  0
VERTEX
  8
Hybrids
 10
14.332300
 20
2.964900
  0
VERTEX
  8
Hybrids
 10
14.332300
 20
2.835100
  0
SEQEND
  0
POLYLINE
  8
MSgnd
  6
CONTINUOUS
 66
1
 10
0.0
 20
0.0
 70
1
  0
VERTEX
  8
MSgnd
 10
14.342300
 20
2.909600
  0
VERTEX
  8
MSgnd
 10
16.342300
 20
2.909600
  0
VERTEX
  8
MSgnd
 10
16.342300
 20
2.917400
  0
VERTEX
  8
MSgnd
 10
14.342300
 20
2.917400
  0
VERTEX
  8
MSgnd
 10
14.342300
 20
2.909600
  0
SEQEND
  0
POLYLINE
  8
MSgnd
  6
CONTINUOUS
 66
1
 10
0.0
 20
0.0
 70
1
  0
VERTEX
  8
MSgnd
 10
14.342300
 20
2.882600
  0
VERTEX
  8
MSgnd
 10
16.342300
 20
2.882600
  0
VERTEX
  8
MSgnd
 10
16.342300
 20
2.890400
  0
VERTEX
  8
MSgnd
 10
14.342300
 20
2.890400
  0
VERTEX
  8
MSgnd
 10
14.342300
 20
2.882600
  0
SEQEND
  0
POLYLINE
  8
SiNdiel
  6
CONTINUOUS
 66
1
 10
0.0
 20
0.0
 70
1
  0
VERTEX
  8
SiNdiel
 10
16.322300
 20
2.867600
  0
VERTEX
  8
SiNdiel
 10
16.362300
 20
2.867600
  0
VERTEX
  8
SiNdiel
 10
16.362300
 20
2.932400
  0
VERTEX
  8
SiNdiel
 10
16.322300
 20
2.932400
  0
VERTEX
  8
SiNdiel
 10
16.322300
 20
2.867600
  0
SEQEND
  0
POLYLINE
  8
Hybrids
  6
CONTINUOUS
 66
1
 10
0.0
 20
0.0
 70
1
  0
VERTEX
  8
Hybrids
 10
16.332300
 20
2.835100
  0
VERTEX
  8
Hybrids
 10
16.352300
 20
2.835100
  0
VERTEX
  8
Hybrids
 10
16.352300
 20
2.964900
  0
VERTEX
  8
Hybrids
 10
16.332300
 20
2.964900
  0
VERTEX
  8
Hybrids
 10
16.332300
 20
2.835100
  0
SEQEND
  0
POLYLINE
  8
MSgnd
  6
CONTINUOUS
 66
1
 10
0.0
 20
0.0
 70
1
  0
VERTEX
  8
MSgnd
 10
16.342300
 20
2.909600
  0
VERTEX
  8
MSgnd
 10
17.300000
 20
2.909600
  0
VERTEX
  8
MSgnd
 10
17.300000
 20
2.917400
  0
VERTEX
  8
MSgnd
 10
16.342300
 20
2.917400
  0
VERTEX
  8
MSgnd
 10
16.342300
 20
2.909600
  0
SEQEND
  0
POLYLINE
  8
MSgnd
  6
CONTINUOUS
 66
1
 10
0.0
 20
0.0
 70
1
  0
VERTEX
  8
MSgnd
 10
16.342300
 20
2.882600
  0
VERTEX
  8
MSgnd
 10
17.300000
 20
2.882600
  0
VERTEX
  8
MSgnd
 10
17.300000
 20
2.890400
  0
VERTEX
  8
MSgnd
 10
16.342300
 20
2.890400
  0
VERTEX
  8
MSgnd
 10
16.342300
 20
2.882600
  0
SEQEND
  0
POLYLINE
  8
SiNwafer
  6
CONTINUOUS
 66
1
 10
0.0
 20
0.0
 70
1
  0
VERTEX
  8
SiNwafer
 10
10.028800
 20
4.735212
  0
VERTEX
  8
SiNwafer
 10
10.028800
 20
3.000000
  0
VERTEX
  8
SiNwafer
 10
10.055800
 20
3.000000
  0
VERTEX
  8
SiNwafer
 10
10.055800
 20
4.735212
  0
VERTEX
  8
SiNwafer
 10
10.028800
 20
4.735212
  0
SEQEND
  0
POLYLINE
  8
MSgnd
  6
CONTINUOUS
 66
1
 10
0.0
 20
0.0
 70
1
  0
VERTEX
  8
MSgnd
 10
10.051900
 20
4.735212
  0
VERTEX
  8
MSgnd
 10
10.051900
 20
4.635212
  0
VERTEX
  8
MSgnd
 10
10.059700
 20
4.635212
  0
VERTEX
  8
MSgnd
 10
10.059700
 20
4.735212
  0
VERTEX
  8
MSgnd
 10
10.051900
 20
4.735212
  0
SEQEND
  0
POLYLINE
  8
MSgnd
  6
CONTINUOUS
 66
1
 10
0.0
 20
0.0
 70
1
  0
VERTEX
  8
MSgnd
 10
10.024900
 20
4.735212
  0
VERTEX
  8
MSgnd
 10
10.024900
 20
4.635212
  0
VERTEX
  8
MSgnd
 10
10.032700
 20
4.635212
  0
VERTEX
  8
MSgnd
 10
10.032700
 20
4.735212
  0
VERTEX
  8
MSgnd
 10
10.024900
 20
4.735212
  0
SEQEND
  0
POLYLINE
  8
SiNdiel
  6
CONTINUOUS
 66
1
 10
0.0
 20
0.0
 70
1
  0
VERTEX
  8
SiNdiel
 10
10.009900
 20
4.655212
  0
VERTEX
  8
SiNdiel
 10
10.009900
 20
4.615212
  0
VERTEX
  8
SiNdiel
 10
10.074700
 20
4.615212
  0
VERTEX
  8
SiNdiel
 10
10.074700
 20
4.655212
  0
VERTEX
  8
SiNdiel
 10
10.009900
 20
4.655212
  0
SEQEND
  0
POLYLINE
  8
Hybrids
  6
CONTINUOUS
 66
1
 10
0.0
 20
0.0
 70
1
  0
VERTEX
  8
Hybrids
 10
9.977400
 20
4.645212
  0
VERTEX
  8
Hybrids
 10
9.977400
 20
4.625212
  0
VERTEX
  8
Hybrids
 10
10.107200
 20
4.625212
  0
VERTEX
  8
Hybrids
 10
10.107200
 20
4.645212
  0
VERTEX
  8
Hybrids
 10
9.977400
 20
4.645212
  0
SEQEND
  0
POLYLINE
  8
MSgnd
  6
CONTINUOUS
 66
1
 10
0.0
 20
0.0
 70
1
  0
VERTEX
  8
MSgnd
 10
10.051900
 20
4.635212
  0
VERTEX
  8
MSgnd
 10
10.051900
 20
3.000000
  0
VERTEX
  8
MSgnd
 10
10.059700
 20
3.000000
  0
VERTEX
  8
MSgnd
 10
10.059700
 20
4.635212
  0
VERTEX
  8
MSgnd
 10
10.051900
 20
4.635212
  0
SEQEND
  0
POLYLINE
  8
MSgnd
  6
CONTINUOUS
 66
1
 10
0.0
 20
0.0
 70
1
  0
VERTEX
  8
MSgnd
 10
10.024900
 20
4.635212
  0
VERTEX
  8
MSgnd
 10
10.024900
 20
3.000000
  0
VERTEX
  8
MSgnd
 10
10.032700
 20
3.000000
  0
VERTEX
  8
MSgnd
 10
10.032700
 20
4.635212
  0
VERTEX
  8
MSgnd
 10
10.024900
 20
4.635212
  0
SEQEND
  0
POLYLINE
  8
SiNdiel
  6
CONTINUOUS
 66
1
 10
0.0
 20
0.0
 70
1
  0
VERTEX
  8
SiNdiel
 10
10.009900
 20
3.020000
  0
VERTEX
  8
SiNdiel
 10
10.009900
 20
2.980000
  0
VERTEX
  8
SiNdiel
 10
10.074700
 20
2.980000
  0
VERTEX
  8
SiNdiel
 10
10.074700
 20
3.020000
  0
VERTEX
  8
SiNdiel
 10
10.009900
 20
3.020000
  0
SEQEND
  0
POLYLINE
  8
Hybrids
  6
CONTINUOUS
 66
1
 10
0.0
 20
0.0
 70
1
  0
VERTEX
  8
Hybrids
 10
9.977400
 20
3.010000
  0
VERTEX
  8
Hybrids
 10
9.977400
 20
2.990000
  0
VERTEX
  8
Hybrids
 10
10.107200
 20
2.990000
  0
VERTEX
  8
Hybrids
 10
10.107200
 20
3.010000
  0
VERTEX
  8
Hybrids
 10
9.977400
 20
3.010000
  0
SEQEND
  0
POLYLINE
  8
SiNwafer
  6
CONTINUOUS
 66
1
 10
0.0
 20
0.0
 70
1
  0
VERTEX
  8
SiNwafer
 10
9.942300
 20
2.913500
  0
VERTEX
  8
SiNwafer
 10
9.949839
 20
2.913829
  0
VERTEX
  8
SiNwafer
 10
9.957321
 20
2.914814
  0
VERTEX
  8
SiNwafer
 10
9.964688
 20
2.916447
  0
VERTEX
  8
SiNwafer
 10
9.971885
 20
2.918717
  0
VERTEX
  8
SiNwafer
 10
9.978856
 20
2.921604
  0
VERTEX
  8
SiNwafer
 10
9.985550
 20
2.925089
  0
VERTEX
  8
SiNwafer
 10
9.991914
 20
2.929143
  0
VERTEX
  8
SiNwafer
 10
9.997901
 20
2.933737
  0
VERTEX
  8
SiNwafer
 10
10.003465
 20
2.938835
  0
VERTEX
  8
SiNwafer
 10
10.008563
 20
2.944399
  0
VERTEX
  8
SiNwafer
 10
10.013157
 20
2.950386
  0
VERTEX
  8
SiNwafer
 10
10.017211
 20
2.956750
  0
VERTEX
  8
SiNwafer
 10
10.020696
 20
2.963444
  0
VERTEX
  8
SiNwafer
 10
10.023583
 20
2.970415
  0
VERTEX
  8
SiNwafer
 10
10.025853
 20
2.977612
  0
VERTEX
  8
SiNwafer
 10
10.027486
 20
2.984979
  0
VERTEX
  8
SiNwafer
 10
10.028471
 20
2.992461
  0
VERTEX
  8
SiNwafer
 10
10.028800
 20
3.000000
  0
VERTEX
  8
SiNwafer
 10
10.055800
 20
3.000000
  0
VERTEX
  8
SiNwafer
 10
10.055368
 20
2.990108
  0
VERTEX
  8
SiNwafer
 10
10.054076
 20
2.980291
  0
VERTEX
  8
SiNwafer
 10
10.051933
 20
2.970624
  0
VERTEX
  8
SiNwafer
 10
10.048955
 20
2.961181
  0
VERTEX
  8
SiNwafer
 10
10.045166
 20
2.952033
  0
VERTEX
  8
SiNwafer
 10
10.040594
 20
2.943250
  0
VERTEX
  8
SiNwafer
 10
10.035274
 20
2.934899
  0
VERTEX
  8
SiNwafer
 10
10.029246
 20
2.927044
  0
VERTEX
  8
SiNwafer
 10
10.022557
 20
2.919743
  0
VERTEX
  8
SiNwafer
 10
10.015256
 20
2.913054
  0
VERTEX
  8
SiNwafer
 10
10.007401
 20
2.907026
  0
VERTEX
  8
SiNwafer
 10
9.999050
 20
2.901706
  0
VERTEX
  8
SiNwafer
 10
9.990267
 20
2.897134
  0
VERTEX
  8
SiNwafer
 10
9.981119
 20
2.893345
  0
VERTEX
  8
SiNwafer
 10
9.971676
 20
2.890367
  0
VERTEX
  8
SiNwafer
 10
9.962009
 20
2.888224
  0
VERTEX
  8
SiNwafer
 10
9.952192
 20
2.886932
  0
VERTEX
  8
SiNwafer
 10
9.942300
 20
2.886500
  0
VERTEX
  8
SiNwafer
 10
9.942300
 20
2.913500
  0
SEQEND
  0
POLYLINE
  8
MSgnd
  6
CONTINUOUS
 66
1
 10
0.0
 20
0.0
 70
1
  0
VERTEX
  8
MSgnd
 10
9.942300
 20
2.917400
  0
VERTEX
  8
MSgnd
 10
9.949499
 20
2.917714
  0
VERTEX
  8
MSgnd
 10
9.956643
 20
2.918655
  0
VERTEX
  8
MSgnd
 10
9.963678
 20
2.920215
  0
VERTEX
  8
MSgnd
 10
9.970551
 20
2.922381
  0
VERTEX
  8
MSgnd
 10
9.977208
 20
2.925139
  0
VERTEX
  8
MSgnd
 10
9.983600
 20
2.928466
  0
VERTEX
  8
MSgnd
 10
9.989677
 20
2.932338
  0
VERTEX
  8
MSgnd
 10
9.995394
 20
2.936725
  0
VERTEX
  8
MSgnd
 10
10.000707
 20
2.941593
  0
VERTEX
  8
MSgnd
 10
10.005575
 20
2.946906
  0
VERTEX
  8
MSgnd
 10
10.009962
 20
2.952623
  0
VERTEX
  8
MSgnd
 10
10.013834
 20
2.958700
  0
VERTEX
  8
MSgnd
 10
10.017161
 20
2.965092
  0
VERTEX
  8
MSgnd
 10
10.019919
 20
2.971749
  0
VERTEX
  8
MSgnd
 10
10.022085
 20
2.978622
  0
VERTEX
  8
MSgnd
 10
10.023645
 20
2.985657
  0
VERTEX
  8
MSgnd
 10
10.024586
 20
2.992801
  0
VERTEX
  8
MSgnd
 10
10.024900
 20
3.000000
  0
VERTEX
  8
MSgnd
 10
10.032700
 20
3.000000
  0
VERTEX
  8
MSgnd
 10
10.032356
 20
2.992121
  0
VERTEX
  8
MSgnd
 10
10.031327
 20
2.984302
  0
VERTEX
  8
MSgnd
 10
10.029620
 20
2.976603
  0
VERTEX
  8
MSgnd
 10
10.027248
 20
2.969081
  0
VERTEX
  8
MSgnd
 10
10.024230
 20
2.961795
  0
VERTEX
  8
MSgnd
 10
10.020589
 20
2.954800
  0
VERTEX
  8
MSgnd
 10
10.016351
 20
2.948149
  0
VERTEX
  8
MSgnd
 10
10.011550
 20
2.941892
  0
VERTEX
  8
MSgnd
 10
10.006222
 20
2.936078
  0
VERTEX
  8
MSgnd
 10
10.000408
 20
2.930750
  0
VERTEX
  8
MSgnd
 10
9.994151
 20
2.925949
  0
VERTEX
  8
MSgnd
 10
9.987500
 20
2.921711
  0
VERTEX
  8
MSgnd
 10
9.980505
 20
2.918070
  0
VERTEX
  8
MSgnd
 10
9.973219
 20
2.915052
  0
VERTEX
  8
MSgnd
 10
9.965697
 20
2.912680
  0
VERTEX
  8
MSgnd
 10
9.957998
 20
2.910973
  0
VERTEX
  8
MSgnd
 10
9.950179
 20
2.909944
  0
VERTEX
  8
MSgnd
 10
9.942300
 20
2.909600
  0
VERTEX
  8
MSgnd
 10
9.942300
 20
2.917400
  0
SEQEND
  0
POLYLINE
  8
MSgnd
  6
CONTINUOUS
 66
1
 10
0.0
 20
0.0
 70
1
  0
VERTEX
  8
MSgnd
 10
9.942300
 20
2.890400
  0
VERTEX
  8
MSgnd
 10
9.951852
 20
2.890817
  0
VERTEX
  8
MSgnd
 10
9.961332
 20
2.892065
  0
VERTEX
  8
MSgnd
 10
9.970667
 20
2.894135
  0
VERTEX
  8
MSgnd
 10
9.979785
 20
2.897010
  0
VERTEX
  8
MSgnd
 10
9.988619
 20
2.900669
  0
VERTEX
  8
MSgnd
 10
9.997100
 20
2.905084
  0
VERTEX
  8
MSgnd
 10
10.005164
 20
2.910221
  0
VERTEX
  8
MSgnd
 10
10.012750
 20
2.916042
  0
VERTEX
  8
MSgnd
 10
10.019799
 20
2.922501
  0
VERTEX
  8
MSgnd
 10
10.026258
 20
2.929550
  0
VERTEX
  8
MSgnd
 10
10.032079
 20
2.937136
  0
VERTEX
  8
MSgnd
 10
10.037216
 20
2.945200
  0
VERTEX
  8
MSgnd
 10
10.041631
 20
2.953681
  0
VERTEX
  8
MSgnd
 10
10.045290
 20
2.962515
  0
VERTEX
  8
MSgnd
 10
10.048165
 20
2.971633
  0
VERTEX
  8
MSgnd
 10
10.050235
 20
2.980968
  0
VERTEX
  8
MSgnd
 10
10.051483
 20
2.990448
  0
VERTEX
  8
MSgnd
 10
10.051900
 20
3.000000
  0
VERTEX
  8
MSgnd
 10
10.059700
 20
3.000000
  0
VERTEX
  8
MSgnd
 10
10.059253
 20
2.989768
  0
VERTEX
  8
MSgnd
 10
10.057916
 20
2.979614
  0
VERTEX
  8
MSgnd
 10
10.055700
 20
2.969615
  0
VERTEX
  8
MSgnd
 10
10.052620
 20
2.959847
  0
VERTEX
  8
MSgnd
 10
10.048701
 20
2.950385
  0
VERTEX
  8
MSgnd
 10
10.043971
 20
2.941300
  0
VERTEX
  8
MSgnd
 10
10.038468
 20
2.932662
  0
VERTEX
  8
MSgnd
 10
10.032234
 20
2.924537
  0
VERTEX
  8
MSgnd
 10
10.025314
 20
2.916986
  0
VERTEX
  8
MSgnd
 10
10.017763
 20
2.910066
  0
VERTEX
  8
MSgnd
 10
10.009638
 20
2.903832
  0
VERTEX
  8
MSgnd
 10
10.001000
 20
2.898329
  0
VERTEX
  8
MSgnd
 10
9.991915
 20
2.893599
  0
VERTEX
  8
MSgnd
 10
9.982453
 20
2.889680
  0
VERTEX
  8
MSgnd
 10
9.972685
 20
2.886600
  0
VERTEX
  8
MSgnd
 10
9.962686
 20
2.884384
  0
VERTEX
  8
MSgnd
 10
9.952532
 20
2.883047
  0
VERTEX
  8
MSgnd
 10
9.942300
 20
2.882600
  0
VERTEX
  8
MSgnd
 10
9.942300
 20
2.890400
  0
SEQEND
  0
POLYLINE
  8
SiNdiel
  6
CONTINUOUS
 66
1
 10
0.0
 20
0.0
 70
1
  0
VERTEX
  8
SiNdiel
 10
9.962300
 20
2.932400
  0
VERTEX
  8
SiNdiel
 10
9.922300
 20
2.932400
  0
VERTEX
  8
SiNdiel
 10
9.922300
 20
2.867600
  0
VERTEX
  8
SiNdiel
 10
9.962300
 20
2.867600
  0
VERTEX
  8
SiNdiel
 10
9.962300
 20
2.932400
  0
SEQEND
  0
POLYLINE
  8
Hybrids
  6
CONTINUOUS
 66
1
 10
0.0
 20
0.0
 70
1
  0
VERTEX
  8
Hybrids
 10
9.952300
 20
2.964900
  0
VERTEX
  8
Hybrids
 10
9.932300
 20
2.964900
  0
VERTEX
  8
Hybrids
 10
9.932300
 20
2.835100
  0
VERTEX
  8
Hybrids
 10
9.952300
 20
2.835100
  0
VERTEX
  8
Hybrids
 10
9.952300
 20
2.964900
  0
SEQEND
  0
POLYLINE
  8
SiNwafer
  6
CONTINUOUS
 66
1
 10
0.0
 20
0.0
 70
1
  0
VERTEX
  8
SiNwafer
 10
9.942300
 20
2.913500
  0
VERTEX
  8
SiNwafer
 10
2.700000
 20
2.913500
  0
VERTEX
  8
SiNwafer
 10
2.700000
 20
2.886500
  0
VERTEX
  8
SiNwafer
 10
9.942300
 20
2.886500
  0
VERTEX
  8
SiNwafer
 10
9.942300
 20
2.913500
  0
SEQEND
  0
POLYLINE
  8
MSgnd
  6
CONTINUOUS
 66
1
 10
0.0
 20
0.0
 70
1
  0
VERTEX
  8
MSgnd
 10
9.942300
 20
2.890400
  0
VERTEX
  8
MSgnd
 10
7.942300
 20
2.890400
  0
VERTEX
  8
MSgnd
 10
7.942300
 20
2.882600
  0
VERTEX
  8
MSgnd
 10
9.942300
 20
2.882600
  0
VERTEX
  8
MSgnd
 10
9.942300
 20
2.890400
  0
SEQEND
  0
POLYLINE
  8
MSgnd
  6
CONTINUOUS
 66
1
 10
0.0
 20
0.0
 70
1
  0
VERTEX
  8
MSgnd
 10
9.942300
 20
2.917400
  0
VERTEX
  8
MSgnd
 10
7.942300
 20
2.917400
  0
VERTEX
  8
MSgnd
 10
7.942300
 20
2.909600
  0
VERTEX
  8
MSgnd
 10
9.942300
 20
2.909600
  0
VERTEX
  8
MSgnd
 10
9.942300
 20
2.917400
  0
SEQEND
  0
POLYLINE
  8
SiNdiel
  6
CONTINUOUS
 66
1
 10
0.0
 20
0.0
 70
1
  0
VERTEX
  8
SiNdiel
 10
7.962300
 20
2.932400
  0
VERTEX
  8
SiNdiel
 10
7.922300
 20
2.932400
  0
VERTEX
  8
SiNdiel
 10
7.922300
 20
2.867600
  0
VERTEX
  8
SiNdiel
 10
7.962300
 20
2.867600
  0
VERTEX
  8
SiNdiel
 10
7.962300
 20
2.932400
  0
SEQEND
  0
POLYLINE
  8
Hybrids
  6
CONTINUOUS
 66
1
 10
0.0
 20
0.0
 70
1
  0
VERTEX
  8
Hybrids
 10
7.952300
 20
2.964900
  0
VERTEX
  8
Hybrids
 10
7.932300
 20
2.964900
  0
VERTEX
  8
Hybrids
 10
7.932300
 20
2.835100
  0
VERTEX
  8
Hybrids
 10
7.952300
 20
2.835100
  0
VERTEX
  8
Hybrids
 10
7.952300
 20
2.964900
  0
SEQEND
  0
POLYLINE
  8
MSgnd
  6
CONTINUOUS
 66
1
 10
0.0
 20
0.0
 70
1
  0
VERTEX
  8
MSgnd
 10
7.942300
 20
2.890400
  0
VERTEX
  8
MSgnd
 10
5.942300
 20
2.890400
  0
VERTEX
  8
MSgnd
 10
5.942300
 20
2.882600
  0
VERTEX
  8
MSgnd
 10
7.942300
 20
2.882600
  0
VERTEX
  8
MSgnd
 10
7.942300
 20
2.890400
  0
SEQEND
  0
POLYLINE
  8
MSgnd
  6
CONTINUOUS
 66
1
 10
0.0
 20
0.0
 70
1
  0
VERTEX
  8
MSgnd
 10
7.942300
 20
2.917400
  0
VERTEX
  8
MSgnd
 10
5.942300
 20
2.917400
  0
VERTEX
  8
MSgnd
 10
5.942300
 20
2.909600
  0
VERTEX
  8
MSgnd
 10
7.942300
 20
2.909600
  0
VERTEX
  8
MSgnd
 10
7.942300
 20
2.917400
  0
SEQEND
  0
POLYLINE
  8
SiNdiel
  6
CONTINUOUS
 66
1
 10
0.0
 20
0.0
 70
1
  0
VERTEX
  8
SiNdiel
 10
5.962300
 20
2.932400
  0
VERTEX
  8
SiNdiel
 10
5.922300
 20
2.932400
  0
VERTEX
  8
SiNdiel
 10
5.922300
 20
2.867600
  0
VERTEX
  8
SiNdiel
 10
5.962300
 20
2.867600
  0
VERTEX
  8
SiNdiel
 10
5.962300
 20
2.932400
  0
SEQEND
  0
POLYLINE
  8
Hybrids
  6
CONTINUOUS
 66
1
 10
0.0
 20
0.0
 70
1
  0
VERTEX
  8
Hybrids
 10
5.952300
 20
2.964900
  0
VERTEX
  8
Hybrids
 10
5.932300
 20
2.964900
  0
VERTEX
  8
Hybrids
 10
5.932300
 20
2.835100
  0
VERTEX
  8
Hybrids
 10
5.952300
 20
2.835100
  0
VERTEX
  8
Hybrids
 10
5.952300
 20
2.964900
  0
SEQEND
  0
POLYLINE
  8
MSgnd
  6
CONTINUOUS
 66
1
 10
0.0
 20
0.0
 70
1
  0
VERTEX
  8
MSgnd
 10
5.942300
 20
2.890400
  0
VERTEX
  8
MSgnd
 10
3.942300
 20
2.890400
  0
VERTEX
  8
MSgnd
 10
3.942300
 20
2.882600
  0
VERTEX
  8
MSgnd
 10
5.942300
 20
2.882600
  0
VERTEX
  8
MSgnd
 10
5.942300
 20
2.890400
  0
SEQEND
  0
POLYLINE
  8
MSgnd
  6
CONTINUOUS
 66
1
 10
0.0
 20
0.0
 70
1
  0
VERTEX
  8
MSgnd
 10
5.942300
 20
2.917400
  0
VERTEX
  8
MSgnd
 10
3.942300
 20
2.917400
  0
VERTEX
  8
MSgnd
 10
3.942300
 20
2.909600
  0
VERTEX
  8
MSgnd
 10
5.942300
 20
2.909600
  0
VERTEX
  8
MSgnd
 10
5.942300
 20
2.917400
  0
SEQEND
  0
POLYLINE
  8
SiNdiel
  6
CONTINUOUS
 66
1
 10
0.0
 20
0.0
 70
1
  0
VERTEX
  8
SiNdiel
 10
3.962300
 20
2.932400
  0
VERTEX
  8
SiNdiel
 10
3.922300
 20
2.932400
  0
VERTEX
  8
SiNdiel
 10
3.922300
 20
2.867600
  0
VERTEX
  8
SiNdiel
 10
3.962300
 20
2.867600
  0
VERTEX
  8
SiNdiel
 10
3.962300
 20
2.932400
  0
SEQEND
  0
POLYLINE
  8
Hybrids
  6
CONTINUOUS
 66
1
 10
0.0
 20
0.0
 70
1
  0
VERTEX
  8
Hybrids
 10
3.952300
 20
2.964900
  0
VERTEX
  8
Hybrids
 10
3.932300
 20
2.964900
  0
VERTEX
  8
Hybrids
 10
3.932300
 20
2.835100
  0
VERTEX
  8
Hybrids
 10
3.952300
 20
2.835100
  0
VERTEX
  8
Hybrids
 10
3.952300
 20
2.964900
  0
SEQEND
  0
POLYLINE
  8
MSgnd
  6
CONTINUOUS
 66
1
 10
0.0
 20
0.0
 70
1
  0
VERTEX
  8
MSgnd
 10
3.942300
 20
2.890400
  0
VERTEX
  8
MSgnd
 10
2.700000
 20
2.890400
  0
VERTEX
  8
MSgnd
 10
2.700000
 20
2.882600
  0
VERTEX
  8
MSgnd
 10
3.942300
 20
2.882600
  0
VERTEX
  8
MSgnd
 10
3.942300
 20
2.890400
  0
SEQEND
  0
POLYLINE
  8
MSgnd
  6
CONTINUOUS
 66
1
 10
0.0
 20
0.0
 70
1
  0
VERTEX
  8
MSgnd
 10
3.942300
 20
2.917400
  0
VERTEX
  8
MSgnd
 10
2.700000
 20
2.917400
  0
VERTEX
  8
MSgnd
 10
2.700000
 20
2.909600
  0
VERTEX
  8
MSgnd
 10
3.942300
 20
2.909600
  0
VERTEX
  8
MSgnd
 10
3.942300
 20
2.917400
  0
SEQEND
  0
ENDBLK
  0
ENDSEC
  0
SECTION
  2
ENTITIES
  0
INSERT
  8
0
  2
leaky_cpw
 10
0.000000
 20
0.000000
 30
0.0
 41
1.0
 42
1.0
  0
ENDSEC
  0
EOF
